<svg width="226" height="39" viewBox="0 0 226 39" fill="none" xmlns="http://www.w3.org/2000/svg">
<path d="M223.673 11.4981C223.673 10.6331 223.065 10.0564 222.063 10.0564L220.094 10.0924L220.13 14.4898H221.204V12.976H221.848L222.779 14.4898H224.031L222.922 12.7957C223.151 12.6675 223.342 12.4792 223.474 12.2509C223.607 12.0225 223.675 11.7625 223.673 11.4981ZM221.848 12.0749H221.168V10.9575H221.955C222.097 10.9418 222.24 10.9818 222.353 11.0691C222.466 11.1563 222.542 11.2842 222.564 11.4261V11.4621C222.561 11.5512 222.54 11.6387 222.501 11.7191C222.463 11.7994 222.408 11.8707 222.341 11.9284C222.273 11.9862 222.195 12.029 222.11 12.0542C222.025 12.0795 221.936 12.0865 221.848 12.0749ZM63.0937 31.8272C61.2686 31.8272 60.016 30.3854 60.016 28.2588V18.5628H67.5314V11.7144H60.0339L59.9623 3.85675H51.6596L51.7311 30.025C51.7311 35.3235 55.2383 38.9279 60.3918 38.9279C63.1116 38.9279 65.6884 38.5314 67.7283 37.5943V30.9261C66.2797 31.6031 64.6885 31.9125 63.0937 31.8272ZM82.9202 11.2819C75.19 11.2819 69.2492 17.3373 69.2492 25.3752C69.2492 33.341 75.19 38.8919 83.3854 38.8919C88.002 38.8919 92.3323 37.2338 94.9806 33.8096L88.6104 30.89C87.322 32.0795 85.3537 32.5481 83.6001 32.5481C80.7371 32.5481 77.8741 31.0702 77.4804 28.0425H96.4837C96.7693 26.9606 96.9137 25.8459 96.9131 24.7264C96.9131 16.4723 90.9366 11.2819 82.938 11.2819H82.9202ZM77.4804 22.744C77.7309 19.1396 80.3076 17.4815 83.1349 17.4815C86.32 17.4815 88.7178 19.2837 88.7178 22.3835V22.744H77.4804ZM43.7684 31.8272C41.9432 31.8272 40.6906 30.3854 40.6906 28.2588V18.5628H48.2061V11.7144H40.7085L40.637 3.85675H32.3342L32.4058 30.025C32.4058 35.3235 35.913 38.9279 41.0664 38.9279C43.7863 38.9279 46.363 38.5314 48.4029 37.5943V30.9261C46.9554 31.6064 45.3633 31.9159 43.7684 31.8272ZM14.6014 11.2819C7.47963 11.2819 0 16.0037 0 25.5194C0 33.4492 5.29658 39 11.9889 39C15.8182 39 18.717 37.4501 20.6137 34.7107L20.8642 38.5314H28.8986V25.8438C28.8986 16.1839 21.8305 11.2819 14.6014 11.2819ZM14.6014 31.683C10.9868 31.683 8.37433 28.9797 8.37433 25.159C8.37433 21.3383 10.951 18.6349 14.6014 18.6349C17.9654 18.6349 20.7569 21.5906 20.7569 25.159C20.7569 28.7274 17.9654 31.683 14.6014 31.683ZM221.669 8.07393C219.057 8.10998 217.375 9.80407 217.41 12.3272C217.446 14.8503 219.164 16.5083 221.777 16.4723C224.317 16.4362 226.035 14.7421 225.999 12.183C225.964 9.62385 224.246 8.03789 221.669 8.07393ZM221.777 15.7514C219.737 15.7874 218.341 14.4177 218.341 12.3272C218.341 10.2366 219.665 8.83087 221.705 8.79482C223.745 8.75878 225.105 10.1285 225.141 12.2551C225.141 14.3096 223.781 15.7153 221.794 15.7514H221.777ZM181.086 11.7505L175.288 28.6913L169.419 11.7505H160.401L171.208 38.4954H179.296L190.104 11.7505H181.086ZM202.594 11.2819C194.864 11.2819 188.923 17.3373 188.923 25.3752C188.923 33.341 194.864 38.8919 203.06 38.8919C207.676 38.8919 212.006 37.2338 214.655 33.8096L208.285 30.89C206.996 32.0795 205.028 32.5481 203.274 32.5481C200.411 32.5481 197.548 31.0702 197.155 28.0425H216.158C216.443 26.9606 216.588 25.8459 216.587 24.7264C216.587 16.4723 210.611 11.2819 202.594 11.2819ZM208.392 22.744H197.155C197.405 19.1396 199.982 17.4815 202.809 17.4815C205.994 17.4815 208.392 19.2837 208.392 22.3835V22.744ZM153.995 0C151.06 0 148.841 1.98244 148.841 4.75786C148.841 7.53328 151.06 9.5878 153.995 9.5878C156.929 9.5878 159.148 7.56932 159.148 4.75786C159.148 1.9464 156.965 0 153.995 0ZM116.31 11.2458C114.632 11.2185 112.976 11.6291 111.502 12.4376C110.028 13.246 108.787 14.4249 107.9 15.8595L107.614 11.7505H99.5972V38.4954H107.9V24.4741C108.079 21.122 110.763 18.5628 113.698 18.5628C116.99 18.5628 118.493 21.0499 118.493 24.1858V38.4593H126.76V22.8882C126.76 16.1118 122.662 11.2458 116.31 11.2458ZM141.648 31.8272C139.823 31.8272 138.57 30.3854 138.57 28.2588V18.5628H146.085V11.7144H138.57L138.498 3.85675H130.196L130.267 30.025C130.267 35.3235 133.775 38.9279 138.928 38.9279C141.648 38.9279 144.225 38.5314 146.264 37.5943V30.9261C144.822 31.6035 143.237 31.9129 141.648 31.8272ZM149.807 11.7505V38.4954H158.182V11.7505C156.94 12.5791 155.484 13.021 153.995 13.021C152.505 13.021 151.049 12.5791 149.807 11.7505Z" fill="white"/>
</svg>
