<svg width="355" height="560" viewBox="0 0 355 560" fill="none" xmlns="http://www.w3.org/2000/svg">
<path d="M0 17.1174C0 8.1238 7.29078 0.833008 16.2844 0.833008H338.716C347.709 0.833008 355 8.12378 355 17.1174V543.104C355 552.097 347.709 559.388 338.716 559.388H16.2844C7.29077 559.388 0 552.097 0 543.104V17.1174Z" fill="black"/>
<path d="M0 331.406H355V543.104C355 552.097 347.709 559.388 338.716 559.388H17.9128C8.01986 559.388 0 551.368 0 541.475V331.406Z" fill="black"/>
<path fill-rule="evenodd" clip-rule="evenodd" d="M355 211.549C348.116 207.397 343.263 206.064 338.282 206.814L337.004 207.006L337.366 209.833C337.566 211.388 337.702 215.028 337.67 217.921C337.622 222.279 337.411 223.758 336.443 226.538C332.535 237.759 323.007 245.306 307.762 249.252C292.813 253.122 273.112 252.282 258.757 247.163C252.954 245.093 249.075 242.842 242.236 237.573C231.757 229.5 230.594 228.68 226.206 226.26C220.341 223.027 213.361 221.999 203.535 222.922C192.416 223.967 190.412 224.001 185.902 223.219C181.639 222.481 177.265 220.802 173.994 218.648C167.113 214.119 165.193 213.048 161.916 211.909C156.749 210.112 153.647 210.169 147.346 212.178C144.655 213.036 141.549 213.874 140.443 214.04C137.629 214.461 135.37 213.444 134.242 211.246L133.362 209.532L133.046 216.815C132.872 220.82 132.379 228.626 131.95 234.162C131.464 240.436 131.174 249.136 131.181 257.265C131.193 273.076 131.963 279.053 135.245 288.831C137.853 296.598 138.974 302.689 138.273 305.286C137.668 307.533 136.143 308.676 134.35 308.226L133.083 307.909L133.394 318.842C133.565 324.855 133.909 334.099 134.159 339.383C136.346 385.717 136.49 416.276 134.611 435.225C134.192 439.454 132.056 454.392 130.883 461.301C130.55 463.266 130.291 468.74 130.277 474.111C130.257 482.458 130.369 483.917 131.294 487.378C132.908 493.418 135.208 497.564 139.186 501.603C144.602 507.102 149.213 509.419 158.88 511.498C164.169 512.636 165.406 512.729 175.139 512.72C180.932 512.715 188.352 512.45 191.627 512.132C201.419 511.182 213.911 511.341 221.168 512.508C234.304 514.622 243.872 517.2 249.625 520.175C252.673 521.751 257.214 525.271 257.998 526.663C258.228 527.073 258.561 527.51 258.737 527.636C259.194 527.961 260.992 531.577 261.714 533.62C262.049 534.569 262.652 537.677 263.055 540.526C264.545 551.085 266.076 555.291 269.842 559.17C269.914 559.244 269.985 559.316 270.056 559.388H296.412C296.66 559.069 296.893 558.738 297.111 558.395C299.006 555.411 299.482 553.316 299.472 547.994C299.462 542.927 298.894 539.733 297.785 538.508C296.098 536.646 294.249 537.942 289.325 544.441C282.482 553.473 278.481 556.015 275.722 553.082C273.586 550.811 274.02 543.692 276.608 538.572C278.735 534.363 280.408 532.167 286.037 526.197C299.272 512.156 301.134 507.311 302.007 484.633C302.599 469.285 305.012 458.179 309.477 450.269C310.699 448.101 311.938 446.043 312.23 445.694C312.52 445.346 313.767 443.826 315 442.316C319.669 436.6 328.3 430.484 340.398 424.319C346.133 421.396 350.717 419.311 355 417.778V398.835C353.308 397.9 351.892 396.86 350.878 395.769C349.556 394.345 349.076 391.637 349.881 390.135C350.512 388.957 352.484 387.577 355 386.463V377.362C348.972 377.655 345.655 379.057 342.726 382.03C340.583 384.206 340.081 385.073 339.04 388.411C337.963 391.86 337.866 392.724 338.132 396.479C339.101 410.139 339.091 410.675 337.849 412.118C336.749 413.395 336.633 413.426 334.856 412.893C332.51 412.192 328.713 409.601 326.019 406.864C324.159 404.975 320.554 399.707 320.554 398.878C320.554 398.705 319.24 395.829 317.635 392.486C315.244 387.506 314.241 385.941 312.086 383.822C309.895 381.669 308.919 381.073 306.257 380.266C300.311 378.462 293.926 379.85 290.903 383.605C288.283 386.857 287.929 388.84 287.57 402.286C287.39 409.042 287.018 415.127 286.73 416.03C285.666 419.367 283.052 421.926 280.708 421.926C276.776 421.926 271.574 415.042 269.509 407.108C266.223 394.482 275.312 378.113 288.41 373.067C295.033 370.516 304.274 370.362 319.618 372.547C328.277 373.781 337.635 373.788 342.704 372.567C345.154 371.977 349.48 371.38 355 370.848V348.882C351.584 346.978 348.56 344.592 345.198 341.288C340.992 337.154 338.402 333.587 336.343 329.089C335.084 326.34 334.981 325.718 334.981 320.855C334.981 315.951 335.07 315.422 336.295 313.077C339.749 306.465 346.538 301.44 355 298.71V289.598C353.59 290.014 352.394 290.413 351.777 290.688C350.6 291.213 347.782 292.352 345.515 293.22C343.248 294.089 340.774 295.074 340.019 295.411C336.722 296.879 329.792 298.534 326.722 298.585C322.584 298.654 320.781 297.69 319.605 294.778C318.429 291.869 318.504 289.223 319.835 286.643C322.611 281.258 329.787 279.229 346.063 279.226C349.343 279.225 352.164 279.264 355 279.372V245.661C354.246 247.557 353.331 249.579 352.255 251.712C349.186 257.793 344.198 261.587 331.088 267.812C318.527 273.776 314.705 277.16 308.898 287.458C305.308 293.823 304.932 294.457 303.505 296.528C301.205 299.869 297.28 303.371 294.071 304.949C289.966 306.968 286.713 306.972 282.757 304.963C273.445 300.233 268.619 289.199 273.525 283.853C274.86 282.397 278.747 280.606 280.583 280.601C282.724 280.594 283.522 282.115 284.16 287.42C284.766 292.466 285.508 293.948 288.087 295.262C292.703 297.614 295.999 295.338 299.714 287.23C303.408 279.168 304.297 277.697 307.245 274.781C309.9 272.154 314.94 268.559 321.798 264.399C329.224 259.894 333.247 256.782 336.199 253.258C338.566 250.434 338.909 249.749 340.945 243.769C344.148 234.361 346.507 230.224 349.511 228.745C351.443 227.794 352.652 227.801 354.696 228.774C354.8 228.824 354.902 228.877 355 228.933V211.549ZM355 311.21C353.424 309.588 351.35 309.38 349.118 310.809C347.45 311.876 345.492 314.664 344.563 317.297C343.652 319.876 343.728 324.379 344.714 326.312C346.851 330.497 352.022 332.074 354.824 329.394C354.883 329.338 354.942 329.278 355 329.216V311.21ZM355 430.84C348.706 433.132 342.737 436.003 337.079 439.457C333.881 441.41 333.05 442.006 328.899 445.327C323.339 449.774 317.776 456.248 314.778 461.759C310.823 469.029 309.096 476.335 308.776 487.149C308.553 494.7 308.672 496.551 310.336 511.396C311.292 519.925 311.437 541.141 310.576 546.622C309.934 550.707 308.477 555.613 306.894 559.388H317.423C317.572 558.552 317.861 557.695 318.296 556.84C321.62 550.289 336.96 540.183 355 532.127V513.603C353.364 515.877 351.561 518.232 349.536 520.767C346.243 524.889 338.751 531.792 333.969 535.111C331.354 536.925 323.52 541.361 322.93 541.361C322.727 541.361 322.19 541.09 321.737 540.759C320.949 540.184 320.959 540.048 321.955 537.671C324.412 531.806 332.785 519.514 348.264 499.044C351.279 495.056 353.374 492.248 355 489.939V483.516C353.847 485.11 352.323 486.733 350.449 488.301C341.901 495.452 331.146 496.827 325.624 491.474C321.084 487.072 319.051 479.067 320.611 471.732C321.55 467.321 325.38 460.81 329.048 457.39C333.123 453.591 336.641 452.176 344.869 451.025C349.47 450.382 352.754 449.414 355 448.024V430.84ZM355 458.001C353.752 458.41 352.382 458.816 350.874 459.234C342.812 461.468 339.495 463.021 336.469 465.982C330.773 471.555 329.274 480.291 333.671 482.292C335.112 482.948 338.812 482.947 341.422 482.291C343.511 481.765 344.186 481.046 348.64 474.599C349.351 473.569 350.563 472.402 351.333 472.004C352.616 471.341 352.875 471.345 354.427 472.044C354.628 472.134 354.819 472.231 355 472.334V458.001ZM355 546.961C352.028 548.908 349.142 551.021 346.431 553.252C343.506 555.659 340.948 557.69 338.686 559.388H355V546.961ZM251.802 542.232C253.919 547.571 252.226 553.893 247.393 559.388H232.242C233.153 558.726 234.346 557.989 235.53 557.379C242.242 553.92 243.779 552.09 242.766 548.771C240.368 540.915 232.991 540.855 225.269 548.63C222.527 551.391 222.174 551.972 221.218 555.301C220.866 556.523 220.594 557.815 220.374 559.388H198.401C194.799 558.185 190.26 557.233 184.731 556.51C170.485 554.646 165.396 552.378 163.299 546.956C161.8 543.079 162.729 535.893 165.684 528.51C167.651 523.594 169.119 521.199 171.811 518.51C174.483 515.841 176.027 515.062 180.113 514.32C185.394 513.361 190.96 515.767 196.158 521.255C200.745 526.1 203.524 530.728 205.619 537.015C206.708 540.285 207.058 544.834 206.366 546.736C206.16 547.302 206.16 547.759 206.366 547.751C207.006 547.727 209.51 544.074 212.101 539.383C216.482 531.452 219.703 528.54 225.415 527.351C227.997 526.813 229.305 526.776 231.849 527.171C240.69 528.541 248.8 534.663 251.802 542.232ZM159.746 559.388H141.842C142.136 556.704 142.239 553.482 142.39 548.452C142.73 537.143 142.86 535.771 143.93 532.205C146.14 524.842 149.187 519.402 151.101 519.402C152.129 519.402 153.684 521.288 154.041 522.969C154.751 526.3 155.719 534.008 156.152 539.76C156.417 543.282 156.816 547.937 157.04 550.104C157.39 553.49 158.31 556.599 159.746 559.388ZM243.518 211.198C245.875 208.784 247.286 208.058 251.734 206.966C256.896 205.698 266.223 205.701 271.203 206.971C276.86 208.413 279.091 209.757 280.65 212.662C281.909 215.008 281.873 216.68 280.504 219.618C273.909 233.767 259.86 239.419 247.898 232.737C238.785 227.647 236.832 218.042 243.518 211.198ZM289.41 207.9C289.41 207.658 289.976 207.364 290.669 207.246C291.362 207.129 294.196 207.072 296.967 207.119C302.858 207.219 305.09 208.009 306.229 210.394C308.267 214.663 304.053 218.572 298.338 217.716C295.697 217.321 292.534 214.522 290.76 211.012C290.017 209.543 289.41 208.142 289.41 207.9ZM316.933 210.28C316.613 208.971 316.484 207.685 316.647 207.421C317.118 206.659 321.087 206.866 322.835 207.743C324.978 208.818 326.877 211.793 327.486 215.032C328.191 218.777 327.695 225.215 326.425 228.807C324.452 234.391 318.779 238.039 309.195 239.886C303.534 240.977 299.327 241.038 294.821 240.093C290.649 239.218 288.212 238.061 286.223 236.011C283.263 232.961 283.879 227.98 287.712 223.978C288.497 223.158 289.87 222.284 290.764 222.037C293.098 221.389 299.027 221.492 304.066 222.267C312.076 223.5 314.803 223.071 316.514 220.305C317.712 218.369 317.887 214.177 316.933 210.28ZM187.656 212.535C186.148 211.556 183.612 208.535 183.612 207.718C183.612 207.542 195.073 207.399 209.08 207.399H234.549L234.238 208.657C234.066 209.349 233.395 210.473 232.746 211.155C230.217 213.811 218.988 216.434 208.344 216.854C203.127 217.06 201.409 216.944 197.355 216.106C192.38 215.079 190.521 214.395 187.656 212.535ZM267.47 221.943C269.242 218.492 268.047 216.039 264.193 215.213C261.691 214.677 260.833 214.668 258.037 215.147C252.004 216.181 248.547 221.705 252.093 224.645C254.176 226.373 256.152 227.071 258.961 227.071C262.809 227.071 265.746 225.3 267.47 221.943ZM176.742 229.604C173.341 228.48 168.704 227.016 166.437 226.349C161.637 224.939 154.994 224.47 152.468 225.361C149.261 226.494 147.025 228.007 144.916 230.473C141.671 234.267 141.017 236.87 141.021 245.983C141.024 253.913 142.245 270.04 143.796 282.655C146.712 306.372 149.078 322.534 149.744 323.299C150.377 324.026 154.302 321.821 156.557 319.472C160.898 314.949 162.769 307.036 161.766 297.446C161.226 292.286 160.116 289.284 157.032 284.639C152.518 277.841 152.21 273.802 155.245 261.158C156.594 255.542 156.434 252.367 154.58 247.936C152.4 242.725 152.397 242.715 153.161 241.24C154.079 239.467 156.667 238.78 160.927 239.178C164.289 239.493 174.922 242.026 182.009 244.2C199.378 249.53 201.557 249.759 210.073 247.154C218.286 244.642 221.267 241.016 219.166 236.091C217.334 231.797 212.921 230.871 201.227 232.328C191.093 233.591 187.642 233.207 176.742 229.604ZM257.579 256.152C243.447 252.419 240.144 251.647 235.824 251.066C229.96 250.278 221.598 250.281 217.275 251.071C213.657 251.733 208.96 253.562 206.389 255.312C200.75 259.148 206.571 263.137 222.542 266.382C226.194 267.124 230.522 267.858 232.16 268.014C236.342 268.411 249.828 270.426 255.289 271.47C276.71 275.566 293.99 274.288 293.99 268.607C293.99 265.07 287.612 261.737 278.755 260.644C273.555 260.003 266.453 258.497 257.579 256.152ZM190.67 263.947C188.633 260.317 184.712 256.65 181.648 255.508C176.486 253.584 172.491 254.629 167.998 259.079C164.184 262.856 162.918 265.8 162.644 271.539C162.489 274.783 162.643 276.095 163.478 278.629C167.852 291.92 179.176 295.777 187.815 286.918C193.734 280.848 194.899 271.48 190.67 263.947ZM172.549 275.868C170.918 272.701 171.432 269.548 173.922 267.446C174.599 266.875 175.749 266.421 176.513 266.424C178.41 266.431 181.309 268.171 182.607 270.081C183.539 271.452 183.667 272.106 183.523 274.748C183.377 277.408 183.172 278.012 181.994 279.25C180.761 280.546 180.43 280.66 178.438 280.474C175.927 280.239 174.039 278.763 172.549 275.868ZM248.292 274.469C246.207 273.817 242.703 273.078 240.506 272.826C231.849 271.835 224.081 272.493 218.558 274.685C212.171 277.22 207.519 280.999 199.175 290.432C190.09 300.703 188.425 302.191 175.597 311.488C155.895 325.766 147.473 334.328 143.945 343.669C141.071 351.275 142.623 358.914 148.344 365.325C153.038 370.586 158.672 373.126 167.628 374.02C184.105 375.666 201.15 369.903 207.553 360.523C210.476 356.242 211.357 350.829 209.975 345.644C208.678 340.777 207.085 339.302 196.689 333.338C193.932 331.756 191.602 330.462 191.512 330.462C191.119 330.462 185.995 326.753 184.618 325.472C183.786 324.698 182.691 323.128 182.184 321.984C181.419 320.256 181.348 319.646 181.764 318.387C182.337 316.649 183.797 315.165 185.414 314.673C190.189 313.222 200.951 316.275 214.985 323.062C221.715 326.318 225.826 328.835 231.931 333.441C232.217 333.657 232.483 333.857 232.733 334.045C233.737 334.801 234.468 335.352 235.186 335.919C237.109 337.436 238.938 339.07 245.662 345.079L247.684 346.885C257.789 355.913 259.969 357.543 266.872 361.23C275.899 366.05 285.477 367.716 298.169 366.673C301.983 366.36 306.673 365.814 308.592 365.461C310.511 365.108 313.833 364.58 315.974 364.289C324.07 363.186 338.168 359.708 342.08 357.848C344.746 356.581 346.66 354.791 346.66 353.565C346.66 352.099 344.196 350.556 341.001 350.021C337.81 349.487 332.59 350.16 324.218 352.187C306.936 356.37 301.437 356.631 298.003 353.429C296.571 352.094 295.962 349.75 296.694 348.385C297.584 346.724 301.605 345.653 309.732 344.911C317.231 344.227 321.892 343.329 324.244 342.114C325.649 341.388 327.132 339.335 326.725 338.677C325.801 337.184 321.293 335.849 307.501 332.983C298.3 331.072 296.051 330.352 296.051 329.32C296.051 328.13 298.052 327.064 307.178 323.395C315.654 319.986 318.264 318.474 318.264 316.975C318.264 315.067 314.354 314.023 303.837 313.121C288.444 311.802 283.101 311.537 271.319 311.508C257.156 311.473 256.675 311.557 256.187 314.152C255.34 318.664 259.643 322.63 272.247 328.955C282.24 333.97 286.408 338.332 286.37 343.735C286.341 347.815 283.268 351.702 277.502 354.95C269.231 359.61 260.556 358.001 260.556 351.808C260.556 348.226 265.18 342.85 270.517 340.228C271.84 339.578 272.915 338.813 272.907 338.528C272.85 336.623 268.131 333.572 262.28 331.658C255.993 329.603 253.756 328.278 249.738 324.23C246.854 321.325 246.303 320.479 244.965 316.897C243.535 313.069 243.451 312.506 243.417 306.569C243.382 300.435 243.353 300.261 242.188 299.097C241.393 298.304 239.647 297.527 236.961 296.771C229.91 294.788 228.496 293.649 228.496 289.955C228.496 286.618 232.865 286.151 241.605 288.555C243.841 289.17 247.67 290.219 250.114 290.886C252.808 291.621 255.934 292.131 258.052 292.18C261.243 292.255 261.624 292.166 262.444 291.158C263.558 289.789 263.325 288.294 261.401 284.485C258.823 279.381 255.236 276.64 248.292 274.469ZM208.814 301.013C207.56 296 207.806 293.414 209.722 291.501C211.307 289.918 212.444 289.883 215.535 291.32C218.384 292.645 220.966 295.892 223.833 301.755C227.198 308.634 228.18 315.259 226.119 317.177C223.887 319.254 218.662 317.524 215.049 313.51C212.202 310.347 210.088 306.11 208.814 301.013ZM159.071 340.66C162.045 337.249 167.637 334.129 172.849 332.974C176.547 332.153 181.941 332.146 185.054 332.955C192.308 334.843 197.332 340.685 196.784 346.595C196.369 351.06 194.849 354.008 190.98 357.849C186.737 362.061 182.987 364.103 177.864 364.991C170.874 366.204 165.087 364.344 159.835 359.197C154.034 353.513 153.756 346.757 159.071 340.66ZM236.926 348.242C234.233 341.519 231.54 337.545 228.79 336.242C226.56 335.185 224.919 335.308 222.131 336.743C220.413 337.628 219.45 338.49 218.833 339.698C217.718 341.882 217.736 343.092 218.932 346.286C220.025 349.202 220.974 350.701 226.882 358.826C231.638 365.367 231.977 366.025 232.598 369.923C232.965 372.224 232.834 374.645 231.923 382.386C229.616 401.993 230.736 408.227 237.347 412.573C240.375 414.563 243.296 415.274 247.281 414.989C254.922 414.443 262.504 407.489 265.748 398.05C268.055 391.339 267.147 381.393 263.974 378.615C262.117 376.988 260.885 376.907 258.013 378.22C255.484 379.377 249.74 384.666 247.503 387.898C244.494 392.245 242.032 397.322 241.346 400.594C241.065 401.934 240.946 401.73 239.942 398.169C238.726 393.859 238.611 390.015 239.037 367.746C239.263 355.851 239 353.421 236.926 348.242ZM184.321 347.545C183.88 345.787 181.338 343.445 179.239 342.864C176.985 342.238 176.093 342.262 173.691 343.013C168.458 344.648 166.266 348.585 168.542 352.263C169.59 353.958 170.93 354.8 173.804 355.573C178.897 356.941 185.429 351.955 184.321 347.545ZM223.037 378.269C221.64 367.762 219.849 362.999 216.613 361.182C214.451 359.968 213.255 359.972 210.715 361.202C207.611 362.705 207.187 363.706 207.269 369.329C207.33 373.424 207.63 375.221 209.263 381.242C211.701 390.237 211.938 393.094 210.659 398.08C209.404 402.974 208.994 408.342 209.683 410.87C210.385 413.449 212.614 415.908 215.439 417.223C219.193 418.968 221.197 418.519 222.392 415.663C223.343 413.39 223.844 384.336 223.037 378.269ZM157.512 391.32C155.271 386.931 150.221 380.707 146.786 378.101C144.351 376.252 142.532 375.557 141.615 376.124C140.339 376.912 140.173 378.924 140.602 388.389C141.438 406.829 143.451 419.049 146.546 424.474C147.968 426.968 150.297 428.82 152.01 428.82C153.904 428.82 156.127 426.938 157.297 424.341C159.004 420.553 159.497 416.907 159.473 408.234C159.448 399.148 158.842 393.924 157.512 391.32ZM205.583 413.22C207.812 402.114 205.889 393.695 199.855 388.14C198.742 387.113 197.521 386.274 197.143 386.274C196.222 386.274 195.399 387.626 193.659 391.993C192.857 394.006 191.81 396.205 191.333 396.878C190.003 398.757 187.657 399.999 185.438 399.999C182.451 399.999 180.021 398.186 176.409 393.264C174.703 390.939 173.017 388.924 172.663 388.786C172.309 388.649 171.543 388.982 170.962 389.528C169.464 390.933 166.709 399.491 166.215 404.27C164.885 417.145 170.099 430.308 178.205 434.542C182.771 436.927 189.299 436.881 193.804 434.431C195.81 433.341 200.1 429.065 200.1 428.156C200.1 427.97 200.508 427.246 201.006 426.546C202.412 424.574 204.559 418.323 205.583 413.22ZM312.853 398.259C312.514 396.486 309.489 393.804 306.62 392.732C303.653 391.623 300.546 391.542 297.832 392.504C292.503 394.392 292.051 400.311 296.988 403.578C298.974 404.891 299.519 405.031 302.656 405.027C305.395 405.023 306.609 404.787 308.417 403.908C312.236 402.05 313.315 400.675 312.853 398.259ZM321.813 421.071C324.133 416.549 323.76 413.808 320.502 411.451C315.956 408.162 310.908 410.425 299.026 421.077C292.243 427.158 286.707 430.556 282.901 430.975C281.492 431.13 278.992 430.656 274.067 429.299C270.288 428.258 264.657 426.965 261.554 426.424C256.71 425.582 255.541 425.519 253.31 425.979C249.587 426.746 248.186 428.374 248.2 431.916C248.213 435.256 249.476 438.108 251.484 439.331C253.469 440.54 256.501 440.522 261.472 439.27C263.74 438.699 266.893 438.278 269.029 438.261C272.3 438.236 273.135 438.422 276.815 440C279.082 440.972 281.151 441.932 281.413 442.132C281.675 442.332 283.632 443.145 285.764 443.939C292.404 446.41 295.942 445.906 300.402 441.855C301.283 441.054 304.169 438.681 306.814 436.58C313.735 431.084 319.999 424.607 321.813 421.071ZM176.989 417.013C177.784 415.03 179.502 413.479 181.684 412.778C184.954 411.726 189.843 413.456 191.73 416.333C193.701 419.339 191.884 423.903 188.016 425.658C181.483 428.621 174.524 423.165 176.989 417.013ZM223.947 458.178C227.051 439.366 230.294 428.524 233.595 425.926L235.137 424.713L231.702 424.727C226.427 424.749 222.905 426.439 215.858 432.329C214.102 433.796 212.157 435.482 211.535 436.076C210.913 436.67 209.374 437.918 208.115 438.85C200.473 444.502 197.013 445.226 175.139 445.74C166.322 445.947 158.593 446.259 157.964 446.432C150.496 448.49 147.379 450.084 143.699 453.731C137.567 459.807 135.286 468.379 137.161 478.292C139.297 489.579 146.513 497.973 154.071 497.962C159.263 497.954 166.263 492.695 168.946 486.786C170.4 483.583 171.408 478.91 171.032 477.111C170.898 476.467 170.681 475.43 170.552 474.805C170.423 474.181 169.68 472.946 168.902 472.06C167.727 470.724 167.176 470.451 165.658 470.451C163.003 470.451 161.543 471.737 158.673 476.608C157.285 478.965 155.602 481.323 154.933 481.848C152.348 483.88 147.774 482.376 146.654 479.127C144.74 473.578 147.762 464.999 153.695 459.136C161.351 451.573 169.51 452.967 175.8 462.915C178.756 467.59 181.678 474.747 183.36 481.431C184.882 487.478 187.491 491.709 191.329 494.355C194.853 496.784 201.709 499.794 207.138 501.294C208.431 501.651 212.683 503.126 216.588 504.57C220.492 506.015 225.335 507.79 227.351 508.514C243.014 514.144 255.548 515.99 264.338 513.961C271.318 512.35 276.49 509.44 281.213 504.466C289.798 495.426 293.951 483.011 292.026 472.142C290.669 464.481 286.403 458.615 279.61 455.069C277.931 454.193 275.057 453.519 268.16 452.384C253.468 449.966 238.184 448.06 233.36 448.042L231.125 448.034L231.361 450.128C231.651 452.704 233.2 454.468 236.74 456.255C239.706 457.753 245.827 459.656 250.022 460.385C258.467 461.851 266.174 463.631 267.951 464.525C282.402 471.799 284.388 494.818 271.37 504.16C266.015 508.003 256.877 509.45 252.999 507.069C251.991 506.45 250.917 505.627 250.612 505.239C249.403 503.702 248.576 500.152 248.155 494.698C247.913 491.552 247.408 487.744 247.034 486.234C246.092 482.438 242.973 476.257 241.281 474.835C238.427 472.436 236.363 473.491 231.442 479.865C225.3 487.818 220.81 491.065 214.628 492.025C205.417 493.456 196.215 488.761 192.338 480.654C190.47 476.747 189.85 473.386 190.203 469.079C190.679 463.258 194.494 456.624 198.91 453.934C201.563 452.318 208.008 452.95 210.473 455.068C212.156 456.514 211.761 457.655 208.156 461.747C205.376 464.903 205.177 465.279 204.894 467.913C204.158 474.781 207.806 478.355 212.878 475.736C218.265 472.953 222.659 465.983 223.947 458.178ZM268.981 478.914C269.023 474.885 268.892 474.071 267.884 472.084C267.254 470.844 266.326 469.689 265.823 469.519C264.398 469.037 261.706 470.063 259.75 471.832C255.311 475.845 251.983 487.851 253.675 493.745C254.661 497.18 256.887 498.163 260.381 496.704C265.978 494.368 268.881 488.364 268.981 478.914ZM325.588 517.344C329.498 516.486 331.493 508.467 328.634 505.1C326.766 502.898 323.845 503.198 320.665 505.916C316.712 509.296 317.334 513.629 322.178 516.465C323.703 517.357 324.542 517.573 325.588 517.344ZM187.235 546.468C190.803 539.462 191.375 528.948 188.4 525.053C187.433 523.786 186.934 523.523 185.535 523.546C183.656 523.576 180.829 525.193 179.731 526.867C179.349 527.45 178.469 529.457 177.777 531.327C176.627 534.436 176.519 535.279 176.516 541.163C176.513 547.428 176.546 547.649 177.779 549.512C178.879 551.175 179.262 551.425 180.708 551.425C182.744 551.425 185.951 548.989 187.235 546.468Z" fill="#9DFA6F"/>
<path d="M58.0589 515.044H51.4597L55.6365 489.822H62.2341L58.0589 515.044Z" fill="white"/>
<path d="M82.0178 490.44C80.7175 489.929 78.6551 489.365 76.1025 489.365C69.5889 489.365 64.9932 492.799 64.9565 497.71C64.8951 501.332 68.2303 503.343 70.7247 504.552C73.2749 505.786 74.1398 506.592 74.1377 507.692C74.1087 509.381 72.0709 510.16 70.1719 510.16C67.5377 510.16 66.1271 509.759 63.9854 508.818L63.1167 508.416L62.1834 514.077C63.7293 514.774 66.5781 515.393 69.5382 515.42C76.4594 515.42 80.9719 512.039 81.0364 506.807C81.0677 503.936 79.3088 501.735 75.5113 499.938C73.207 498.783 71.7956 498.005 71.7979 496.825C71.8272 495.751 72.9977 494.652 75.6016 494.652C77.7468 494.599 79.3217 495.107 80.5132 495.618L81.1105 495.885L82.0178 490.44Z" fill="white"/>
<path d="M90.751 506.109C91.2972 504.66 93.3987 499.052 93.3987 499.052C93.3715 499.105 93.9435 497.576 94.2714 496.637L94.7291 498.811C94.7291 498.811 95.9656 504.848 96.2349 506.109C95.2039 506.109 92.0552 506.109 90.751 506.109ZM98.9263 489.822H93.8243C92.2499 489.822 91.0535 490.279 90.371 491.916L80.5281 515.044H87.4505C87.4505 515.044 88.5947 511.931 88.8421 511.26C89.6013 511.26 96.3351 511.26 97.3117 511.26C97.4987 512.146 98.0908 515.044 98.0908 515.044H104.2L98.9263 489.822Z" fill="white"/>
<path d="M46.0031 489.822L39.5091 507.022L38.811 503.533C37.6233 499.508 33.8868 495.136 29.7107 492.962L35.5855 515.017H42.5608L52.9784 489.822H46.0031Z" fill="white"/>
<path d="M33.5456 489.822H22.9327L22.8232 490.332C31.098 492.425 36.5707 497.47 38.8125 503.534L36.5272 491.943C36.1514 490.332 34.984 489.876 33.5456 489.822Z" fill="white"/>
<g clip-path="url(#clip0_101_2930)">
<rect x="219.84" y="77.3699" width="47.3728" height="65.1376" rx="4" fill="url(#paint0_linear_101_2930)"/>
<path fill-rule="evenodd" clip-rule="evenodd" d="M268.199 120.564L258.534 110.209L268.24 99.8542L267.448 99.0073L257.509 109.61L252.141 109.61L252.16 100.03L252.162 98.8319L252.214 72.4846L251.094 72.4846L251.042 98.8319L235.359 98.8319L235.41 72.4846L234.29 72.4846L234.239 98.8319L234.236 100.03L234.217 109.61L228.848 109.61L218.951 99.0073L218.157 99.8542L227.823 110.209L218.117 120.564L218.907 121.411L228.846 110.808L234.215 110.808L234.196 120.389L234.194 121.586L234.142 147.934L235.263 147.934L235.314 121.586L250.997 121.586L250.946 147.934L252.066 147.934L252.119 120.988C252.119 120.657 251.869 120.389 251.56 120.389L235.317 120.389L235.337 110.209L235.356 100.03L251.04 100.03L251.02 110.209C251.019 110.54 251.269 110.808 251.579 110.808L257.507 110.808L267.405 121.411L268.199 120.564Z" fill="#47453F"/>
</g>
<rect x="219.84" y="77.3699" width="47.3728" height="65.1376" rx="4" stroke="#47453F" stroke-width="0.6"/>
<path d="M50.8116 62.0265C50.8116 62.4087 50.7661 62.8455 50.6751 63.3369H39.5923C39.6469 64.6838 40.0108 65.6757 40.6842 66.3127C41.3575 66.9498 42.1946 67.2683 43.1955 67.2683C44.0873 67.2683 44.8243 67.0499 45.4066 66.6131C46.0072 66.1762 46.3894 65.5847 46.5531 64.8385H50.6205C50.4203 65.8941 49.9926 66.8406 49.3375 67.6778C48.6824 68.5151 47.8361 69.1703 46.7988 69.6435C45.7797 70.1167 44.6423 70.3533 43.3866 70.3533C41.9126 70.3533 40.6023 70.0439 39.4558 69.4251C38.3093 68.7881 37.4176 67.8871 36.7806 66.7223C36.1437 65.5574 35.8252 64.1833 35.8252 62.5998C35.8252 61.0163 36.1437 59.6421 36.7806 58.4773C37.4176 57.2942 38.3093 56.3933 39.4558 55.7745C40.6023 55.1556 41.9126 54.8462 43.3866 54.8462C44.8789 54.8462 46.1801 55.1556 47.2902 55.7745C48.4185 56.3933 49.2829 57.2487 49.8834 58.3408C50.5022 59.4146 50.8116 60.6432 50.8116 62.0265ZM46.9353 61.6442C46.9899 60.4066 46.6623 59.4692 45.9526 58.8322C45.2611 58.1952 44.4057 57.8767 43.3866 57.8767C42.3493 57.8767 41.4758 58.1952 40.7661 58.8322C40.0563 59.4692 39.6651 60.4066 39.5923 61.6442H46.9353Z" fill="white"/>
<path d="M68.0116 55.0373V70.1622H64.1626V67.1045C63.7623 68.1237 63.098 68.9246 62.1699 69.507C61.26 70.0712 60.2045 70.3533 59.0034 70.3533C57.2563 70.3533 55.8642 69.78 54.8269 68.6334C53.7896 67.4867 53.2709 65.885 53.2709 63.8283V55.0373H57.0926V63.3915C57.0926 64.5928 57.4019 65.5301 58.0207 66.2035C58.6394 66.8588 59.4765 67.1864 60.5321 67.1864C61.6422 67.1864 62.5248 66.8315 63.1799 66.1216C63.8351 65.4118 64.1626 64.3926 64.1626 63.0639V55.0373H68.0116Z" fill="white"/>
<path d="M75.3602 57.9313C75.9243 56.9666 76.6705 56.2113 77.5986 55.6653C78.5267 55.101 79.564 54.8189 80.7105 54.8189V58.9414H79.5913C76.7706 58.9414 75.3602 60.2519 75.3602 62.8728V70.1622H71.5112V55.0373H75.3602V57.9313Z" fill="white"/>
<path d="M89.829 54.8462C91.303 54.8462 92.6224 55.1556 93.7871 55.7745C94.97 56.3933 95.8981 57.2942 96.5715 58.4773C97.2448 59.6421 97.5815 61.0163 97.5815 62.5998C97.5815 64.1833 97.2448 65.5574 96.5715 66.7223C95.8981 67.8871 94.97 68.7881 93.7871 69.4251C92.6224 70.0439 91.303 70.3533 89.829 70.3533C88.3549 70.3533 87.0264 70.0439 85.8435 69.4251C84.6788 68.7881 83.7598 67.8871 83.0865 66.7223C82.4131 65.5574 82.0764 64.1833 82.0764 62.5998C82.0764 61.0163 82.4131 59.6421 83.0865 58.4773C83.7598 57.2942 84.6788 56.3933 85.8435 55.7745C87.0264 55.1556 88.3549 54.8462 89.829 54.8462ZM89.829 58.177C88.7553 58.177 87.8453 58.5592 87.0992 59.3236C86.3531 60.0699 85.98 61.1619 85.98 62.5998C85.98 64.0376 86.3531 65.1388 87.0992 65.9032C87.8453 66.6495 88.7553 67.0226 89.829 67.0226C90.9027 67.0226 91.8126 66.6495 92.5587 65.9032C93.3048 65.1388 93.6779 64.0376 93.6779 62.5998C93.6779 61.1619 93.3048 60.0699 92.5587 59.3236C91.8126 58.5592 90.9027 58.177 89.829 58.177Z" fill="white"/>
<path d="M109.337 54.8462C110.611 54.8462 111.758 55.1556 112.777 55.7745C113.796 56.3933 114.587 57.2942 115.152 58.4773C115.734 59.6421 116.025 61.0163 116.025 62.5998C116.025 64.1833 115.734 65.5665 115.152 66.7496C114.587 67.9144 113.796 68.8063 112.777 69.4251C111.758 70.0439 110.611 70.3533 109.337 70.3533C108.063 70.3533 106.971 70.053 106.061 69.4524C105.17 68.8336 104.533 68.0145 104.151 66.9953V77.3698H100.302V55.0373H104.151V58.177C104.533 57.1577 105.17 56.3478 106.061 55.7472C106.971 55.1465 108.063 54.8462 109.337 54.8462ZM108.136 58.2043C106.971 58.2043 106.007 58.6047 105.242 59.4055C104.496 60.1882 104.123 61.2529 104.123 62.5998C104.123 63.9284 104.496 64.9932 105.242 65.794C106.007 66.5767 106.971 66.968 108.136 66.968C109.337 66.968 110.302 66.5858 111.03 65.8213C111.758 65.0387 112.121 63.9648 112.121 62.5998C112.121 61.2347 111.758 60.1609 111.03 59.3782C110.302 58.5956 109.337 58.2043 108.136 58.2043Z" fill="white"/>
<path d="M132.971 62.0265C132.971 62.4087 132.925 62.8455 132.834 63.3369H121.752C121.806 64.6838 122.17 65.6757 122.843 66.3127C123.517 66.9498 124.354 67.2683 125.355 67.2683C126.247 67.2683 126.984 67.0499 127.566 66.6131C128.166 66.1762 128.549 65.5847 128.712 64.8385H132.78C132.58 65.8941 132.152 66.8406 131.497 67.6778C130.842 68.5151 129.995 69.1703 128.958 69.6435C127.939 70.1167 126.802 70.3533 125.546 70.3533C124.072 70.3533 122.762 70.0439 121.615 69.4251C120.469 68.7881 119.577 67.8871 118.94 66.7223C118.303 65.5574 117.984 64.1833 117.984 62.5998C117.984 61.0163 118.303 59.6421 118.94 58.4773C119.577 57.2942 120.469 56.3933 121.615 55.7745C122.762 55.1556 124.072 54.8462 125.546 54.8462C127.038 54.8462 128.339 55.1556 129.449 55.7745C130.578 56.3933 131.442 57.2487 132.043 58.3408C132.661 59.4146 132.971 60.6432 132.971 62.0265ZM129.095 61.6442C129.149 60.4066 128.822 59.4692 128.112 58.8322C127.42 58.1952 126.565 57.8767 125.546 57.8767C124.509 57.8767 123.635 58.1952 122.925 58.8322C122.216 59.4692 121.824 60.4066 121.752 61.6442H129.095Z" fill="white"/>
<path d="M142.5 54.8462C144.447 54.8462 146.067 55.374 147.359 56.4297C148.67 57.4853 149.488 58.9232 149.816 60.7433H145.749C145.585 59.9425 145.212 59.3145 144.629 58.8595C144.047 58.3863 143.31 58.1497 142.418 58.1497C141.399 58.1497 140.544 58.5319 139.852 59.2963C139.179 60.0426 138.842 61.1437 138.842 62.5998C138.842 64.0558 139.179 65.1661 139.852 65.9305C140.544 66.6768 141.399 67.0499 142.418 67.0499C143.31 67.0499 144.047 66.8224 144.629 66.3674C145.212 65.8941 145.585 65.2571 145.749 64.4563H149.816C149.488 66.2763 148.67 67.7142 147.359 68.7699C146.067 69.8255 144.447 70.3533 142.5 70.3533C141.026 70.3533 139.716 70.0439 138.569 69.4251C137.423 68.7881 136.531 67.8871 135.894 66.7223C135.257 65.5574 134.939 64.1833 134.939 62.5998C134.939 61.0163 135.257 59.6421 135.894 58.4773C136.531 57.2942 137.423 56.3933 138.569 55.7745C139.716 55.1556 141.026 54.8462 142.5 54.8462Z" fill="white"/>
<path d="M137.208 49.6863H146.308V51.9614H137.208V49.6863Z" fill="white"/>
<path d="M296.096 109.819C296.104 106.798 294.922 103.895 292.807 101.738C292.503 101.433 292.092 101.26 291.661 101.258C291.231 101.255 290.817 101.423 290.51 101.724C290.205 102.028 290.033 102.439 290.03 102.869C290.027 103.3 290.195 103.713 290.497 104.02C291.25 104.781 291.846 105.683 292.251 106.675C292.655 107.667 292.86 108.729 292.853 109.8C292.847 110.87 292.629 111.93 292.213 112.916C291.796 113.903 291.189 114.798 290.426 115.55C290.118 115.848 289.94 116.257 289.931 116.686C289.91 117.017 289.99 117.346 290.16 117.629C290.331 117.913 290.584 118.138 290.886 118.274C291.187 118.41 291.523 118.451 291.849 118.392C292.174 118.332 292.474 118.175 292.708 117.941C293.778 116.876 294.628 115.611 295.21 114.217C295.791 112.824 296.092 111.329 296.096 109.819ZM302.609 109.859C302.626 105.11 300.769 100.547 297.443 97.158C297.292 97.0052 297.113 96.8837 296.915 96.8003C296.717 96.7169 296.504 96.6733 296.29 96.672C295.856 96.6694 295.439 96.8391 295.131 97.1439C294.822 97.4487 294.647 97.8635 294.645 98.2972C294.642 98.7308 294.812 99.1477 295.117 99.4562C297.844 102.221 299.363 105.955 299.34 109.839C299.316 113.723 297.752 117.438 294.99 120.17C294.839 120.321 294.718 120.501 294.636 120.698C294.554 120.896 294.511 121.109 294.511 121.323C294.509 121.537 294.548 121.75 294.628 121.949C294.708 122.148 294.826 122.329 294.976 122.482C295.127 122.636 295.306 122.758 295.504 122.842C295.702 122.926 295.915 122.969 296.13 122.971C296.345 122.972 296.558 122.931 296.757 122.849C296.956 122.768 297.136 122.648 297.289 122.496C300.656 119.148 302.568 114.607 302.609 109.859ZM301.869 127.132C304.153 124.878 305.97 122.195 307.216 119.238C308.463 116.281 309.115 113.108 309.134 109.899C309.154 106.69 308.541 103.508 307.33 100.536C306.12 97.5642 304.336 94.8598 302.079 92.5776C301.775 92.2691 301.36 92.0943 300.926 92.0917C300.493 92.0891 300.076 92.2588 299.767 92.5636C299.459 92.8683 299.284 93.2832 299.281 93.7168C299.279 94.1505 299.448 94.5674 299.753 94.8759C303.697 98.8698 305.893 104.266 305.858 109.879C305.824 115.491 303.563 120.861 299.571 124.806C299.417 124.957 299.295 125.136 299.211 125.334C299.127 125.532 299.083 125.744 299.082 125.959C299.081 126.174 299.122 126.387 299.204 126.586C299.285 126.785 299.405 126.966 299.557 127.118C299.707 127.272 299.887 127.394 300.084 127.478C300.282 127.562 300.495 127.606 300.71 127.607C300.925 127.608 301.138 127.567 301.337 127.486C301.536 127.404 301.717 127.284 301.869 127.132Z" fill="white"/>
<path d="M48.9721 100.168H47.0457L39.2975 88.3764V100.168H37.3711V85.2433H39.2975L47.0457 97.056V85.2433H48.9721V100.168Z" fill="white"/>
<path d="M56.8332 88.3975C57.9622 88.3975 58.9149 88.6798 59.6911 89.2443C60.4814 89.8089 61.0318 90.5639 61.3423 91.5095V88.5457H63.2688V100.168H61.3423V97.2042C61.0318 98.1497 60.4814 98.9048 59.6911 99.4693C58.9149 100.034 57.9622 100.316 56.8332 100.316C55.8029 100.316 54.8856 100.076 54.0811 99.5963C53.2767 99.1165 52.6416 98.432 52.1758 97.5429C51.7242 96.6396 51.4984 95.5811 51.4984 94.3674C51.4984 93.1537 51.7242 92.0952 52.1758 91.192C52.6416 90.2887 53.2767 89.5972 54.0811 89.1173C54.8856 88.6375 55.8029 88.3975 56.8332 88.3975ZM57.3836 90.1123C56.1981 90.1123 55.2455 90.4933 54.5257 91.2555C53.82 92.0035 53.4672 93.0408 53.4672 94.3674C53.4672 95.694 53.82 96.7384 54.5257 97.5005C55.2455 98.2485 56.1981 98.6225 57.3836 98.6225C58.1457 98.6225 58.8231 98.4461 59.4159 98.0933C60.0228 97.7405 60.4955 97.2465 60.8343 96.6114C61.173 95.9622 61.3423 95.2142 61.3423 94.3674C61.3423 93.5206 61.173 92.7726 60.8343 92.1234C60.4955 91.4742 60.0228 90.9803 59.4159 90.6415C58.8231 90.2887 58.1457 90.1123 57.3836 90.1123Z" fill="white"/>
<path d="M71.8812 98.4743V100.168H70.4417C69.2562 100.168 68.367 99.8857 67.7743 99.3211C67.1957 98.7566 66.9063 97.811 66.9063 96.4844V90.2181H65.1704V88.5457H66.9063V85.6455H68.8539V88.5457H71.86V90.2181H68.8539V96.5267C68.8539 97.2747 68.988 97.7898 69.2562 98.0721C69.5384 98.3403 70.0183 98.4743 70.6957 98.4743H71.8812Z" fill="white"/>
<path d="M80.3501 88.3552C81.705 88.3552 82.7987 88.7927 83.6314 89.6677C84.4641 90.5286 84.8804 91.7776 84.8804 93.4148V100.168H82.954V93.5841C82.954 92.4269 82.6576 91.5377 82.0648 90.9167C81.4721 90.2958 80.6676 89.9853 79.6515 89.9853C78.593 89.9853 77.7462 90.331 77.1111 91.0226C76.476 91.7 76.1585 92.695 76.1585 94.0075V100.168H74.2321V84.5023H76.1585V91.2978C76.4549 90.3522 76.9771 89.6254 77.7251 89.1173C78.4872 88.6092 79.3622 88.3552 80.3501 88.3552Z" fill="white"/>
<path d="M92.5984 88.3975C93.7275 88.3975 94.6801 88.6798 95.4564 89.2443C96.2467 89.8089 96.7971 90.5639 97.1076 91.5095V88.5457H99.034V100.168H97.1076V97.2042C96.7971 98.1497 96.2467 98.9048 95.4564 99.4693C94.6801 100.034 93.7275 100.316 92.5984 100.316C91.5682 100.316 90.6508 100.076 89.8464 99.5963C89.0419 99.1165 88.4068 98.432 87.9411 97.5429C87.4895 96.6396 87.2637 95.5811 87.2637 94.3674C87.2637 93.1537 87.4895 92.0952 87.9411 91.192C88.4068 90.2887 89.0419 89.5972 89.8464 89.1173C90.6508 88.6375 91.5682 88.3975 92.5984 88.3975ZM93.1489 90.1123C91.9633 90.1123 91.0107 90.4933 90.2909 91.2555C89.5853 92.0035 89.2325 93.0408 89.2325 94.3674C89.2325 95.694 89.5853 96.7384 90.2909 97.5005C91.0107 98.2485 91.9633 98.6225 93.1489 98.6225C93.911 98.6225 94.5884 98.4461 95.1811 98.0933C95.788 97.7405 96.2608 97.2465 96.5995 96.6114C96.9382 95.9622 97.1076 95.2142 97.1076 94.3674C97.1076 93.5206 96.9382 92.7726 96.5995 92.1234C96.2608 91.4742 95.788 90.9803 95.1811 90.6415C94.5884 90.2887 93.911 90.1123 93.1489 90.1123Z" fill="white"/>
<path d="M108.218 88.3552C109.573 88.3552 110.667 88.7927 111.499 89.6677C112.332 90.5286 112.748 91.7776 112.748 93.4148V100.168H110.822V93.5841C110.822 92.4269 110.526 91.5377 109.933 90.9167C109.34 90.2958 108.536 89.9853 107.519 89.9853C106.461 89.9853 105.614 90.331 104.979 91.0226C104.344 91.7 104.026 92.695 104.026 94.0075V100.168H102.1V88.5457H104.026V91.2978C104.323 90.3522 104.845 89.6254 105.593 89.1173C106.355 88.6092 107.23 88.3552 108.218 88.3552Z" fill="white"/>
<path d="M122.86 94.1557V100.168H120.934V85.2433H125.676C127.383 85.2433 128.661 85.6455 129.507 86.4499C130.354 87.2403 130.778 88.327 130.778 89.7101C130.778 91.1073 130.34 92.201 129.465 92.9914C128.59 93.7676 127.327 94.1557 125.676 94.1557H122.86ZM125.506 92.5468C126.678 92.5468 127.517 92.2998 128.025 91.8059C128.548 91.3119 128.809 90.6133 128.809 89.7101C128.809 88.7786 128.548 88.0729 128.025 87.5931C127.517 87.0991 126.678 86.8522 125.506 86.8522H122.86V92.5468H125.506Z" fill="white"/>
<path d="M134.954 90.8956C135.335 90.0911 135.893 89.4701 136.627 89.0326C137.36 88.581 138.235 88.3552 139.252 88.3552V90.451H138.659C137.572 90.451 136.683 90.7333 135.991 91.2978C135.3 91.8482 134.954 92.7656 134.954 94.0499V100.168H133.028V88.5457H134.954V90.8956Z" fill="white"/>
<path d="M145.916 88.3975C147.045 88.3975 147.997 88.6798 148.773 89.2443C149.564 89.8089 150.114 90.5639 150.425 91.5095V88.5457H152.351V100.168H150.425V97.2042C150.114 98.1497 149.564 98.9048 148.773 99.4693C147.997 100.034 147.045 100.316 145.916 100.316C144.885 100.316 143.968 100.076 143.163 99.5963C142.359 99.1165 141.724 98.432 141.258 97.5429C140.807 96.6396 140.581 95.5811 140.581 94.3674C140.581 93.1537 140.807 92.0952 141.258 91.192C141.724 90.2887 142.359 89.5972 143.163 89.1173C143.968 88.6375 144.885 88.3975 145.916 88.3975ZM146.466 90.1123C145.28 90.1123 144.328 90.4933 143.608 91.2555C142.902 92.0035 142.55 93.0408 142.55 94.3674C142.55 95.694 142.902 96.7384 143.608 97.5005C144.328 98.2485 145.28 98.6225 146.466 98.6225C147.228 98.6225 147.906 98.4461 148.498 98.0933C149.105 97.7405 149.578 97.2465 149.917 96.6114C150.255 95.9622 150.425 95.2142 150.425 94.3674C150.425 93.5206 150.255 92.7726 149.917 92.1234C149.578 91.4742 149.105 90.9803 148.498 90.6415C147.906 90.2887 147.228 90.1123 146.466 90.1123Z" fill="white"/>
<path d="M155.078 85.1374C155.078 84.7846 155.198 84.5023 155.438 84.2906C155.678 84.0648 155.996 83.9519 156.391 83.9519C156.786 83.9519 157.104 84.0648 157.344 84.2906C157.583 84.5023 157.703 84.7846 157.703 85.1374C157.703 85.4902 157.583 85.7796 157.344 86.0054C157.104 86.2171 156.786 86.3229 156.391 86.3229C155.996 86.3229 155.678 86.2171 155.438 86.0054C155.198 85.7796 155.078 85.4902 155.078 85.1374ZM157.344 88.5457V100.168H155.417V88.5457H157.344Z" fill="white"/>
<path d="M164.082 88.3975C165.395 88.3975 166.446 88.7433 167.236 89.4349C168.041 90.1123 168.528 91.0296 168.697 92.1869H166.855C166.771 91.4954 166.481 90.9309 165.987 90.4933C165.507 90.0417 164.858 89.8159 164.04 89.8159C163.348 89.8159 162.805 89.9853 162.41 90.324C162.029 90.6486 161.838 91.0932 161.838 91.6577C161.838 92.0811 161.965 92.4269 162.219 92.695C162.487 92.949 162.812 93.1466 163.193 93.2878C163.588 93.4148 164.124 93.5559 164.802 93.7111C165.663 93.9087 166.354 94.1134 166.876 94.3251C167.413 94.5227 167.864 94.8473 168.231 95.2989C168.612 95.7505 168.803 96.3574 168.803 97.1195C168.803 98.0651 168.443 98.8342 167.723 99.427C167.018 100.02 166.072 100.316 164.886 100.316C163.503 100.316 162.374 99.9844 161.499 99.3211C160.624 98.6578 160.109 97.7334 159.954 96.5479H161.817C161.887 97.2535 162.191 97.8251 162.727 98.2626C163.278 98.7001 163.997 98.9189 164.886 98.9189C165.55 98.9189 166.065 98.7495 166.432 98.4108C166.813 98.0721 167.003 97.6275 167.003 97.0771C167.003 96.6255 166.869 96.2656 166.601 95.9975C166.333 95.7293 166.001 95.5247 165.606 95.3836C165.211 95.2424 164.668 95.0942 163.976 94.939C163.115 94.7414 162.424 94.5438 161.902 94.3462C161.393 94.1487 160.956 93.8382 160.589 93.4148C160.236 92.9773 160.06 92.3916 160.06 91.6577C160.06 90.6839 160.42 89.9006 161.139 89.3078C161.859 88.701 162.84 88.3975 164.082 88.3975Z" fill="white"/>
<path d="M182.068 93.7111C182.068 94.1204 182.04 94.4733 181.983 94.7696H172.69C172.732 96.0963 173.106 97.0912 173.812 97.7546C174.531 98.4179 175.406 98.7495 176.437 98.7495C177.368 98.7495 178.144 98.5167 178.765 98.0509C179.4 97.5711 179.789 96.936 179.93 96.1457H181.983C181.842 96.9501 181.524 97.6699 181.031 98.305C180.551 98.9401 179.923 99.434 179.146 99.7869C178.37 100.14 177.495 100.316 176.521 100.316C175.406 100.316 174.418 100.076 173.558 99.5963C172.697 99.1165 172.019 98.432 171.525 97.5429C171.045 96.6396 170.806 95.5811 170.806 94.3674C170.806 93.1537 171.045 92.0952 171.525 91.192C172.019 90.2887 172.697 89.5972 173.558 89.1173C174.418 88.6375 175.406 88.3975 176.521 88.3975C177.65 88.3975 178.631 88.6375 179.464 89.1173C180.311 89.5972 180.953 90.2393 181.39 91.0438C181.842 91.8482 182.068 92.7373 182.068 93.7111ZM180.12 93.8382C180.163 92.9773 180.021 92.2575 179.697 91.6789C179.372 91.1002 178.928 90.6698 178.363 90.3875C177.799 90.1052 177.185 89.9641 176.521 89.9641C175.463 89.9641 174.574 90.2958 173.854 90.9591C173.134 91.6083 172.746 92.568 172.69 93.8382H180.12Z" fill="white"/>
<defs>
<linearGradient id="paint0_linear_101_2930" x1="220.222" y1="77.3699" x2="298.651" y2="145.832" gradientUnits="userSpaceOnUse">
<stop stop-color="#F8ECC1"/>
<stop offset="1" stop-color="#C8AC48"/>
</linearGradient>
<clipPath id="clip0_101_2930">
<rect x="219.84" y="77.3699" width="47.3728" height="65.1376" rx="4" fill="white"/>
</clipPath>
</defs>
</svg>
