<svg width="377" height="495" viewBox="0 0 377 495" fill="none" xmlns="http://www.w3.org/2000/svg">
<path fill-rule="evenodd" clip-rule="evenodd" d="M125.14 1.94844C120.557 3.0737 119.104 3.82229 116.676 6.30897C109.787 13.3617 111.799 23.2589 121.188 28.5043C133.513 35.3896 147.988 29.5649 154.783 14.9857C156.194 11.9583 156.23 10.2349 154.933 7.81748C153.327 4.82498 151.028 3.43998 145.2 1.95316C140.069 0.644535 130.459 0.642173 125.14 1.94844ZM214.312 1.79147L212.995 1.98993L213.369 4.90276C213.574 6.50508 213.715 10.2556 213.682 13.2373C213.632 17.7279 213.415 19.2519 212.418 22.1162C208.391 33.6794 198.574 41.4557 182.867 45.5221C167.465 49.5097 147.167 48.6438 132.376 43.3687C126.398 41.2365 122.401 38.9163 115.354 33.487C104.558 25.1686 103.36 24.3233 98.8384 21.8301C92.7964 18.4982 85.604 17.4389 75.4801 18.3907C64.0247 19.4674 61.9602 19.5018 57.3126 18.6966C52.9207 17.9353 48.4142 16.2052 45.0436 13.9863C37.9544 9.31938 35.9763 8.21581 32.6 7.04154C27.2757 5.18985 24.0805 5.24925 17.5883 7.31967C14.816 8.20356 11.6152 9.06671 10.4756 9.23783C7.57636 9.672 5.2495 8.62358 4.08677 6.35894L3.17981 4.59304L2.85421 12.0974C2.67536 16.2246 2.16716 24.2682 1.72548 29.9722C1.22481 36.4376 0.926077 45.4024 0.932684 53.7783C0.945896 70.0707 1.73866 76.2296 5.12066 86.3055C7.8071 94.3086 8.96182 100.585 8.2403 103.262C7.61647 105.577 6.04557 106.755 4.19861 106.291L2.89243 105.964L3.21331 117.23C3.38979 123.426 3.7442 132.951 4.00138 138.396C6.25415 186.141 6.4028 217.63 4.46713 237.156C4.03535 241.514 1.83493 256.907 0.626436 264.026C0.282432 266.051 0.0158183 271.691 0.00213361 277.226C-0.0186293 285.827 0.0965078 287.33 1.04924 290.896C2.71264 297.12 5.08245 301.393 9.1803 305.554C14.7608 311.221 19.5122 313.609 29.4714 315.751C34.9216 316.923 36.1952 317.019 46.2233 317.01C52.1926 317.004 59.8372 316.732 63.2111 316.404C73.3 315.425 86.1707 315.589 93.6477 316.792C107.182 318.97 117.04 321.626 122.967 324.692C126.108 326.316 130.787 329.943 131.594 331.377C131.832 331.8 132.175 332.251 132.356 332.38C132.826 332.715 134.679 336.441 135.423 338.546C135.768 339.525 136.39 342.727 136.804 345.663C138.34 356.543 139.917 360.877 143.798 364.874C146.413 367.569 148.918 369.111 152.393 370.167C160.041 372.491 168.159 369.955 171.894 364.075C173.846 361.001 174.336 358.842 174.326 353.358C174.316 348.136 173.731 344.845 172.588 343.583C170.849 341.664 168.945 343 163.872 349.697C156.821 359.004 152.698 361.623 149.856 358.601C147.655 356.26 148.103 348.925 150.768 343.649C152.96 339.311 154.684 337.049 160.483 330.897C174.12 316.429 176.038 311.437 176.938 288.068C177.547 272.253 180.034 260.809 184.634 252.658C185.894 250.424 187.17 248.303 187.47 247.944C187.77 247.585 189.054 246.018 190.325 244.463C195.136 238.573 204.028 232.271 216.493 225.918C229.445 219.316 236.7 216.864 247.482 215.446C255.958 214.331 261.333 214.305 272.5 215.325C278.532 215.875 286.098 216.127 297.03 216.141C311.194 216.159 313.476 216.053 318.973 215.126C330.132 213.241 342.057 212.722 344.173 214.029C345.809 215.039 342.958 218.493 338.556 220.834C329.657 225.567 324.154 227.409 316.377 228.257C310.573 228.89 297.229 228.534 287.356 227.482C268.66 225.491 262.518 225.501 250.785 227.544C236.933 229.957 224.398 234.601 213.073 241.517C209.778 243.529 208.922 244.144 204.645 247.565C198.917 252.148 193.185 258.819 190.096 264.498C186.021 271.989 184.242 279.518 183.912 290.661C183.682 298.441 183.805 300.349 185.519 315.645C186.504 324.435 186.653 346.296 185.766 351.944C184.755 358.387 181.773 366.813 179.376 370.005C177.557 372.427 172.894 376.461 170.54 377.648C166.139 379.868 164.14 380.149 152.161 380.231C135.788 380.343 135.583 380.423 115.025 394.675C100.084 405.034 92.351 407.659 84.8178 404.931C79.9966 403.185 79.2142 400.946 82.1861 397.402C83.1492 396.253 85.0103 394.135 86.3217 392.696C87.91 390.952 89.1294 388.984 89.9722 386.803C91.5686 382.673 91.687 381.91 92.199 372.436C92.5072 366.73 92.9087 363.638 93.6992 360.887C94.6849 357.456 95.0483 356.858 97.8735 354.013C105.83 346.002 113.431 346.063 115.901 354.158C116.945 357.579 115.361 359.464 108.446 363.028C106.309 364.13 104.141 365.634 103.562 366.417C102.278 368.151 102.2 370.741 103.39 372.055C105.381 374.252 112.789 372.23 117.507 368.202C124.849 361.932 127.804 353.961 125.211 347.421C122.118 339.621 113.762 333.312 104.653 331.9C102.032 331.494 100.684 331.532 98.0235 332.086C92.1391 333.312 88.8198 336.312 84.3063 344.485C81.6368 349.318 79.057 353.083 78.3978 353.108C78.1854 353.116 78.1854 352.645 78.3978 352.062C79.1103 350.102 78.7498 345.414 77.6272 342.044C75.4693 335.567 72.6064 330.797 67.8795 325.805C62.5245 320.15 56.7892 317.671 51.3489 318.659C47.1383 319.424 45.5475 320.227 42.795 322.976C40.0208 325.747 38.5089 328.216 36.4817 333.281C33.4371 340.889 32.4801 348.293 34.0251 352.288C36.1858 357.875 41.4285 360.212 56.1069 362.133C69.499 363.885 77.2535 366.943 80.0806 371.587C82.4456 375.472 79.6195 378.382 71.421 380.505C68.0178 381.386 66.645 381.488 61.1061 381.273C41.8933 380.528 29.1458 370.741 27.5763 355.532C27.3455 353.299 26.934 348.503 26.6608 344.873C26.2153 338.946 25.2173 331.004 24.4863 327.571C24.1183 325.839 22.5158 323.895 21.4569 323.895C19.4853 323.895 16.3454 329.501 14.0686 337.088C12.9658 340.763 12.8318 342.177 12.4821 353.829C12.0583 367.944 12.0026 368.241 7.33994 381.171C5.25374 386.957 3.73947 392.6 3.23361 396.474L2.89761 399.049L5.21317 397.302C10.7309 393.139 16.553 390.563 24.7667 388.65C29.4978 387.547 31.189 387.388 38.2012 387.379C45.2856 387.371 46.8075 387.514 51.2205 388.604C59.9778 390.766 66.7503 394.881 66.7503 398.038C66.7503 400.428 63.07 403.432 58.5253 404.752C56.1867 405.431 55.3561 405.466 52.8905 404.989C50.105 404.45 44.6179 401.968 40.5993 399.43C39.54 398.761 36.9743 397.351 34.898 396.299C31.2003 394.423 31.021 394.384 26.1682 394.377C21.4285 394.371 21.0732 394.442 17.9876 396.02C11.9059 399.131 6.68026 405.433 4.11085 412.755C2.86555 416.304 2.14072 424.456 2.96368 425.656C3.3242 426.182 3.67483 426.103 4.86303 425.225C5.81152 424.525 7.21207 424.075 8.87783 423.937C11.2693 423.739 11.5511 423.831 13.2121 425.352C14.7693 426.777 15.0151 427.301 15.2058 429.596C15.5116 433.281 14.7254 435.343 12.6369 436.333C10.6347 437.282 8.16103 437.023 5.29811 435.564C3.05194 434.419 2.59232 434.782 2.581 437.709C2.55788 443.671 8.47247 448.153 16.2586 448.074C23.5931 447.998 31.8308 442.679 31.8308 438.017C31.8308 437.025 30.8988 434.122 29.619 431.129C27.5154 426.207 27.4064 425.737 27.3847 421.476C27.3493 414.608 29.0533 411.105 32.431 411.105C36.1886 411.105 40.1444 415.433 43.0012 422.667C44.1564 425.594 44.3013 426.576 44.3173 431.612L44.3357 437.269L42.3472 441.331C40.8877 444.312 39.6792 446.013 37.8039 447.725C35.075 450.217 34.0241 450.7 22.629 454.704C11.3161 458.68 7.76465 460.604 7.76465 462.76C7.76465 464.667 11.7082 467.179 17.3085 468.841C20.9165 469.911 28.8376 469.736 38.2012 468.378C52.4243 466.316 57.9001 466.988 62.1036 471.31C64.5272 473.803 66.0047 476.691 66.8003 480.492C68.459 488.414 73.7408 491.885 85.108 492.526C90.5427 492.832 90.6201 492.757 87.6085 490.115C82.5065 485.64 78.3586 476.893 77.1907 468.146C76.9312 466.201 76.5914 461.004 76.4357 456.596C75.5009 430.133 72.9504 422.831 66.9065 429.315C63.9746 432.46 62.2995 436.324 60.4275 444.263C58.6022 452.002 57.4622 454.16 54.9036 454.722C51.4942 455.47 50.5391 451.518 51.8533 442.103C52.959 434.179 54.989 426.933 57.5282 421.85C59.9273 417.047 61.4519 415.114 64.3564 413.194C70.2304 409.31 77.5626 415.57 82.5046 428.686C85.0622 435.474 86.1141 442.081 86.5808 454.285C87.0649 466.959 87.1494 467.758 88.726 474.583C91.5483 486.801 97.1906 492.504 106.971 493.025C110.315 493.203 111.143 493.113 111.36 492.549C111.508 492.166 111.192 490.191 110.66 488.16C109.309 483.007 109.327 476.022 110.704 471.891C113.279 464.159 119.552 459.057 129.275 456.786C130.573 456.483 134.82 456.246 138.713 456.26C145.057 456.283 146.362 456.436 151.296 457.734C164.174 461.121 172.873 466.906 176.724 474.641C178.111 477.427 178.303 478.265 178.313 481.581C178.325 484.985 178.155 485.704 176.569 488.969C175.602 490.958 174.812 492.708 174.812 492.858C174.812 493.008 176.062 493.13 177.59 493.13C181.621 493.13 184.364 491.211 186.548 486.863C189.252 481.482 189.972 477.046 190.237 464.139C190.438 454.403 190.298 450.951 189.233 439.39C188.552 432.001 187.692 423.833 187.322 421.241C186.951 418.648 186.293 412.259 185.859 407.042C185.089 397.769 185.092 397.452 186.017 392.865C187.049 387.751 188.811 384.235 190.341 384.235C191.4 384.235 193.596 386.63 195.403 389.755C198.351 394.855 202.659 401.078 204.369 402.706C207.112 405.318 210.527 406.472 215.63 406.511C219.132 406.538 220.235 406.36 221.918 405.497C224.399 404.224 225.429 402.202 224.866 399.706C223.795 394.967 220.887 393.027 213.761 392.298C207.078 391.615 206.012 390.605 206.571 385.49C207.256 379.218 211.645 375.279 217.948 375.279C219.342 375.279 223.957 376.045 228.202 376.981C239.156 379.397 240.83 379.471 244.733 377.712C248.639 375.952 249.416 374.812 247.655 373.428C246.973 372.892 245.54 372.224 244.471 371.944C234.744 369.396 233.605 368.818 232.651 365.951C231.796 363.379 232.21 361.284 233.953 359.36C236.273 356.799 245.705 353.733 254.56 352.661C261.301 351.845 276.993 351.53 282.166 352.107C289.101 352.881 301.236 356.166 310.007 359.645C311.305 360.16 313.534 361.04 314.962 361.601C321.299 364.09 340.071 373.365 343.983 375.94C349.212 379.383 353.951 384.677 356.606 390.043C359.496 395.884 361.174 401.075 361.508 405.213C361.746 408.161 361.655 408.689 360.65 410.163C359.743 411.493 359.172 411.842 357.71 411.963C356.056 412.099 355.68 411.89 353.472 409.605C351.392 407.454 348.53 403.126 344.802 396.492C342.303 392.045 341.712 391.262 341.05 391.516C340.674 391.66 340.268 391.778 340.147 391.778C339.399 391.778 337.621 397.02 337.617 399.237C337.604 406.174 343.245 416.102 350.117 421.237C355.488 425.251 361.483 426.136 366.543 423.662C370.237 421.857 373.879 417.731 375.64 413.357C376.934 410.143 377.014 409.557 376.999 403.335C376.982 396.452 376.941 396.198 373.45 381.643C372.704 378.531 371.848 374.076 371.548 371.743C371.249 369.409 370.931 367.24 370.843 366.922C370.731 366.519 369.724 366.774 367.521 367.761C363.244 369.678 358.56 370.337 353.779 369.695C348.214 368.946 336.376 365.363 328.646 362.087C326.7 361.262 323.939 360.101 322.512 359.508C321.084 358.914 317.368 357.213 314.254 355.727C296.263 347.147 289.303 344.314 279.334 341.514C275.019 340.301 273.93 340.187 266.594 340.175C259.318 340.162 258.177 340.275 254.325 341.393C244.168 344.339 232.358 350.832 222.708 358.776C210.526 368.805 204.523 372.491 199.818 372.83C197.526 372.996 196.805 372.854 195.599 371.996C192.581 369.849 191.852 366.154 193.72 362.473C197.964 354.11 221.207 340.126 245.202 331.499C254.301 328.227 273.37 327.871 285.233 330.753C297.355 333.697 309.021 337.946 320.152 343.473C334.548 350.62 338.461 351.95 347.112 352.641C360.892 353.743 363.976 354.092 367.248 354.922C369.12 355.397 370.757 355.682 370.884 355.554C371.012 355.427 371.115 354.456 371.114 353.397C371.109 350.068 368.526 346.937 363.094 343.674C358.752 341.067 355.529 338.08 354.51 335.718C353.997 334.53 353.054 331.553 352.413 329.1C351.773 326.648 350.711 323.654 350.053 322.447C347.978 318.638 343.817 317.193 340.587 319.16C338.442 320.467 337.837 322.772 338.506 327.083C339.276 332.039 339.164 335.204 338.152 337.102C336.982 339.295 335.622 339.908 331.901 339.916C328.098 339.924 326.289 338.884 324.178 335.471C322.753 333.168 322.748 333.134 322.771 326.288C322.793 319.923 322.89 319.177 324.093 316.159C327.31 308.093 331.427 303.553 336.34 302.656C340.465 301.902 344.569 303.116 357.252 308.842C359.385 309.806 363.555 310.548 365.535 310.316C368.389 309.982 370.644 305.635 370.644 300.465V297.948L368.639 299.019C366.89 299.952 365.969 300.085 361.442 300.061C356.231 300.032 354.093 299.481 347.758 296.535C344.664 295.097 337.907 293.101 335.455 292.9C327.889 292.283 323.729 295.786 318.806 306.924C314.892 315.779 312.492 320.105 310.448 321.988C308.458 323.82 307.635 324.112 305.052 323.904C301.9 323.65 298.951 320.028 298.928 316.383C298.871 307.463 309.503 290.852 317.776 286.935C320.825 285.492 320.947 285.475 328.41 285.475C333.112 285.475 338.609 285.818 342.981 286.382C349.079 287.17 350.465 287.211 353.522 286.698C360.1 285.594 361.275 285.051 365.108 281.348C369.113 277.477 370.962 274.912 372.673 270.85C375.211 264.828 374.981 261.506 371.783 257.952C369.532 255.451 367.132 254.311 365.158 254.806C363.394 255.249 362.313 258.218 361.714 264.262C361.066 270.799 360.575 272.549 358.882 274.36C356.735 276.656 354.989 276.392 352.119 273.337C349.174 270.201 347.991 267.901 348.005 265.341C348.017 263.073 348.872 261.409 353.698 254.256C356.28 250.429 358.385 247.023 363.098 239.042C367.798 231.081 370.617 219.684 370.636 208.564L370.644 203.307L366.219 203.322C362.4 203.334 361.414 203.163 359.023 202.071C355.718 200.561 354.084 199.112 351.921 195.777C346.444 187.331 347.662 171.034 354.421 162.338C358.306 157.341 362.848 155.167 368.112 155.785C369.977 156.004 370.716 155.924 370.84 155.49C370.934 155.163 371.272 152.577 371.591 149.744C371.909 146.911 372.58 142.88 373.081 140.787C374.423 135.184 375.828 125.222 375.832 121.288C375.841 110.853 371.604 103.378 363.418 99.3884C352.756 94.1921 332.99 92.4913 324.186 96.0127C320.321 97.558 319.432 98.5432 319.49 101.213C319.554 104.15 321.755 107.158 330.304 115.991C341.844 127.914 343.57 130.476 344.271 136.715C345.34 146.236 341.626 165.428 337.441 172.012C336.303 173.801 335.969 174.026 334.639 173.898C333.364 173.774 332.929 173.378 331.84 171.349C328.934 165.931 328.522 160.066 329.822 142.573C330.758 129.972 330.434 125.883 328.358 124.093C326.09 122.137 322.665 123.519 316.141 129.02C312.26 132.294 310.672 133.466 304.874 137.338C294.476 144.28 280.873 149.933 268.21 152.574C262.79 153.704 261.686 153.779 253.617 153.573C245.991 153.378 244.409 153.2 241.112 152.164C232.768 149.542 227.665 146.48 221.438 140.359C217.105 136.1 214.437 132.424 212.314 127.789C211.017 124.957 210.911 124.316 210.911 119.304C210.911 114.251 211.003 113.707 212.265 111.29C218.341 99.6586 234.429 92.7925 252.017 94.3241C257.577 94.8083 258.278 94.9473 263.254 96.5477C267.753 97.9959 269.868 99.42 280.278 108.014C289.308 115.469 293.054 118.123 297.502 120.216C301.072 121.897 304.598 122.151 306.481 120.862C312.419 116.798 311.29 110.973 302.929 102.539C294.495 94.0333 284.499 89.0349 269.897 86.0217C263.676 84.7385 262.643 84.6603 252.201 84.6829C241.862 84.7055 240.75 84.7927 235.767 85.9712C232.828 86.667 229.43 87.6782 228.217 88.2189C227.004 88.7596 224.1 89.9339 221.764 90.8286C219.429 91.7234 216.88 92.7388 216.102 93.0857C212.705 94.5989 205.565 96.3036 202.402 96.3564C198.138 96.428 196.281 95.4348 195.069 92.4338C193.858 89.4361 193.935 86.7095 195.306 84.0507C198.167 78.5023 205.56 76.4111 222.329 76.4078C232.554 76.4059 238.45 76.7769 253.548 78.3731L263.153 79.388L266.525 78.3179C273.302 76.1669 279.19 71.6419 281.732 66.6298C282.913 64.3016 283.109 63.3748 283.109 60.1423C283.109 57.3676 282.869 55.8879 282.201 54.543C280.869 51.8616 276.481 47.8141 273.107 46.1552C270.569 44.9064 269.773 44.7344 267.354 44.9093C263.744 45.17 262.128 46.2509 254.785 53.3178C249.9 58.0186 248.655 58.961 245.832 60.0895C241.686 61.748 239.039 61.8941 237.252 60.5642C236.058 59.6761 235.907 59.2509 235.781 56.4432C235.661 53.7326 235.862 52.8053 237.28 49.5371C242.596 37.2814 252.576 28.7937 261.67 28.7937C266.854 28.7937 272.924 31.4982 276.421 35.3651C278.434 37.5902 281.255 42.3971 283.632 47.65C285.452 51.6735 288.156 56.5507 289.479 58.1959C292.727 62.2373 299.377 66.5063 302.423 66.5063C305.691 66.5063 306.023 61.3336 303.394 51.3911C302.473 47.9074 301.381 43.7472 300.968 42.1463C300.029 38.517 300.371 36.5064 302.372 33.8863C306.967 27.8669 319.5 23.6082 332.617 23.6082C342.522 23.6082 357.715 26.8666 358.604 29.1812C359.371 31.1781 354.34 33.2259 341.623 36.0925C325.714 39.679 319.561 41.7933 317.203 44.4836C314.3 47.7966 316.13 50.4483 324.012 54.3473C326.95 55.8007 330.097 57.2083 331.006 57.4746C331.914 57.741 334.781 58.7295 337.376 59.6714C339.972 60.6133 343.051 61.6834 344.219 62.0496C349.641 63.75 358.566 68.2303 360.42 70.1824C362.953 72.8487 361.456 74.6937 355.529 76.2112C350.904 77.3954 345.368 76.9329 338.084 74.7536C322.542 70.1041 320.383 69.8218 312.602 71.4259C304.897 73.0141 299.843 75.0454 297.127 77.6443C295.327 79.3682 295.071 79.8429 295.332 80.9767C296.147 84.5127 302.689 88.1011 312.13 90.1908C318.763 91.6588 333.858 91.6644 340.915 90.2017C351.905 87.9233 359.686 84.0743 365.73 77.9262C375.256 68.2378 378.552 52.9981 374.573 37.0434C373.449 32.539 370.813 27.9744 367.348 24.5312C356.097 13.3532 337.42 11.8292 298.446 18.9097C282.977 21.7198 269.794 22.3793 260.624 20.801C251.513 19.2331 248.32 17.7453 234.943 8.83761C225.969 2.86204 220.228 0.901451 214.312 1.79147ZM165.256 2.23742C164.542 2.35857 163.959 2.66169 163.959 2.91106C163.959 3.16044 164.585 4.60389 165.35 6.11805C167.177 9.73422 170.437 12.6183 173.157 13.0256C179.046 13.9081 183.387 9.87942 181.288 5.48071C180.114 3.02279 177.815 2.2096 171.745 2.10589C168.89 2.05734 165.97 2.11627 165.256 2.23742ZM192.022 2.41703C191.854 2.68903 191.987 4.01463 192.316 5.36332C193.299 9.37925 193.119 13.6983 191.884 15.6933C190.121 18.5434 187.312 18.9861 179.059 17.7156C173.868 16.9166 167.759 16.8105 165.353 17.478C164.433 17.7331 163.019 18.6335 162.209 19.4787C158.261 23.6021 157.625 28.7348 160.675 31.8781C162.724 33.99 165.235 35.1822 169.534 36.0836C174.177 37.0575 178.511 36.9948 184.344 35.8705C194.218 33.9669 200.063 30.2084 202.096 24.4549C203.404 20.7534 203.915 14.1193 203.189 10.2598C202.562 6.92275 200.606 3.85718 198.397 2.74937C196.596 1.84568 192.507 1.6326 192.022 2.41703ZM54.9531 2.72297C54.9531 3.5649 57.5669 6.67855 59.1204 7.68689C62.0725 9.60317 63.9879 10.3084 69.113 11.3667C73.2901 12.2299 75.0606 12.3501 80.4349 12.1379C91.4015 11.7047 102.971 9.00212 105.577 6.26466C106.246 5.56226 106.937 4.40401 107.114 3.69124L107.435 2.39487H81.1937C66.7616 2.39487 54.9531 2.54242 54.9531 2.72297ZM235.685 2.7819C235.685 3.65683 240.033 7.61524 242.196 8.71032C247.315 11.3017 256.569 11.494 268.717 9.2614C279.304 7.3159 285.762 6.93783 305.052 7.13582C334.133 7.43422 355.197 7.36823 357.059 6.97319C358.887 6.58569 361.678 4.22394 361.678 3.06569C361.678 2.48868 352.851 2.39487 298.682 2.39487C264.034 2.39487 235.685 2.56882 235.685 2.7819ZM137.978 10.447C141.948 11.2979 143.179 13.8256 141.354 17.3809C139.578 20.8411 136.551 22.6654 132.587 22.6654C129.693 22.6654 127.656 21.946 125.511 20.166C121.857 17.1358 125.419 11.4435 131.634 10.3786C134.516 9.88507 135.4 9.8945 137.978 10.447ZM37.2575 21.922C39.5933 22.6084 44.3711 24.1178 47.8749 25.2756C59.1057 28.9884 62.6609 29.3839 73.1028 28.0828C85.1509 26.5814 89.6976 27.5355 91.5851 31.9606C93.7496 37.0353 90.6791 40.7717 82.2172 43.3602C73.443 46.0444 71.1978 45.8082 53.3015 40.3163C46.0005 38.0757 35.0448 35.4655 31.5812 35.1412C27.1922 34.7306 24.5255 35.4387 23.5794 37.2663C22.7928 38.7857 22.7951 38.7956 25.0413 44.1654C26.9515 48.7314 27.1162 52.003 25.7269 57.7905C22.5998 70.8192 22.9164 74.9808 27.5673 81.9855C30.7455 86.7722 31.8888 89.8655 32.4452 95.1825C33.4791 105.065 31.5514 113.219 27.0784 117.879C24.7553 120.3 20.7108 122.572 20.0591 121.823C19.3726 121.034 16.9352 104.381 13.9303 79.9415C12.332 66.9424 11.0745 50.3243 11.0712 42.1529C11.0669 32.7625 11.7407 30.0802 15.084 26.1708C17.2571 23.6299 19.5608 22.0705 22.865 20.9038C25.4679 19.985 32.3126 20.4691 37.2575 21.922ZM231.224 24.4205C235.981 26.687 235.044 35.4985 228.709 48.0564C225.548 54.3228 220.408 58.2327 206.9 64.6471C193.959 70.7924 190.021 74.2794 184.037 84.8912C180.339 91.4499 179.951 92.1028 178.481 94.2374C176.111 97.6791 172.067 101.289 168.761 102.915C164.531 104.995 161.181 104.999 157.104 102.928C147.51 98.0548 142.538 86.6845 147.592 81.1756C148.968 79.6761 152.973 77.8305 154.864 77.8248C157.07 77.8182 157.892 79.3852 158.549 84.8512C159.174 90.0508 159.939 91.5782 162.596 92.9325C167.352 95.356 170.748 93.0103 174.575 84.6555C178.381 76.3489 179.298 74.8328 182.335 71.8276C185.07 69.1208 190.262 65.4165 197.328 61.1299C204.98 56.4875 209.125 53.2815 212.167 49.6502C214.605 46.7402 214.958 46.0336 217.056 39.8718C220.357 30.1773 222.787 25.9144 225.882 24.3903C227.873 23.4102 229.118 23.4173 231.224 24.4205ZM108.748 47.3912C113.199 47.9894 116.602 48.7852 131.163 52.6319C140.306 55.0478 147.623 56.6002 152.981 57.2606C162.107 58.3863 168.677 61.821 168.677 65.4664C168.677 71.3194 150.874 72.6365 128.803 68.4165C123.177 67.3407 109.282 65.2637 104.973 64.8545C103.286 64.6942 98.8266 63.9376 95.0634 63.173C78.6083 59.8293 72.6111 55.7186 78.4209 51.7659C81.0701 49.9632 85.9093 48.0781 89.6367 47.3964C94.0908 46.5818 102.706 46.5795 108.748 47.3912ZM362.987 48.871C365.586 50.1409 366.642 51.6216 366.065 53.1848C365.462 54.8187 363.439 57.073 361.317 58.4773C359.513 59.6709 358.689 59.9066 356.32 59.9066C351.763 59.9066 347.712 57.4473 346.569 53.9862C345.675 51.2817 347.734 48.5443 351.355 47.6203C354.283 46.8731 360.202 47.5095 362.987 48.871ZM52.9297 51.9681C56.0866 53.1448 60.1269 56.924 62.2258 60.6637C66.5823 68.4259 65.3823 78.0794 59.2836 84.334C50.3834 93.4629 38.716 89.4889 34.2091 75.7935C33.3493 73.1819 33.1903 71.8295 33.3502 68.4867C33.6324 62.5738 34.9363 59.5394 38.8661 55.6475C43.4953 51.0625 47.612 49.9859 52.9297 51.9681ZM266.692 52.6272C268.974 53.5544 272.338 57.1635 273.011 59.406C273.954 62.5522 273.196 64.6155 270.605 65.9496C267.932 67.3252 264.984 67.1012 261.61 65.2665C258.569 63.6133 257.187 61.4222 257.198 58.2732C257.219 52.5065 260.943 50.2913 266.692 52.6272ZM44.9699 64.2695C42.4043 66.4361 41.8744 69.6841 43.5547 72.9481C45.0903 75.9312 47.0354 77.4524 49.6223 77.6943C51.675 77.8861 52.0166 77.7687 53.2869 76.4328C54.5001 75.1576 54.7116 74.5354 54.8616 71.7936C55.0103 69.0717 54.8781 68.3972 53.9183 66.9848C52.5805 65.0167 49.5935 63.2239 47.6389 63.2164C46.8518 63.2136 45.6669 63.6812 44.9699 64.2695ZM113.572 69.8137C115.836 70.073 119.446 70.8343 121.594 71.5061C128.748 73.7434 132.445 76.5676 135.1 81.8271C137.083 85.7525 137.324 87.2926 136.176 88.703C135.33 89.7425 134.938 89.8335 131.65 89.7567C129.468 89.7057 126.247 89.1801 123.472 88.423C120.954 87.7357 117.009 86.6548 114.705 86.0212C105.699 83.544 101.198 84.0248 101.198 87.4642C101.198 91.2699 102.656 92.4437 109.92 94.4872C112.688 95.266 114.487 96.0669 115.305 96.8843C116.505 98.0836 116.535 98.2627 116.571 104.583C116.607 110.702 116.694 111.282 118.167 115.226C119.545 118.917 120.112 119.789 123.084 122.783C127.224 126.953 129.528 128.318 136.007 130.437C142.034 132.408 146.897 135.553 146.955 137.516C146.964 137.81 145.856 138.597 144.493 139.267C138.994 141.969 134.23 147.509 134.23 151.2C134.23 157.581 143.168 159.239 151.69 154.438C157.631 151.09 160.797 147.085 160.827 142.881C160.866 137.313 156.571 132.819 146.276 127.651C133.289 121.133 128.856 117.046 129.729 112.398C130.231 109.724 130.727 109.637 145.319 109.673C157.458 109.703 162.963 109.976 178.823 111.335C189.659 112.264 193.687 113.34 193.687 115.306C193.687 116.851 190.999 118.409 182.266 121.921C172.863 125.703 170.801 126.801 170.801 128.027C170.801 129.091 173.119 129.833 182.598 131.802C196.808 134.754 201.453 136.13 202.405 137.669C202.824 138.347 201.297 140.463 199.849 141.21C197.426 142.462 192.623 143.388 184.897 144.093C176.523 144.857 172.38 145.961 171.463 147.673C170.71 149.08 171.336 151.495 172.812 152.87C176.351 156.169 182.016 155.9 199.822 151.59C208.448 149.502 213.826 148.808 217.114 149.359C220.405 149.91 222.944 151.5 222.944 153.01C222.944 154.274 220.973 156.118 218.225 157.424C214.195 159.34 199.669 162.924 191.328 164.06C189.122 164.361 185.699 164.904 183.722 165.268C181.745 165.632 176.913 166.194 172.984 166.517C159.906 167.592 150.038 165.875 140.738 160.908C133.626 157.109 131.38 155.43 120.967 146.127C108.616 135.091 109.709 136.024 104.737 132.273C98.4468 127.527 94.2121 124.934 87.2773 121.579C72.8178 114.585 61.7303 111.439 56.8105 112.934C55.1438 113.441 53.6404 114.971 53.0491 116.762C52.6206 118.059 52.6938 118.687 53.4823 120.468C54.0047 121.647 55.1329 123.264 55.9899 124.062C57.4088 125.382 62.6878 129.204 63.0927 129.204C63.1861 129.204 65.5866 130.537 68.4274 132.167C79.1382 138.313 80.7794 139.833 82.1158 144.848C83.5395 150.191 82.6315 155.768 79.6205 160.18C73.0235 169.846 55.4614 175.784 38.4853 174.088C29.2576 173.167 23.4529 170.549 18.6166 165.129C12.7218 158.522 11.123 150.651 14.0837 142.813C17.7191 133.188 26.3961 124.365 46.6952 109.652C59.9127 100.072 61.6284 98.5394 70.9887 87.9554C79.5851 78.235 84.378 74.3407 90.9594 71.7286C96.6494 69.4706 104.653 68.7927 113.572 69.8137ZM81.8548 89.0571C79.8814 91.0285 79.6271 93.6924 80.9191 98.8581C82.2323 104.111 84.4106 108.477 87.3438 111.736C91.066 115.872 96.4493 117.655 98.7492 115.514C100.873 113.538 99.861 106.711 96.3941 99.6227C93.4396 93.5812 90.7796 90.2356 87.8445 88.8704C84.6597 87.3892 83.488 87.426 81.8548 89.0571ZM248.334 106.996C244.481 107.805 241.767 111.022 242.494 113.92C243.344 117.302 249.856 121.384 255.303 121.948C259.096 122.34 261.675 121.574 263.483 119.517C264.716 118.114 264.942 117.475 264.942 115.388C264.942 112.292 263.371 110.189 259.683 108.347C256.919 106.966 251.532 106.325 248.334 106.996ZM225.477 108.952C223.759 110.052 221.741 112.925 220.783 115.638C219.845 118.295 219.923 122.936 220.94 124.927C223.141 129.24 228.469 130.865 231.355 128.104C232.248 127.25 233.01 125.804 233.468 124.097C234.726 119.409 234.797 118.085 233.985 114.518C232.663 108.711 229.295 106.509 225.477 108.952ZM360.553 110.085C361.088 110.459 362.144 112.103 362.9 113.738C364.273 116.71 364.274 116.716 364.267 126.139C364.26 135.107 364.197 135.765 362.968 139.601C360.835 146.264 358.31 149.474 355.203 149.474C351.709 149.474 350.581 146.35 350.608 136.746C350.639 125.961 353.247 113.558 356.134 110.465C357.266 109.252 359.134 109.091 360.553 110.085ZM277.103 113.589C272.855 116.079 271.361 118.065 269.444 123.769C267.2 130.448 266.813 141.761 268.75 144.092C269.399 144.874 271.228 144.964 272.513 144.277C275.884 142.475 282.34 127.9 283.435 119.621C283.865 116.363 283.829 115.496 283.197 114.001C282.544 112.455 282.254 112.236 280.892 112.256C280.035 112.27 278.33 112.869 277.103 113.589ZM243.491 129.995C239.311 131.163 237.755 136.943 240.449 141.297C241.761 143.417 244.175 144.779 247.17 145.088C250.2 145.4 252.589 144.704 254.137 143.058C255.057 142.08 255.268 141.355 255.268 139.17C255.268 136.888 255.04 136.175 253.751 134.423C251.316 131.115 246.665 129.108 243.491 129.995ZM43.8638 131.792C38.4947 132.983 32.7326 136.198 29.6686 139.713C24.1924 145.995 24.4788 152.957 30.4552 158.814C35.8668 164.117 41.8295 166.034 49.0315 164.785C54.31 163.869 58.1728 161.765 62.5448 157.424C66.5308 153.466 68.0975 150.429 68.5246 145.828C69.0894 139.738 63.9128 133.718 56.4391 131.773C53.2322 130.939 47.6743 130.947 43.8638 131.792ZM101.501 135.159C104.334 136.502 107.11 140.597 109.884 147.525C112.021 152.862 112.292 155.366 112.058 167.623C111.62 190.57 111.738 194.531 112.991 198.972C114.026 202.642 114.148 202.852 114.438 201.47C115.144 198.099 117.681 192.868 120.781 188.388C123.086 185.058 129.005 179.608 131.61 178.416C134.57 177.063 135.838 177.147 137.752 178.823C141.021 181.685 141.956 191.934 139.579 198.85C136.237 208.575 128.426 215.741 120.553 216.304C116.447 216.597 113.437 215.865 110.318 213.814C103.506 209.336 102.352 202.912 104.729 182.708C105.668 174.732 105.803 172.237 105.425 169.866C104.785 165.849 104.435 165.172 99.5354 158.431C93.4486 150.059 92.4704 148.515 91.3445 145.509C90.1119 142.218 90.0935 140.972 91.2425 138.721C91.8782 137.476 92.87 136.588 94.6406 135.676C97.5129 134.198 99.2032 134.07 101.501 135.159ZM50.4481 141.983C52.6102 142.583 55.2292 144.995 55.6841 146.806C56.8261 151.351 50.096 156.489 44.8487 155.079C41.8866 154.283 40.5068 153.415 39.4267 151.669C37.0814 147.879 39.3399 143.821 44.7321 142.137C47.2067 141.364 48.1254 141.339 50.4481 141.983ZM310.345 148.214C311.792 148.875 313.753 150.098 314.704 150.933C322.962 158.175 323.15 172.696 315.104 181.783C313.613 183.469 310.205 185.526 302.457 189.421C287.769 196.802 275.845 201.266 265.65 203.2C261.096 204.064 249.19 204.354 244.415 203.719C237.296 202.771 230.429 199.877 227.29 196.498C225.928 195.032 225.434 192.241 226.263 190.694C227.16 189.02 230.682 186.951 234.679 185.749C238.978 184.457 243.617 184.663 250.314 186.442C266.744 190.81 267.456 190.958 271.959 190.958C278.609 190.958 289.6 188.116 296.54 184.603C302.126 181.775 306.498 177.696 307.412 174.459C308.063 172.154 307.986 166.435 307.287 165.081C306.521 163.599 303.836 162.202 301.753 162.202C299.595 162.202 292.85 164.104 289.244 165.73C287.687 166.432 282.378 168.983 277.447 171.401C272.516 173.818 266.888 176.252 264.942 176.811C260.135 178.189 252.553 178.505 241.835 177.773C228.484 176.861 223.267 177.9 218.891 182.342C216.683 184.584 216.166 185.477 215.093 188.917C213.984 192.471 213.884 193.361 214.158 197.231C215.156 211.306 215.146 211.858 213.866 213.345C212.733 214.662 212.613 214.693 210.782 214.145C208.365 213.422 204.453 210.752 201.678 207.932C199.761 205.986 196.047 200.557 196.047 199.703C196.047 199.524 194.693 196.56 193.039 193.116C190.576 187.984 189.543 186.372 187.322 184.189C185.065 181.97 184.059 181.356 181.317 180.524C175.191 178.665 168.612 180.096 165.497 183.964C162.798 187.316 162.433 189.359 162.063 203.215C161.878 210.176 161.494 216.446 161.198 217.376C160.101 220.815 157.408 223.452 154.993 223.452C150.942 223.452 145.582 216.359 143.455 208.183C140.069 195.172 149.433 178.305 162.928 173.106C169.752 170.477 179.274 170.318 195.082 172.57C204.005 173.841 213.646 173.849 218.869 172.591C223.252 171.535 233.471 170.456 245.831 169.747C260.762 168.889 268.415 167.557 274.646 164.731C277.268 163.542 284.6 158.427 287.022 156.098C288.95 154.244 294.35 150.263 296.544 149.078C301.614 146.339 305.684 146.085 310.345 148.214ZM88.9548 160.859C92.2887 162.731 94.1342 167.639 95.5739 178.466C96.4054 184.718 95.8887 214.656 94.909 216.999C93.6784 219.942 91.6129 220.404 87.7458 218.606C84.8348 217.251 82.5386 214.717 81.8147 212.06C81.1055 209.455 81.5278 203.924 82.8208 198.881C84.1388 193.742 83.8943 190.799 81.382 181.53C79.6997 175.325 79.3902 173.473 79.3279 169.254C79.2429 163.459 79.6804 162.428 82.8783 160.88C85.4954 159.612 86.727 159.608 88.9548 160.859ZM363.922 169.889C360.202 173.963 357.706 186.303 359.92 189.681C360.636 190.774 361.078 190.957 362.987 190.95C366.949 190.934 371.308 186.998 372.586 182.282C374.107 176.666 371.173 169.134 367.214 168.493C365.636 168.237 365.301 168.378 363.922 169.889ZM17.0112 178.293C20.5499 180.978 25.7529 187.392 28.0628 191.914C29.4331 194.598 30.057 199.981 30.0824 209.343C30.107 218.281 29.5997 222.037 27.841 225.94C26.6353 228.616 24.3453 230.556 22.3931 230.556C20.6282 230.556 18.2292 228.648 16.7635 226.078C13.575 220.488 11.5005 207.895 10.6394 188.895C10.1972 179.141 10.3685 177.068 11.6832 176.256C12.6284 175.672 14.5022 176.388 17.0112 178.293ZM71.6895 188.637C77.9061 194.362 79.8871 203.037 77.5904 214.481C76.5353 219.739 74.3231 226.181 72.8749 228.213C72.3615 228.934 71.941 229.68 71.941 229.871C71.941 230.808 67.5213 235.215 65.4545 236.338C60.813 238.862 54.0872 238.91 49.3825 236.452C41.0307 232.089 35.6592 218.526 37.0295 205.259C37.5382 200.334 40.3766 191.516 41.9197 190.068C42.519 189.506 43.308 189.162 43.6727 189.304C44.0375 189.446 45.774 191.522 47.5323 193.918C51.2536 198.99 53.7574 200.858 56.8345 200.858C59.1208 200.858 61.5388 199.578 62.9087 197.642C63.4004 196.948 64.4786 194.682 65.3049 192.608C67.0976 188.108 67.946 186.715 68.895 186.715C69.2843 186.715 70.5419 187.58 71.6895 188.637ZM181.691 193.369C184.646 194.474 187.763 197.238 188.113 199.065C188.589 201.554 187.476 202.971 183.542 204.886C181.68 205.792 180.429 206.035 177.606 206.038C174.374 206.043 173.812 205.899 171.766 204.545C166.68 201.18 167.145 195.08 172.637 193.134C175.432 192.143 178.633 192.227 181.691 193.369ZM334.201 193.308C338.026 194.739 336.698 197.119 330.222 200.439C321.131 205.098 305.571 209.371 299.985 208.742C297.193 208.428 296.086 207.333 296.086 204.883C296.086 199.086 305.382 194.456 320.624 192.663C323.695 192.302 332.647 192.727 334.201 193.308ZM195.993 212.658C199.35 215.087 199.735 217.912 197.344 222.571C195.475 226.215 189.021 232.889 181.89 238.552C179.165 240.717 176.192 243.163 175.284 243.988C170.689 248.162 167.044 248.681 160.202 246.135C158.006 245.317 155.989 244.48 155.719 244.273C155.45 244.067 153.318 243.078 150.982 242.077C147.191 240.451 146.33 240.258 142.96 240.285C140.76 240.302 137.511 240.736 135.174 241.325C130.053 242.614 126.929 242.633 124.883 241.387C122.814 240.127 121.512 237.188 121.499 233.746C121.485 230.096 122.929 228.418 126.764 227.628C129.064 227.154 130.268 227.219 135.258 228.088C138.456 228.644 144.257 229.977 148.15 231.049C153.226 232.448 155.801 232.936 157.252 232.777C161.174 232.345 166.878 228.843 173.866 222.577C186.109 211.601 191.31 209.269 195.993 212.658ZM52.967 214.025C50.7194 214.749 48.9484 216.346 48.1302 218.389C45.5905 224.729 52.7603 230.351 59.4908 227.297C63.4759 225.49 65.3488 220.786 63.3178 217.689C61.3736 214.725 56.3362 212.942 52.967 214.025ZM367.813 219.714C369.04 220.94 368.996 221.868 367.597 224.313C365.831 227.398 362.779 230.795 358.621 234.301C353.55 238.577 350.271 240.645 346.522 241.931C343.531 242.957 343.346 242.968 342.157 242.19C340.716 241.246 340.596 240.065 341.641 237.106C343.454 231.972 351.08 223.4 356.119 220.832C359.212 219.255 360.707 218.88 364.156 218.819C366.283 218.781 367.073 218.975 367.813 219.714ZM106.452 227.574C103.051 230.251 99.7091 241.423 96.5111 260.808C95.1842 268.851 90.6574 276.033 85.1066 278.9C79.8814 281.599 76.1224 277.916 76.8807 270.84C77.1719 268.125 77.3771 267.737 80.2415 264.485C83.9557 260.269 84.3634 259.093 82.6292 257.603C80.0891 255.421 73.4491 254.77 70.715 256.435C66.1656 259.207 62.2353 266.042 61.744 272.04C61.3802 276.478 62.0191 279.942 63.944 283.968C67.9389 292.322 77.4196 297.159 86.9101 295.685C93.2796 294.696 97.9055 291.35 104.233 283.155C109.304 276.587 111.431 275.5 114.371 277.972C116.114 279.437 119.328 285.806 120.298 289.718C120.684 291.274 121.204 295.198 121.454 298.439C121.887 304.059 122.739 307.717 123.985 309.301C124.299 309.701 125.406 310.549 126.444 311.187C130.44 313.64 139.855 312.149 145.372 308.189C158.784 298.563 156.738 274.844 141.849 267.348C140.019 266.427 132.078 264.593 123.376 263.082C119.054 262.331 112.748 260.37 109.692 258.826C106.045 256.984 104.449 255.167 104.15 252.513L103.906 250.355L106.209 250.363C111.18 250.381 126.927 252.346 142.065 254.837C149.171 256.007 152.132 256.701 153.862 257.604C160.861 261.258 165.256 267.303 166.654 275.197C168.638 286.396 164.359 299.19 155.514 308.505C150.648 313.63 145.319 316.628 138.127 318.289C129.07 320.379 116.157 318.478 100.018 312.676C97.9419 311.93 92.9517 310.101 88.9289 308.612C84.906 307.124 80.5251 305.604 79.1929 305.236C73.5997 303.69 66.5356 300.589 62.9049 298.086C58.95 295.359 56.2621 291 54.6941 284.768C52.9608 277.881 49.9502 270.507 46.9047 265.689C40.4243 255.439 32.0172 254.001 24.1301 261.795C18.0164 267.837 14.9033 276.676 16.8749 282.395C18.0291 285.743 22.7418 287.292 25.4056 285.199C26.0941 284.657 27.8282 282.227 29.259 279.799C32.2158 274.78 33.7193 273.454 36.4557 273.454C38.0196 273.454 38.5868 273.736 39.7971 275.113C40.5989 276.025 41.3643 277.298 41.4978 277.941C41.6309 278.585 41.8536 279.654 41.9923 280.317C42.3793 282.171 41.3412 286.986 39.8429 290.286C37.0791 296.376 29.8668 301.795 24.5166 301.803C16.73 301.814 9.29498 293.164 7.09458 281.534C5.16221 271.319 7.51265 262.486 13.8307 256.225C17.6218 252.468 20.8335 250.824 28.5276 248.705C29.1764 248.525 37.1395 248.204 46.2233 247.991C68.7605 247.461 72.3261 246.716 80.199 240.891C81.4967 239.931 83.0827 238.645 83.723 238.033C84.3639 237.421 86.3679 235.683 88.1767 234.172C95.4376 228.103 99.0668 226.361 104.501 226.339L108.04 226.324L106.452 227.574ZM247.702 236.379C249.202 237.474 248.449 242.714 245.985 248.328C242.599 256.044 239.01 258.647 227.286 261.896C218.98 264.197 215.562 265.798 212.445 268.849C206.576 274.592 205.032 283.593 209.562 285.655C211.047 286.331 214.858 286.331 217.547 285.654C219.7 285.113 220.396 284.372 224.985 277.729C225.717 276.668 226.966 275.464 227.759 275.054C229.081 274.372 229.348 274.375 230.947 275.095C236.617 277.65 234.764 285.224 226.848 291.848C218.041 299.217 206.96 300.633 201.271 295.117C196.593 290.582 194.498 282.332 196.106 274.774C197.073 270.229 201.019 263.52 204.798 259.996C208.997 256.081 212.622 254.623 221.099 253.437C226.978 252.615 230.77 251.279 233.023 249.237C233.918 248.426 235.82 245.937 237.25 243.706C239.996 239.421 242.546 236.928 244.887 236.242C246.831 235.672 246.728 235.667 247.702 236.379ZM314.254 238.275C325.445 239.983 332.443 245.287 332.41 252.036C332.373 259.542 327.242 269.616 322.693 271.116C321.47 271.518 320.858 271.47 319.714 270.879C316.163 269.044 316.039 265.912 319.247 259.095C320.34 256.772 321.337 253.962 321.462 252.851C321.683 250.899 321.632 250.806 319.993 250.121C317.81 249.21 316.796 249.228 314.721 250.217C312.12 251.456 309.416 256.736 307.408 264.498C306.904 266.442 305.978 269.942 305.349 272.276C304.72 274.609 303.637 278.746 302.943 281.468C298.568 298.615 293.319 304.166 284.692 300.769C283.337 300.235 281.471 299.139 280.545 298.332C275.866 294.253 272.468 285.831 271.723 276.463C271.469 273.267 271.592 272.062 272.47 269.156C273.567 265.528 275.367 262.612 276.511 262.612C277.376 262.612 277.753 263.368 279.508 268.616C281.071 273.292 282.455 276.105 285 279.78C287.956 284.05 288.816 284.244 290.88 281.113C294.812 275.148 295.521 270.639 293.533 264.267C289.034 249.852 277.985 246.49 265.817 255.832C259.584 260.617 254.485 268.409 250.091 279.867C249.107 282.433 247.574 286.442 246.684 288.775C240.764 304.306 236.029 312.633 225.908 325.302C222.515 329.549 214.796 336.662 209.868 340.082C207.175 341.952 199.103 346.523 198.495 346.523C198.286 346.523 197.733 346.244 197.266 345.903C196.454 345.31 196.464 345.17 197.491 342.721C200.022 336.677 208.648 324.011 224.597 302.917C232.944 291.878 234.442 289.618 238.136 282.495C239.975 278.949 241.768 275.712 242.121 275.303C242.475 274.894 242.763 274.419 242.763 274.249C242.763 273.812 245.237 269.739 248.686 264.498C258.869 249.024 272.1 240.118 287.828 238.151C290.164 237.859 292.712 237.532 293.491 237.424C296.142 237.057 309.993 237.624 314.254 238.275ZM141.78 275.137C142.819 277.184 142.954 278.024 142.91 282.175C142.807 291.912 139.817 298.099 134.05 300.507C130.45 302.009 128.157 300.997 127.14 297.457C125.397 291.384 128.826 279.013 133.399 274.877C135.415 273.054 138.189 271.998 139.656 272.494C140.176 272.67 141.131 273.859 141.78 275.137ZM266.931 297.378C270.634 300.991 282.142 314.286 285.901 319.294C287.138 320.94 287.167 321.08 286.347 321.415C285.864 321.612 284.407 321.76 283.109 321.743C272.242 321.6 256.866 306.649 258.521 297.835C258.823 296.224 261.173 293.254 262.145 293.254C262.452 293.254 264.606 295.11 266.931 297.378ZM204.372 309.158C207.318 312.628 205.262 320.891 201.234 321.775C200.155 322.011 199.291 321.788 197.72 320.869C192.729 317.946 192.089 313.482 196.162 309.999C199.438 307.198 202.447 306.889 204.372 309.158ZM256.333 310.938C258.577 312.263 259.537 314.577 258.826 316.949C256.984 323.088 246.587 325.175 242.277 320.272C240.947 318.758 240.798 318.313 241.005 316.477C241.293 313.925 243.371 311.175 245.639 310.341C248.024 309.465 254.443 309.824 256.333 310.938ZM368.441 317.75C366.015 318.323 362.721 320.5 361.448 322.371C359.284 325.553 360.187 328.897 364.038 331.955C367.613 334.794 369.67 334.005 370.62 329.433C371.248 326.413 371.092 317.655 370.408 317.502C370.149 317.444 369.263 317.556 368.441 317.75ZM59.8872 329.718C62.9516 333.732 62.3622 344.566 58.6862 351.785C57.3635 354.383 54.0589 356.894 51.9619 356.894C50.4721 356.894 50.0771 356.636 48.9432 354.922C47.6734 353.003 47.6389 352.774 47.6422 346.319C47.6455 340.256 47.7569 339.387 48.9418 336.184C49.6548 334.257 50.5608 332.189 50.9548 331.587C52.0864 329.863 54.9984 328.196 56.9346 328.166C58.3767 328.142 58.8901 328.413 59.8872 329.718ZM260.223 362.215C258.21 363.227 258.437 365.122 261.03 368.965C263.956 373.302 265.024 374.503 268.725 377.614C275.391 383.219 279.57 388.493 279.57 391.301C279.57 392.859 276.052 396.02 274.319 396.02C272.074 396.02 262.896 391.375 256.791 387.148L254.538 385.589L253.841 387.254C251.84 392.038 254.124 396.467 262.065 403.207C270.891 410.697 272.458 413.145 272.853 420.062C273.395 429.566 269.947 433.77 263.319 431.683C258.771 430.25 256.899 427.062 255.254 417.941C253.521 408.336 251.587 405.23 245.45 402.195C240.864 399.928 238.822 399.423 237.769 400.296C236.713 401.171 237.155 402.876 239.893 408.499C255.815 441.191 258.383 445.507 267.065 454.167C277.173 464.248 291.175 467.177 303.401 461.767C317.967 455.321 329.871 435.758 332.045 414.695C333.147 404.01 329.846 392.94 322.584 382.964C312.802 369.53 302.881 370.063 296.988 384.338C295.115 388.875 295.111 393.431 296.973 400.033C297.706 402.628 298.655 405.428 299.083 406.255C299.511 407.082 299.861 407.976 299.861 408.242C299.861 408.508 300.467 410.056 301.208 411.683C303.711 417.182 306.907 425.461 308.176 429.726C309.949 435.69 309.984 441.39 308.271 445.047C304.952 452.134 299.038 454.512 290.672 452.121C286.272 450.865 282.722 449.014 279.971 446.543C275.741 442.744 275.84 438.474 280.201 436.547C282.761 435.416 284.493 435.813 289.48 438.675C294.313 441.449 294.883 441.578 296.259 440.203C297.146 439.317 297.458 438.368 297.702 435.813C298.105 431.578 297.718 430.424 293.78 424.122C288.178 415.156 288.383 416.103 288.3 398.849C288.257 390.051 288.001 382.589 287.67 380.538C286.393 372.62 282.264 366.244 276.839 363.811C272.374 361.81 262.849 360.894 260.223 362.215ZM315.172 388.247C316.838 390.064 318.821 395.277 319.742 400.263C320.487 404.293 320.528 416.596 319.802 418.27C319.499 418.969 318.686 419.911 317.995 420.363C316.871 421.099 316.612 421.113 315.508 420.494C309.554 417.155 304.628 400.022 307.167 391.482C308.59 386.694 312.354 385.173 315.172 388.247ZM138.713 392.926C145.219 395.862 149.907 402.498 152.099 411.871C153.42 417.519 153.377 422.266 151.936 429.625C150.675 436.068 149.924 438.312 148.684 439.339C147.473 440.343 146.297 439.559 142.791 435.408C138.36 430.162 136.804 429.017 133.708 428.724C129.013 428.281 127.028 430.196 123.089 438.974C120.861 443.938 120.013 445.265 118.579 446.032C116.747 447.011 112.52 441.294 110.88 435.619C108.442 427.186 111.016 407.889 115.652 399.842C117.234 397.094 118.575 395.935 122.545 393.885C127.884 391.128 133.934 390.769 138.713 392.926ZM175.417 394.781C178.282 396.001 180.003 398.968 180.003 402.689C180.003 405.051 178.053 413.855 176.207 419.827C173.208 429.529 173.343 428.456 173.919 437.99C174.822 452.95 173.245 457.516 168.836 452.708C167.025 450.732 164.893 444.618 163.864 438.447C163.053 433.582 163.072 414.345 163.893 409.474C164.683 404.783 166.716 398.967 168.232 397.061C169.469 395.506 171.692 394.163 173.057 394.146C173.52 394.14 174.582 394.426 175.417 394.781ZM131.457 401.656C128.001 402.52 126.226 404.778 126.215 408.325C126.206 411.134 127.668 413.36 130.441 414.759C133.105 416.103 135.764 416.091 138.477 414.72C141.287 413.301 142.397 411.229 142.053 408.048C141.633 404.175 139.289 401.859 135.41 401.485C134.112 401.36 132.333 401.437 131.457 401.656ZM100.642 411.299C103.952 412.975 106.599 416.066 107.33 419.109C107.918 421.559 107.889 423.167 107.045 434.676C106.799 438.033 106.957 439.596 108.018 444.308C109.367 450.293 110.084 459.648 109.495 463.573C109.3 464.869 108.669 466.371 107.97 467.201C106.926 468.44 106.47 468.617 104.328 468.617C101.356 468.617 100.266 467.921 98.6067 464.966C95.53 459.487 94.1319 447.319 94.1238 425.952C94.1196 414.36 94.3985 411.948 95.8712 410.832C97.0835 409.913 98.1023 410.013 100.642 411.299ZM225.38 418.42C223.459 420.035 221.306 425.46 220.518 430.669C219.702 436.066 219.7 458.796 220.515 467.674C221.048 473.477 222.16 479.984 223.416 484.643C224.077 487.098 226.614 490.756 228.559 492.057C229.752 492.856 230.839 493.13 232.806 493.13H235.449L235.5 485.234C235.532 480.218 235.847 475.533 236.365 472.389C240.034 450.082 240.513 445.768 240.29 437.033C240.117 430.29 239.941 428.861 238.969 426.297C236.209 419.014 229.382 415.057 225.38 418.42ZM202.227 422.334C200.121 422.649 196.803 426.677 195.401 430.623C193.434 436.158 193.075 438.926 193.379 446.225C193.666 453.105 194.55 457.655 198.584 472.998C200.499 480.279 200.803 485.174 199.591 489.166C198.425 493.007 198.487 493.13 201.6 493.13C203.78 493.13 204.696 492.877 206.201 491.856C208.696 490.164 209.532 489.149 210.975 486.059C212.606 482.568 212.885 481.553 214.029 474.981C215.912 464.16 214.937 440.375 212.315 433.196C211.903 432.065 211.235 430.229 210.832 429.115C209.961 426.707 206.171 422.652 204.526 422.367C203.885 422.256 202.851 422.242 202.227 422.334ZM368.993 433.341C366.376 434.785 363.994 438.01 359.306 446.461C354.519 455.09 352.897 457.419 350.516 459.089C348.767 460.315 347.195 460.417 345.74 459.398C344.716 458.682 344.69 458.436 344.69 449.483C344.69 439.783 344.408 438.161 342.41 436.384C339.989 434.229 333.79 436.117 331.245 439.785C329.955 441.644 329.83 442.158 329.87 445.442C329.905 448.422 330.155 449.548 331.295 451.882C336.078 461.674 345.059 468.249 352.609 467.488C354.094 467.338 358.867 467.082 363.218 466.919L371.128 466.623L371.004 449.863C370.925 439.208 370.708 433.053 370.408 432.962C370.149 432.885 369.512 433.055 368.993 433.341ZM245.884 457.421C244.375 459.791 243.626 463.354 243.29 469.767C243.101 473.381 243.097 477.455 243.283 478.82C244.197 485.551 249.526 490.549 257.188 491.86C261.193 492.545 265.394 491.533 269.076 488.997C273.82 485.729 273.61 485.807 276.114 486.375C277.366 486.659 281.894 487.809 286.177 488.929C293.594 490.871 294.287 490.968 300.805 490.988C307.298 491.008 307.785 490.944 310.344 489.727C320.308 484.989 322.418 475.425 314.594 470.468C311.412 468.452 309.228 467.989 304.459 468.32C301.178 468.548 289.414 470.769 284.053 472.172C283.534 472.308 280.188 472.724 276.616 473.097C269.611 473.829 269.08 474.001 265.908 476.576C263.019 478.922 259.591 481.345 259.163 481.345C258.967 481.345 258.807 480.192 258.807 478.782C258.807 472.411 254.765 462.042 250.572 457.657C249 456.014 246.85 455.906 245.884 457.421ZM135.15 464.042C129.176 465.74 125.381 469.899 123.121 477.223C120.13 486.919 123.22 492.005 133.376 494.098C138.707 495.197 143.905 495.256 149.566 494.283C164.151 491.775 168.696 482.125 159.883 472.38C157.679 469.942 152.58 466.626 148.694 465.103C144.801 463.577 138.517 463.085 135.15 464.042ZM41.7404 474.499C38.0743 475.554 35.9206 476.666 33.4258 478.787C30.2552 481.484 29.3388 483.42 29.754 486.546C30.4142 491.517 33.337 493.818 38.5004 493.43C46.1813 492.852 55.8969 485.883 55.8969 480.95C55.8969 480.4 55.5661 479.124 55.1617 478.115C53.6635 474.374 47.7267 472.775 41.7404 474.499ZM147.999 475.982C150.694 477.328 151.69 478.659 151.69 480.915C151.69 483.21 150.375 484.767 147.08 486.378C143.459 488.147 139.947 488.148 136.927 486.379C133.416 484.324 133.017 481.423 135.762 477.92C138.699 474.171 143.008 473.489 147.999 475.982ZM2.72679 478.342C2.51586 479.346 2.34648 481.492 2.34978 483.111C2.35544 485.66 2.52343 486.223 3.5998 487.299C4.65493 488.353 5.24384 488.538 7.47821 488.518C13.7043 488.462 20.918 482.06 17.7922 479.365C16.9362 478.627 11.1046 477.369 6.02716 476.828L3.10997 476.517L2.72679 478.342ZM348.937 476.9C348.289 477.013 346.165 477.331 344.219 477.607C333.813 479.079 325.879 482.814 324.681 486.805C323.999 489.074 328.178 490.613 336.851 491.286C350.256 492.326 366.118 490.371 370.526 487.137C371.813 486.193 372.06 485.708 372.06 484.127C372.06 480.966 369.46 479.091 363.312 477.819C359.573 477.045 351.186 476.509 348.937 476.9Z" fill="black" fill-opacity="0.12"/>
</svg>
