<svg width="27" height="28" viewBox="0 0 27 28" fill="none" xmlns="http://www.w3.org/2000/svg">
<circle cx="13.5" cy="14.4702" r="13.5" fill="white"/>
<path d="M20.7022 10.2307C20.6162 10.1481 20.5139 10.0826 20.4012 10.0379C20.2885 9.99323 20.1676 9.97021 20.0454 9.97021C19.9233 9.97021 19.8024 9.99323 19.6897 10.0379C19.577 10.0826 19.4747 10.1481 19.3887 10.2307L12.4973 16.7991L9.60205 14.0344C9.51277 13.9523 9.40737 13.8877 9.29188 13.8444C9.17638 13.8011 9.05306 13.7798 8.92894 13.7819C8.80482 13.7839 8.68234 13.8092 8.56849 13.8563C8.45464 13.9034 8.35165 13.9714 8.26541 14.0564C8.17916 14.1414 8.11134 14.2417 8.06583 14.3516C8.02032 14.4616 7.99799 14.579 8.00014 14.6971C8.00229 14.8152 8.02886 14.9318 8.07834 15.0402C8.12783 15.1486 8.19925 15.2466 8.28853 15.3287L11.8406 18.7098C11.9266 18.7923 12.0289 18.8578 12.1416 18.9025C12.2543 18.9472 12.3752 18.9702 12.4973 18.9702C12.6195 18.9702 12.7404 18.9472 12.8531 18.9025C12.9658 18.8578 13.0681 18.7923 13.1541 18.7098L20.7022 11.525C20.7961 11.4425 20.871 11.3425 20.9223 11.2311C20.9735 11.1197 21 10.9994 21 10.8778C21 10.7562 20.9735 10.6359 20.9223 10.5246C20.871 10.4132 20.7961 10.3131 20.7022 10.2307Z" fill="black"/>
</svg>
