<svg width="934" height="708" viewBox="0 0 934 708" fill="none" xmlns="http://www.w3.org/2000/svg">
<g filter="url(#filter0_d_623_38)">
<rect x="98" y="100.97" width="724" height="497" rx="20" fill="white"/>
</g>
<path d="M307.591 551.238V549.967L312.361 544.745C312.921 544.134 313.382 543.602 313.744 543.151C314.106 542.694 314.374 542.266 314.549 541.866C314.727 541.462 314.817 541.038 314.817 540.596C314.817 540.088 314.694 539.648 314.45 539.277C314.21 538.905 313.881 538.618 313.462 538.416C313.043 538.213 312.573 538.112 312.05 538.112C311.495 538.112 311.011 538.227 310.597 538.458C310.188 538.684 309.87 539.001 309.644 539.411C309.423 539.82 309.313 540.3 309.313 540.85H307.647C307.647 540.003 307.842 539.26 308.233 538.62C308.623 537.98 309.155 537.482 309.828 537.124C310.505 536.767 311.265 536.588 312.107 536.588C312.954 536.588 313.704 536.767 314.358 537.124C315.012 537.482 315.525 537.964 315.896 538.571C316.268 539.178 316.454 539.853 316.454 540.596C316.454 541.128 316.357 541.648 316.165 542.156C315.976 542.659 315.647 543.221 315.177 543.842C314.711 544.458 314.064 545.211 313.236 546.1L309.99 549.572V549.685H316.708V551.238H307.591Z" fill="#615E83"/>
<path d="M324.336 551.435C323.273 551.435 322.367 551.146 321.619 550.567C320.871 549.984 320.3 549.139 319.905 548.034C319.509 546.924 319.312 545.583 319.312 544.012C319.312 542.45 319.509 541.116 319.905 540.01C320.304 538.9 320.878 538.053 321.626 537.47C322.379 536.882 323.282 536.588 324.336 536.588C325.39 536.588 326.291 536.882 327.039 537.47C327.792 538.053 328.365 538.9 328.761 540.01C329.161 541.116 329.361 542.45 329.361 544.012C329.361 545.583 329.163 546.924 328.768 548.034C328.373 549.139 327.801 549.984 327.053 550.567C326.305 551.146 325.399 551.435 324.336 551.435ZM324.336 549.883C325.39 549.883 326.209 549.375 326.792 548.358C327.375 547.342 327.667 545.893 327.667 544.012C327.667 542.76 327.533 541.695 327.265 540.815C327.001 539.935 326.62 539.265 326.121 538.804C325.628 538.343 325.032 538.112 324.336 538.112C323.292 538.112 322.476 538.627 321.887 539.658C321.299 540.683 321.005 542.135 321.005 544.012C321.005 545.263 321.137 546.326 321.401 547.201C321.664 548.076 322.043 548.742 322.537 549.198C323.035 549.655 323.635 549.883 324.336 549.883Z" fill="#615E83"/>
<path d="M337.123 536.786V551.238H335.373V538.62H335.288L331.76 540.963V539.185L335.373 536.786H337.123Z" fill="#615E83"/>
<path d="M345.908 551.435C344.939 551.435 344.083 551.263 343.34 550.92C342.601 550.572 342.025 550.094 341.611 549.488C341.197 548.876 340.992 548.18 340.997 547.399C340.992 546.787 341.112 546.223 341.357 545.705C341.601 545.183 341.935 544.748 342.359 544.4C342.787 544.047 343.264 543.823 343.791 543.729V543.645C343.1 543.466 342.549 543.078 342.14 542.48C341.731 541.878 341.529 541.194 341.533 540.427C341.529 539.693 341.714 539.037 342.091 538.458C342.467 537.879 342.985 537.423 343.643 537.089C344.307 536.755 345.062 536.588 345.908 536.588C346.746 536.588 347.494 536.755 348.152 537.089C348.811 537.423 349.329 537.879 349.705 538.458C350.086 539.037 350.279 539.693 350.284 540.427C350.279 541.194 350.069 541.878 349.655 542.48C349.246 543.078 348.703 543.466 348.025 543.645V543.729C348.548 543.823 349.018 544.047 349.437 544.4C349.855 544.748 350.189 545.183 350.439 545.705C350.688 546.223 350.815 546.787 350.82 547.399C350.815 548.18 350.603 548.876 350.185 549.488C349.771 550.094 349.194 550.572 348.456 550.92C347.722 551.263 346.873 551.435 345.908 551.435ZM345.908 549.883C346.562 549.883 347.127 549.777 347.602 549.565C348.077 549.353 348.444 549.055 348.703 548.669C348.962 548.283 349.093 547.832 349.098 547.314C349.093 546.768 348.952 546.286 348.675 545.867C348.397 545.449 348.018 545.119 347.538 544.88C347.063 544.64 346.52 544.52 345.908 544.52C345.292 544.52 344.742 544.64 344.257 544.88C343.777 545.119 343.399 545.449 343.121 545.867C342.848 546.286 342.714 546.768 342.719 547.314C342.714 547.832 342.839 548.283 343.093 548.669C343.352 549.055 343.721 549.353 344.201 549.565C344.68 549.777 345.25 549.883 345.908 549.883ZM345.908 543.024C346.426 543.024 346.885 542.92 347.284 542.713C347.689 542.506 348.007 542.217 348.237 541.845C348.468 541.474 348.585 541.038 348.59 540.54C348.585 540.05 348.47 539.625 348.244 539.262C348.018 538.896 347.705 538.613 347.306 538.416C346.906 538.213 346.44 538.112 345.908 538.112C345.367 538.112 344.895 538.213 344.49 538.416C344.085 538.613 343.773 538.896 343.551 539.262C343.33 539.625 343.222 540.05 343.227 540.54C343.222 541.038 343.333 541.474 343.559 541.845C343.789 542.217 344.107 542.506 344.511 542.713C344.916 542.92 345.381 543.024 345.908 543.024Z" fill="#615E83"/>
<path d="M202.76 551.238V549.967L207.53 544.745C208.09 544.134 208.551 543.602 208.913 543.151C209.275 542.694 209.544 542.266 209.718 541.866C209.896 541.462 209.986 541.038 209.986 540.596C209.986 540.088 209.863 539.648 209.619 539.277C209.379 538.905 209.05 538.618 208.631 538.416C208.212 538.213 207.742 538.112 207.22 538.112C206.664 538.112 206.18 538.227 205.766 538.458C205.357 538.684 205.039 539.001 204.813 539.411C204.592 539.82 204.482 540.3 204.482 540.85H202.816C202.816 540.003 203.011 539.26 203.402 538.62C203.792 537.98 204.324 537.482 204.997 537.124C205.674 536.767 206.434 536.588 207.276 536.588C208.123 536.588 208.873 536.767 209.527 537.124C210.181 537.482 210.694 537.964 211.065 538.571C211.437 539.178 211.623 539.853 211.623 540.596C211.623 541.128 211.526 541.648 211.334 542.156C211.145 542.659 210.816 543.221 210.346 543.842C209.88 544.458 209.233 545.211 208.405 546.1L205.159 549.572V549.685H211.877V551.238H202.76Z" fill="#615E83"/>
<path d="M219.505 551.435C218.442 551.435 217.536 551.146 216.788 550.567C216.04 549.984 215.469 549.139 215.074 548.034C214.678 546.924 214.481 545.583 214.481 544.012C214.481 542.45 214.678 541.116 215.074 540.01C215.474 538.9 216.047 538.053 216.795 537.47C217.548 536.882 218.451 536.588 219.505 536.588C220.559 536.588 221.46 536.882 222.208 537.47C222.961 538.053 223.535 538.9 223.93 540.01C224.33 541.116 224.53 542.45 224.53 544.012C224.53 545.583 224.332 546.924 223.937 548.034C223.542 549.139 222.97 549.984 222.222 550.567C221.474 551.146 220.568 551.435 219.505 551.435ZM219.505 549.883C220.559 549.883 221.378 549.375 221.961 548.358C222.544 547.342 222.836 545.893 222.836 544.012C222.836 542.76 222.702 541.695 222.434 540.815C222.17 539.935 221.789 539.265 221.291 538.804C220.797 538.343 220.201 538.112 219.505 538.112C218.461 538.112 217.645 538.627 217.057 539.658C216.468 540.683 216.174 542.135 216.174 544.012C216.174 545.263 216.306 546.326 216.57 547.201C216.833 548.076 217.212 548.742 217.706 549.198C218.204 549.655 218.804 549.883 219.505 549.883Z" fill="#615E83"/>
<path d="M232.292 536.786V551.238H230.542V538.62H230.457L226.929 540.963V539.185L230.542 536.786H232.292Z" fill="#615E83"/>
<path d="M236.9 551.238L243.364 538.451V538.338H235.912V536.786H245.17V538.423L238.735 551.238H236.9Z" fill="#615E83"/>
<path d="M412.79 551.238V549.967L417.56 544.745C418.12 544.134 418.581 543.602 418.943 543.151C419.306 542.694 419.574 542.266 419.748 541.866C419.927 541.462 420.016 541.038 420.016 540.596C420.016 540.088 419.894 539.648 419.649 539.277C419.409 538.905 419.08 538.618 418.661 538.416C418.242 538.213 417.772 538.112 417.25 538.112C416.695 538.112 416.21 538.227 415.796 538.458C415.387 538.684 415.069 539.001 414.844 539.411C414.622 539.82 414.512 540.3 414.512 540.85H412.846C412.846 540.003 413.042 539.26 413.432 538.62C413.823 537.98 414.354 537.482 415.027 537.124C415.704 536.767 416.464 536.588 417.306 536.588C418.153 536.588 418.903 536.767 419.557 537.124C420.211 537.482 420.724 537.964 421.096 538.571C421.467 539.178 421.653 539.853 421.653 540.596C421.653 541.128 421.557 541.648 421.364 542.156C421.176 542.659 420.846 543.221 420.376 543.842C419.91 544.458 419.263 545.211 418.435 546.1L415.189 549.572V549.685H421.907V551.238H412.79Z" fill="#615E83"/>
<path d="M429.535 551.435C428.472 551.435 427.567 551.146 426.819 550.567C426.071 549.984 425.499 549.139 425.104 548.034C424.709 546.924 424.511 545.583 424.511 544.012C424.511 542.45 424.709 541.116 425.104 540.01C425.504 538.9 426.078 538.053 426.826 537.47C427.578 536.882 428.482 536.588 429.535 536.588C430.589 536.588 431.49 536.882 432.238 537.47C432.991 538.053 433.565 538.9 433.96 540.01C434.36 541.116 434.56 542.45 434.56 544.012C434.56 545.583 434.362 546.924 433.967 548.034C433.572 549.139 433 549.984 432.252 550.567C431.504 551.146 430.599 551.435 429.535 551.435ZM429.535 549.883C430.589 549.883 431.408 549.375 431.991 548.358C432.575 547.342 432.866 545.893 432.866 544.012C432.866 542.76 432.732 541.695 432.464 540.815C432.201 539.935 431.819 539.265 431.321 538.804C430.827 538.343 430.232 538.112 429.535 538.112C428.491 538.112 427.675 538.627 427.087 539.658C426.499 540.683 426.205 542.135 426.205 544.012C426.205 545.263 426.336 546.326 426.6 547.201C426.863 548.076 427.242 548.742 427.736 549.198C428.235 549.655 428.835 549.883 429.535 549.883Z" fill="#615E83"/>
<path d="M442.322 536.786V551.238H440.572V538.62H440.487L436.959 540.963V539.185L440.572 536.786H442.322Z" fill="#615E83"/>
<path d="M451.079 536.588C451.672 536.593 452.265 536.706 452.858 536.927C453.451 537.148 453.992 537.515 454.481 538.028C454.97 538.536 455.363 539.23 455.659 540.109C455.956 540.989 456.104 542.092 456.104 543.419C456.104 544.703 455.982 545.844 455.737 546.841C455.497 547.834 455.149 548.671 454.693 549.353C454.241 550.036 453.69 550.553 453.041 550.906C452.397 551.259 451.668 551.435 450.854 551.435C450.045 551.435 449.322 551.275 448.687 550.955C448.057 550.631 447.539 550.181 447.135 549.608C446.735 549.029 446.479 548.358 446.366 547.596H448.087C448.243 548.26 448.551 548.808 449.012 549.241C449.478 549.669 450.092 549.883 450.854 549.883C451.969 549.883 452.848 549.396 453.493 548.422C454.142 547.448 454.467 546.072 454.467 544.294H454.354C454.09 544.689 453.777 545.03 453.415 545.317C453.053 545.604 452.651 545.825 452.209 545.98C451.766 546.136 451.296 546.213 450.797 546.213C449.969 546.213 449.209 546.009 448.518 545.599C447.831 545.185 447.281 544.618 446.867 543.899C446.457 543.174 446.253 542.346 446.253 541.415C446.253 540.53 446.45 539.721 446.845 538.987C447.245 538.249 447.805 537.661 448.525 537.223C449.249 536.786 450.101 536.574 451.079 536.588ZM451.079 538.14C450.487 538.14 449.953 538.289 449.478 538.585C449.007 538.877 448.633 539.272 448.356 539.771C448.083 540.264 447.946 540.813 447.946 541.415C447.946 542.017 448.078 542.565 448.341 543.059C448.61 543.548 448.974 543.939 449.435 544.23C449.901 544.517 450.43 544.661 451.023 544.661C451.47 544.661 451.886 544.574 452.272 544.4C452.658 544.221 452.994 543.979 453.281 543.673C453.573 543.362 453.801 543.012 453.966 542.621C454.13 542.226 454.213 541.815 454.213 541.387C454.213 540.822 454.076 540.293 453.803 539.799C453.535 539.305 453.164 538.905 452.688 538.599C452.218 538.293 451.682 538.14 451.079 538.14Z" fill="#615E83"/>
<path d="M516.66 551.238V549.967L521.431 544.745C521.991 544.134 522.452 543.602 522.814 543.151C523.176 542.694 523.444 542.266 523.618 541.866C523.797 541.462 523.886 541.038 523.886 540.596C523.886 540.088 523.764 539.648 523.519 539.277C523.28 538.905 522.95 538.618 522.532 538.416C522.113 538.213 521.642 538.112 521.12 538.112C520.565 538.112 520.081 538.227 519.667 538.458C519.257 538.684 518.94 539.001 518.714 539.411C518.493 539.82 518.382 540.3 518.382 540.85H516.717C516.717 540.003 516.912 539.26 517.303 538.62C517.693 537.98 518.225 537.482 518.897 537.124C519.575 536.767 520.335 536.588 521.177 536.588C522.023 536.588 522.774 536.767 523.428 537.124C524.082 537.482 524.594 537.964 524.966 538.571C525.338 539.178 525.524 539.853 525.524 540.596C525.524 541.128 525.427 541.648 525.234 542.156C525.046 542.659 524.717 543.221 524.246 543.842C523.781 544.458 523.134 545.211 522.306 546.1L519.06 549.572V549.685H525.778V551.238H516.66Z" fill="#615E83"/>
<path d="M533.406 551.435C532.343 551.435 531.437 551.146 530.689 550.567C529.941 549.984 529.369 549.139 528.974 548.034C528.579 546.924 528.382 545.583 528.382 544.012C528.382 542.45 528.579 541.116 528.974 540.01C529.374 538.9 529.948 538.053 530.696 537.47C531.449 536.882 532.352 536.588 533.406 536.588C534.46 536.588 535.361 536.882 536.109 537.47C536.861 538.053 537.435 538.9 537.83 540.01C538.23 541.116 538.43 542.45 538.43 544.012C538.43 545.583 538.233 546.924 537.837 548.034C537.442 549.139 536.871 549.984 536.123 550.567C535.375 551.146 534.469 551.435 533.406 551.435ZM533.406 549.883C534.46 549.883 535.278 549.375 535.862 548.358C536.445 547.342 536.737 545.893 536.737 544.012C536.737 542.76 536.603 541.695 536.334 540.815C536.071 539.935 535.69 539.265 535.191 538.804C534.697 538.343 534.102 538.112 533.406 538.112C532.361 538.112 531.545 538.627 530.957 539.658C530.369 540.683 530.075 542.135 530.075 544.012C530.075 545.263 530.207 546.326 530.47 547.201C530.734 548.076 531.112 548.742 531.606 549.198C532.105 549.655 532.705 549.883 533.406 549.883Z" fill="#615E83"/>
<path d="M541.112 551.238V549.967L545.882 544.745C546.442 544.134 546.903 543.602 547.265 543.151C547.627 542.694 547.896 542.266 548.07 541.866C548.248 541.462 548.338 541.038 548.338 540.596C548.338 540.088 548.215 539.648 547.971 539.277C547.731 538.905 547.402 538.618 546.983 538.416C546.564 538.213 546.094 538.112 545.572 538.112C545.016 538.112 544.532 538.227 544.118 538.458C543.709 538.684 543.391 539.001 543.165 539.411C542.944 539.82 542.834 540.3 542.834 540.85H541.168C541.168 540.003 541.363 539.26 541.754 538.62C542.144 537.98 542.676 537.482 543.349 537.124C544.026 536.767 544.786 536.588 545.628 536.588C546.475 536.588 547.225 536.767 547.879 537.124C548.533 537.482 549.046 537.964 549.417 538.571C549.789 539.178 549.975 539.853 549.975 540.596C549.975 541.128 549.878 541.648 549.686 542.156C549.497 542.659 549.168 543.221 548.698 543.842C548.232 544.458 547.585 545.211 546.757 546.1L543.511 549.572V549.685H550.229V551.238H541.112Z" fill="#615E83"/>
<path d="M557.857 551.435C556.794 551.435 555.888 551.146 555.14 550.567C554.392 549.984 553.821 549.139 553.426 548.034C553.03 546.924 552.833 545.583 552.833 544.012C552.833 542.45 553.03 541.116 553.426 540.01C553.825 538.9 554.399 538.053 555.147 537.47C555.9 536.882 556.803 536.588 557.857 536.588C558.911 536.588 559.812 536.882 560.56 537.47C561.313 538.053 561.887 538.9 562.282 540.01C562.682 541.116 562.882 542.45 562.882 544.012C562.882 545.583 562.684 546.924 562.289 548.034C561.894 549.139 561.322 549.984 560.574 550.567C559.826 551.146 558.92 551.435 557.857 551.435ZM557.857 549.883C558.911 549.883 559.73 549.375 560.313 548.358C560.896 547.342 561.188 545.893 561.188 544.012C561.188 542.76 561.054 541.695 560.786 540.815C560.522 539.935 560.141 539.265 559.643 538.804C559.149 538.343 558.553 538.112 557.857 538.112C556.813 538.112 555.997 538.627 555.409 539.658C554.82 540.683 554.526 542.135 554.526 544.012C554.526 545.263 554.658 546.326 554.922 547.201C555.185 548.076 555.564 548.742 556.058 549.198C556.556 549.655 557.156 549.883 557.857 549.883Z" fill="#615E83"/>
<path d="M623.529 551.238V549.967L628.3 544.745C628.859 544.134 629.32 543.602 629.683 543.151C630.045 542.694 630.313 542.266 630.487 541.866C630.666 541.462 630.755 541.038 630.755 540.596C630.755 540.088 630.633 539.648 630.388 539.277C630.148 538.905 629.819 538.618 629.4 538.416C628.982 538.213 628.511 538.112 627.989 538.112C627.434 538.112 626.949 538.227 626.535 538.458C626.126 538.684 625.809 539.001 625.583 539.411C625.362 539.82 625.251 540.3 625.251 540.85H623.586C623.586 540.003 623.781 539.26 624.171 538.62C624.562 537.98 625.093 537.482 625.766 537.124C626.444 536.767 627.203 536.588 628.045 536.588C628.892 536.588 629.643 536.767 630.297 537.124C630.95 537.482 631.463 537.964 631.835 538.571C632.207 539.178 632.392 539.853 632.392 540.596C632.392 541.128 632.296 541.648 632.103 542.156C631.915 542.659 631.586 543.221 631.115 543.842C630.649 544.458 630.003 545.211 629.175 546.1L625.928 549.572V549.685H632.646V551.238H623.529Z" fill="#615E83"/>
<path d="M640.275 551.435C639.211 551.435 638.306 551.146 637.558 550.567C636.81 549.984 636.238 549.139 635.843 548.034C635.448 546.924 635.25 545.583 635.25 544.012C635.25 542.45 635.448 541.116 635.843 540.01C636.243 538.9 636.817 538.053 637.565 537.47C638.318 536.882 639.221 536.588 640.275 536.588C641.328 536.588 642.229 536.882 642.977 537.47C643.73 538.053 644.304 538.9 644.699 540.01C645.099 541.116 645.299 542.45 645.299 544.012C645.299 545.583 645.101 546.924 644.706 548.034C644.311 549.139 643.74 549.984 642.992 550.567C642.243 551.146 641.338 551.435 640.275 551.435ZM640.275 549.883C641.328 549.883 642.147 549.375 642.73 548.358C643.314 547.342 643.605 545.893 643.605 544.012C643.605 542.76 643.471 541.695 643.203 540.815C642.94 539.935 642.559 539.265 642.06 538.804C641.566 538.343 640.971 538.112 640.275 538.112C639.23 538.112 638.414 538.627 637.826 539.658C637.238 540.683 636.944 542.135 636.944 544.012C636.944 545.263 637.076 546.326 637.339 547.201C637.603 548.076 637.981 548.742 638.475 549.198C638.974 549.655 639.574 549.883 640.275 549.883Z" fill="#615E83"/>
<path d="M647.981 551.238V549.967L652.751 544.745C653.311 544.134 653.772 543.602 654.134 543.151C654.496 542.694 654.764 542.266 654.938 541.866C655.117 541.462 655.207 541.038 655.207 540.596C655.207 540.088 655.084 539.648 654.84 539.277C654.6 538.905 654.27 538.618 653.852 538.416C653.433 538.213 652.963 538.112 652.44 538.112C651.885 538.112 651.401 538.227 650.987 538.458C650.577 538.684 650.26 539.001 650.034 539.411C649.813 539.82 649.702 540.3 649.702 540.85H648.037C648.037 540.003 648.232 539.26 648.623 538.62C649.013 537.98 649.545 537.482 650.217 537.124C650.895 536.767 651.655 536.588 652.497 536.588C653.344 536.588 654.094 536.767 654.748 537.124C655.402 537.482 655.915 537.964 656.286 538.571C656.658 539.178 656.844 539.853 656.844 540.596C656.844 541.128 656.747 541.648 656.554 542.156C656.366 542.659 656.037 543.221 655.566 543.842C655.101 544.458 654.454 545.211 653.626 546.1L650.38 549.572V549.685H657.098V551.238H647.981Z" fill="#615E83"/>
<path d="M665.093 536.786V551.238H663.343V538.62H663.258L659.73 540.963V539.185L663.343 536.786H665.093Z" fill="#615E83"/>
<path d="M727.857 551.238V549.967L732.627 544.745C733.187 544.134 733.648 543.602 734.01 543.151C734.373 542.694 734.641 542.266 734.815 541.866C734.994 541.462 735.083 541.038 735.083 540.596C735.083 540.088 734.961 539.648 734.716 539.277C734.476 538.905 734.147 538.618 733.728 538.416C733.309 538.213 732.839 538.112 732.317 538.112C731.762 538.112 731.277 538.227 730.863 538.458C730.454 538.684 730.136 539.001 729.911 539.411C729.689 539.82 729.579 540.3 729.579 540.85H727.913C727.913 540.003 728.109 539.26 728.499 538.62C728.89 537.98 729.421 537.482 730.094 537.124C730.771 536.767 731.531 536.588 732.373 536.588C733.22 536.588 733.97 536.767 734.624 537.124C735.278 537.482 735.791 537.964 736.163 538.571C736.534 539.178 736.72 539.853 736.72 540.596C736.72 541.128 736.624 541.648 736.431 542.156C736.243 542.659 735.913 543.221 735.443 543.842C734.977 544.458 734.33 545.211 733.502 546.1L730.256 549.572V549.685H736.974V551.238H727.857Z" fill="#615E83"/>
<path d="M744.602 551.435C743.539 551.435 742.634 551.146 741.886 550.567C741.138 549.984 740.566 549.139 740.171 548.034C739.776 546.924 739.578 545.583 739.578 544.012C739.578 542.45 739.776 541.116 740.171 540.01C740.571 538.9 741.145 538.053 741.893 537.47C742.645 536.882 743.549 536.588 744.602 536.588C745.656 536.588 746.557 536.882 747.305 537.47C748.058 538.053 748.632 538.9 749.027 540.01C749.427 541.116 749.627 542.45 749.627 544.012C749.627 545.583 749.429 546.924 749.034 548.034C748.639 549.139 748.067 549.984 747.319 550.567C746.571 551.146 745.666 551.435 744.602 551.435ZM744.602 549.883C745.656 549.883 746.475 549.375 747.058 548.358C747.642 547.342 747.933 545.893 747.933 544.012C747.933 542.76 747.799 541.695 747.531 540.815C747.268 539.935 746.886 539.265 746.388 538.804C745.894 538.343 745.299 538.112 744.602 538.112C743.558 538.112 742.742 538.627 742.154 539.658C741.566 540.683 741.272 542.135 741.272 544.012C741.272 545.263 741.403 546.326 741.667 547.201C741.93 548.076 742.309 548.742 742.803 549.198C743.302 549.655 743.901 549.883 744.602 549.883Z" fill="#615E83"/>
<path d="M752.308 551.238V549.967L757.079 544.745C757.638 544.134 758.099 543.602 758.462 543.151C758.824 542.694 759.092 542.266 759.266 541.866C759.445 541.462 759.534 541.038 759.534 540.596C759.534 540.088 759.412 539.648 759.167 539.277C758.927 538.905 758.598 538.618 758.18 538.416C757.761 538.213 757.29 538.112 756.768 538.112C756.213 538.112 755.728 538.227 755.315 538.458C754.905 538.684 754.588 539.001 754.362 539.411C754.141 539.82 754.03 540.3 754.03 540.85H752.365C752.365 540.003 752.56 539.26 752.951 538.62C753.341 537.98 753.873 537.482 754.545 537.124C755.223 536.767 755.982 536.588 756.825 536.588C757.671 536.588 758.422 536.767 759.076 537.124C759.73 537.482 760.242 537.964 760.614 538.571C760.986 539.178 761.172 539.853 761.172 540.596C761.172 541.128 761.075 541.648 760.882 542.156C760.694 542.659 760.365 543.221 759.894 543.842C759.429 544.458 758.782 545.211 757.954 546.1L754.708 549.572V549.685H761.426V551.238H752.308Z" fill="#615E83"/>
<path d="M764.34 551.238V549.967L769.11 544.745C769.67 544.134 770.131 543.602 770.493 543.151C770.856 542.694 771.124 542.266 771.298 541.866C771.477 541.462 771.566 541.038 771.566 540.596C771.566 540.088 771.444 539.648 771.199 539.277C770.959 538.905 770.63 538.618 770.211 538.416C769.792 538.213 769.322 538.112 768.8 538.112C768.245 538.112 767.76 538.227 767.346 538.458C766.937 538.684 766.619 539.001 766.393 539.411C766.172 539.82 766.062 540.3 766.062 540.85H764.396C764.396 540.003 764.592 539.26 764.982 538.62C765.373 537.98 765.904 537.482 766.577 537.124C767.254 536.767 768.014 536.588 768.856 536.588C769.703 536.588 770.453 536.767 771.107 537.124C771.761 537.482 772.274 537.964 772.646 538.571C773.017 539.178 773.203 539.853 773.203 540.596C773.203 541.128 773.107 541.648 772.914 542.156C772.726 542.659 772.396 543.221 771.926 543.842C771.46 544.458 770.813 545.211 769.985 546.1L766.739 549.572V549.685H773.457V551.238H764.34Z" fill="#615E83"/>
<path d="M169.985 508.25C168.922 508.25 168.016 507.96 167.268 507.382C166.52 506.798 165.948 505.954 165.553 504.848C165.158 503.738 164.96 502.397 164.96 500.826C164.96 499.264 165.158 497.93 165.553 496.825C165.953 495.715 166.527 494.868 167.275 494.285C168.028 493.696 168.931 493.402 169.985 493.402C171.038 493.402 171.939 493.696 172.687 494.285C173.44 494.868 174.014 495.715 174.409 496.825C174.809 497.93 175.009 499.264 175.009 500.826C175.009 502.397 174.811 503.738 174.416 504.848C174.021 505.954 173.45 506.798 172.702 507.382C171.954 507.96 171.048 508.25 169.985 508.25ZM169.985 506.697C171.038 506.697 171.857 506.189 172.44 505.173C173.024 504.157 173.315 502.708 173.315 500.826C173.315 499.575 173.181 498.509 172.913 497.629C172.65 496.75 172.269 496.079 171.77 495.618C171.276 495.157 170.681 494.927 169.985 494.927C168.94 494.927 168.124 495.442 167.536 496.472C166.948 497.498 166.654 498.949 166.654 500.826C166.654 502.077 166.786 503.141 167.049 504.016C167.313 504.891 167.691 505.556 168.185 506.013C168.684 506.469 169.284 506.697 169.985 506.697Z" fill="#615E83"/>
<path d="M155.856 425.094V439.546H154.105V426.929H154.021L150.492 429.272V427.493L154.105 425.094H155.856Z" fill="#615E83"/>
<path d="M160.266 425.094H162.355L167.266 437.09H167.435L172.347 425.094H174.436V439.546H172.799V428.566H172.657L168.141 439.546H166.56L162.044 428.566H161.903V439.546H160.266V425.094Z" fill="#615E83"/>
<path d="M147.98 364.045V362.775L152.751 357.553C153.31 356.941 153.771 356.41 154.134 355.958C154.496 355.502 154.764 355.074 154.938 354.674C155.117 354.269 155.206 353.846 155.206 353.404C155.206 352.895 155.084 352.456 154.839 352.084C154.599 351.712 154.27 351.425 153.851 351.223C153.433 351.021 152.962 350.92 152.44 350.92C151.885 350.92 151.4 351.035 150.986 351.265C150.577 351.491 150.26 351.809 150.034 352.218C149.813 352.627 149.702 353.107 149.702 353.658H148.037C148.037 352.811 148.232 352.067 148.622 351.428C149.013 350.788 149.544 350.289 150.217 349.932C150.895 349.574 151.654 349.395 152.497 349.395C153.343 349.395 154.094 349.574 154.748 349.932C155.402 350.289 155.914 350.771 156.286 351.378C156.658 351.985 156.843 352.66 156.843 353.404C156.843 353.935 156.747 354.455 156.554 354.963C156.366 355.466 156.037 356.029 155.566 356.65C155.1 357.266 154.454 358.019 153.626 358.908L150.38 362.38V362.493H157.097V364.045H147.98Z" fill="#615E83"/>
<path d="M160.266 349.593H162.355L167.266 361.589H167.435L172.347 349.593H174.436V364.045H172.799V353.065H172.657L168.141 364.045H166.56L162.044 353.065H161.903V364.045H160.266V349.593Z" fill="#615E83"/>
<path d="M152.242 290.817C151.311 290.817 150.481 290.657 149.751 290.338C149.027 290.018 148.451 289.573 148.023 289.004C147.599 288.43 147.369 287.764 147.331 287.007H149.109C149.147 287.473 149.307 287.875 149.589 288.214C149.871 288.548 150.241 288.806 150.697 288.99C151.153 289.173 151.659 289.265 152.214 289.265C152.835 289.265 153.386 289.157 153.866 288.94C154.345 288.724 154.722 288.423 154.995 288.037C155.267 287.651 155.404 287.204 155.404 286.696C155.404 286.165 155.272 285.697 155.009 285.292C154.745 284.883 154.359 284.563 153.851 284.332C153.343 284.102 152.722 283.987 151.988 283.987H150.831V282.434H151.988C152.562 282.434 153.066 282.331 153.499 282.124C153.936 281.917 154.277 281.625 154.522 281.249C154.771 280.872 154.896 280.43 154.896 279.922C154.896 279.433 154.788 279.007 154.571 278.645C154.355 278.282 154.049 278 153.654 277.798C153.263 277.596 152.802 277.494 152.271 277.494C151.772 277.494 151.302 277.586 150.859 277.77C150.422 277.948 150.064 278.21 149.787 278.553C149.509 278.892 149.359 279.301 149.335 279.781H147.642C147.67 279.023 147.898 278.36 148.326 277.791C148.754 277.217 149.314 276.77 150.006 276.45C150.702 276.13 151.466 275.97 152.299 275.97C153.193 275.97 153.96 276.151 154.599 276.514C155.239 276.871 155.731 277.344 156.074 277.932C156.418 278.52 156.589 279.155 156.589 279.837C156.589 280.651 156.375 281.345 155.947 281.919C155.524 282.493 154.948 282.89 154.218 283.112V283.224C155.131 283.375 155.844 283.763 156.357 284.389C156.869 285.01 157.126 285.779 157.126 286.696C157.126 287.482 156.912 288.188 156.484 288.813C156.06 289.434 155.482 289.924 154.748 290.281C154.014 290.639 153.179 290.817 152.242 290.817Z" fill="#615E83"/>
<path d="M160.266 276.168H162.355L167.266 288.164H167.435L172.347 276.168H174.436V290.62H172.799V279.64H172.657L168.141 290.62H166.56L162.044 279.64H161.903V290.62H160.266V276.168Z" fill="#615E83"/>
<path opacity="0.7" d="M366.808 339.917C298.568 414.04 243.026 374.052 223.784 340.226V507.895H750.638V388.666C744.135 392.029 729.182 421.117 698.817 395.435C649.181 347.637 607.267 384.037 594.766 395.435C582.265 406.833 540.718 436.246 509.098 370.065C477.478 303.884 455.786 293.957 444.388 293.222C432.99 292.487 412.768 287.339 366.808 339.917Z" fill="url(#paint0_linear_623_38)"/>
<path d="M223.784 340.226C243.026 374.052 298.568 414.04 366.808 339.917C412.768 287.339 432.99 292.487 444.388 293.222C455.786 293.957 477.478 303.884 509.098 370.065C540.718 436.246 582.265 406.833 594.766 395.435C607.267 384.037 649.181 347.637 698.817 395.435C729.182 421.117 744.135 392.029 750.638 388.666" stroke="#4AE000" stroke-width="2" stroke-linecap="round"/>
<circle cx="223.784" cy="340.594" r="4.54849" fill="#4AE000" stroke="white" stroke-width="2"/>
<circle cx="330.014" cy="370.142" r="4.54849" fill="#4AE000" stroke="white" stroke-width="2"/>
<circle cx="434.339" cy="292.749" r="4.54849" fill="#4AE000" stroke="white" stroke-width="2"/>
<circle cx="539.616" cy="407.122" r="4.54849" fill="#4AE000" stroke="white" stroke-width="2"/>
<circle cx="644.893" cy="371.571" r="4.54849" fill="#4AE000" stroke="white" stroke-width="2"/>
<circle cx="750.171" cy="388.439" r="4.54849" fill="#4AE000" stroke="white" stroke-width="2"/>
<rect x="618.768" y="154.891" width="155.325" height="43.094" rx="20" fill="#F8F8FF"/>
<path d="M662.215 180.378H656.255L655.175 183.438H652.735L657.935 169.538H660.555L665.735 183.438H663.295L662.215 180.378ZM661.575 178.618L659.235 172.018L656.895 178.618H661.575ZM673.588 172.238C674.868 172.238 675.895 172.652 676.668 173.478C677.441 174.305 677.828 175.485 677.828 177.018V183.438H675.548V177.258C675.548 176.272 675.295 175.512 674.788 174.978C674.281 174.432 673.588 174.158 672.708 174.158C671.801 174.158 671.075 174.452 670.528 175.038C669.981 175.612 669.708 176.458 669.708 177.578V183.438H667.428V172.418H669.708V174.838C670.001 174.012 670.495 173.372 671.188 172.918C671.881 172.465 672.681 172.238 673.588 172.238ZM686.654 172.238C687.934 172.238 688.961 172.652 689.734 173.478C690.508 174.305 690.894 175.485 690.894 177.018V183.438H688.614V177.258C688.614 176.272 688.361 175.512 687.854 174.978C687.348 174.432 686.654 174.158 685.774 174.158C684.868 174.158 684.141 174.452 683.594 175.038C683.048 175.612 682.774 176.458 682.774 177.578V183.438H680.494V172.418H682.774V174.838C683.068 174.012 683.561 173.372 684.254 172.918C684.948 172.465 685.748 172.238 686.654 172.238ZM703.721 172.418V183.438H701.421V181.038C701.141 181.852 700.654 182.485 699.961 182.938C699.267 183.378 698.461 183.598 697.541 183.598C696.261 183.598 695.234 183.185 694.461 182.358C693.687 181.532 693.301 180.352 693.301 178.818V172.418H695.581V178.578C695.581 179.578 695.834 180.352 696.341 180.898C696.847 181.432 697.541 181.698 698.421 181.698C699.327 181.698 700.054 181.405 700.601 180.818C701.147 180.232 701.421 179.378 701.421 178.258V172.418H703.721ZM710.871 172.278C711.871 172.278 712.725 172.525 713.431 173.018C714.138 173.512 714.638 174.165 714.931 174.978V172.418H717.211V183.438H714.931V180.878C714.638 181.692 714.138 182.345 713.431 182.838C712.725 183.332 711.871 183.578 710.871 183.578C709.911 183.578 709.051 183.352 708.291 182.898C707.545 182.445 706.958 181.792 706.531 180.938C706.105 180.085 705.891 179.078 705.891 177.918C705.891 176.772 706.105 175.772 706.531 174.918C706.958 174.065 707.545 173.412 708.291 172.958C709.051 172.505 709.911 172.278 710.871 172.278ZM711.571 174.278C710.558 174.278 709.745 174.605 709.131 175.258C708.531 175.898 708.231 176.785 708.231 177.918C708.231 179.052 708.531 179.945 709.131 180.598C709.745 181.238 710.558 181.558 711.571 181.558C712.211 181.558 712.785 181.412 713.291 181.118C713.798 180.812 714.198 180.385 714.491 179.838C714.785 179.292 714.931 178.652 714.931 177.918C714.931 177.198 714.785 176.565 714.491 176.018C714.198 175.458 713.798 175.032 713.291 174.738C712.785 174.432 712.211 174.278 711.571 174.278ZM722.227 168.638V183.438H719.947V168.638H722.227Z" fill="#727272"/>
<path fill-rule="evenodd" clip-rule="evenodd" d="M748.596 173.891C748.355 174.132 748.355 174.524 748.596 174.765L752.804 178.973C752.808 178.977 752.812 178.982 752.817 178.986C752.937 179.107 753.096 179.167 753.254 179.167C753.412 179.167 753.57 179.107 753.691 178.986C753.696 178.982 753.7 178.977 753.704 178.973L757.912 174.765C758.153 174.524 758.153 174.132 757.912 173.891C757.67 173.649 757.279 173.649 757.038 173.891L753.254 177.674L749.47 173.891C749.229 173.649 748.838 173.649 748.596 173.891Z" fill="#615E83"/>
<path d="M163.842 184.595V188.581H156.909V209.721H151.897V188.581H145V184.595H163.842Z" fill="#1E1B39"/>
<path d="M178.333 189.72C180.608 189.72 182.421 190.468 183.772 191.962C185.123 193.457 185.799 195.557 185.799 198.262V209.721H180.821V198.831C180.821 197.265 180.419 196.055 179.613 195.201C178.807 194.323 177.705 193.884 176.307 193.884C174.885 193.884 173.747 194.347 172.894 195.272C172.04 196.197 171.614 197.526 171.614 199.258V209.721H166.601V183.385H171.614V193.955C172.135 192.627 172.988 191.595 174.174 190.859C175.382 190.1 176.769 189.72 178.333 189.72Z" fill="#1E1B39"/>
<path d="M189.64 184.346C189.64 183.54 189.925 182.887 190.493 182.389C191.062 181.867 191.809 181.606 192.733 181.606C193.658 181.606 194.404 181.867 194.973 182.389C195.542 182.887 195.826 183.54 195.826 184.346C195.826 185.129 195.542 185.782 194.973 186.304C194.404 186.802 193.658 187.051 192.733 187.051C191.809 187.051 191.062 186.802 190.493 186.304C189.925 185.782 189.64 185.129 189.64 184.346ZM195.222 190.005V209.721H190.209V190.005H195.222Z" fill="#1E1B39"/>
<path d="M206.547 189.756C208.94 189.756 210.86 190.361 212.306 191.571C213.752 192.781 214.652 194.394 215.008 196.411H210.315C210.125 195.462 209.699 194.703 209.035 194.133C208.372 193.564 207.506 193.279 206.44 193.279C205.587 193.279 204.923 193.481 204.449 193.884C203.975 194.287 203.738 194.833 203.738 195.521C203.738 196.067 203.928 196.506 204.307 196.838C204.686 197.17 205.16 197.431 205.729 197.621C206.298 197.811 207.115 198.036 208.182 198.297C209.675 198.629 210.884 198.985 211.808 199.365C212.756 199.721 213.562 200.302 214.226 201.109C214.913 201.892 215.257 202.959 215.257 204.312C215.257 205.996 214.593 207.36 213.266 208.404C211.962 209.448 210.196 209.97 207.969 209.97C205.409 209.97 203.359 209.401 201.818 208.262C200.278 207.099 199.342 205.45 199.01 203.315H203.809C203.928 204.288 204.354 205.059 205.089 205.628C205.824 206.174 206.784 206.447 207.969 206.447C208.822 206.447 209.474 206.245 209.924 205.842C210.374 205.415 210.599 204.869 210.599 204.205C210.599 203.635 210.398 203.173 209.995 202.817C209.616 202.461 209.13 202.188 208.537 201.998C207.969 201.809 207.151 201.583 206.084 201.322C204.615 200.99 203.418 200.658 202.494 200.326C201.593 199.97 200.811 199.412 200.147 198.653C199.508 197.894 199.188 196.85 199.188 195.521C199.188 193.813 199.839 192.425 201.143 191.357C202.446 190.29 204.248 189.756 206.547 189.756Z" fill="#1E1B39"/>
<path d="M253.786 184.88V209.721H248.809V192.389L242.445 209.721H238.108L231.745 192.461V209.721H226.732V184.88H232.811L240.348 203.564L247.742 184.88H253.786Z" fill="#1E1B39"/>
<path d="M267.426 189.756C269.345 189.756 271.064 190.159 272.581 190.966C274.121 191.773 275.33 192.947 276.207 194.489C277.084 196.008 277.522 197.799 277.522 199.863C277.522 201.927 277.084 203.718 276.207 205.237C275.33 206.755 274.121 207.93 272.581 208.76C271.064 209.567 269.345 209.97 267.426 209.97C265.506 209.97 263.776 209.567 262.235 208.76C260.719 207.93 259.522 206.755 258.645 205.237C257.768 203.718 257.329 201.927 257.329 199.863C257.329 197.799 257.768 196.008 258.645 194.489C259.522 192.947 260.719 191.773 262.235 190.966C263.776 190.159 265.506 189.756 267.426 189.756ZM267.426 194.098C266.027 194.098 264.842 194.596 263.871 195.592C262.899 196.565 262.413 197.989 262.413 199.863C262.413 201.737 262.899 203.173 263.871 204.169C264.842 205.142 266.027 205.628 267.426 205.628C268.824 205.628 270.009 205.142 270.981 204.169C271.953 203.173 272.438 201.737 272.438 199.863C272.438 197.989 271.953 196.565 270.981 195.592C270.009 194.596 268.824 194.098 267.426 194.098Z" fill="#1E1B39"/>
<path d="M292.796 189.72C295.072 189.72 296.885 190.468 298.236 191.962C299.587 193.457 300.262 195.557 300.262 198.262V209.721H295.285V198.831C295.285 197.265 294.882 196.055 294.076 195.201C293.27 194.323 292.168 193.884 290.77 193.884C289.348 193.884 288.21 194.347 287.357 195.272C286.504 196.197 286.077 197.526 286.077 199.258V209.721H281.065V190.005H286.077V193.955C286.599 192.627 287.452 191.595 288.637 190.859C289.846 190.1 291.232 189.72 292.796 189.72Z" fill="#1E1B39"/>
<path d="M315.196 205.415V209.721H312.565C310.361 209.721 308.666 209.187 307.481 208.12C306.32 207.052 305.739 205.273 305.739 202.781V194.24H303.002V190.005H305.739V185.129H310.752V190.005H315.16V194.24H310.752V202.852C310.752 203.802 310.941 204.466 311.321 204.845C311.7 205.225 312.34 205.415 313.24 205.415H315.196Z" fill="#1E1B39"/>
<path d="M330.534 189.72C332.81 189.72 334.623 190.468 335.974 191.962C337.325 193.457 338 195.557 338 198.262V209.721H333.023V198.831C333.023 197.265 332.62 196.055 331.814 195.201C331.008 194.323 329.906 193.884 328.508 193.884C327.086 193.884 325.948 194.347 325.095 195.272C324.242 196.197 323.815 197.526 323.815 199.258V209.721H318.803V183.385H323.815V193.955C324.337 192.627 325.19 191.595 326.375 190.859C327.584 190.1 328.97 189.72 330.534 189.72Z" fill="#1E1B39"/>
<path d="M158.633 146.926C158.509 145.878 158.006 145.065 157.125 144.486C156.243 143.907 155.162 143.617 153.881 143.617C152.945 143.617 152.125 143.769 151.423 144.072C150.727 144.376 150.183 144.793 149.791 145.323C149.405 145.854 149.212 146.457 149.212 147.133C149.212 147.698 149.347 148.184 149.615 148.591C149.891 148.991 150.242 149.325 150.669 149.594C151.096 149.856 151.543 150.073 152.012 150.245C152.48 150.411 152.91 150.545 153.303 150.649L155.451 151.228C156.002 151.372 156.615 151.572 157.29 151.827C157.972 152.082 158.622 152.431 159.242 152.872C159.869 153.306 160.385 153.864 160.791 154.547C161.198 155.229 161.401 156.067 161.401 157.06C161.401 158.204 161.101 159.238 160.502 160.162C159.91 161.085 159.042 161.82 157.899 162.364C156.763 162.909 155.382 163.181 153.757 163.181C152.242 163.181 150.93 162.936 149.822 162.447C148.72 161.957 147.852 161.275 147.219 160.399C146.592 159.524 146.238 158.507 146.155 157.349H148.799C148.868 158.149 149.137 158.811 149.605 159.334C150.08 159.851 150.679 160.237 151.402 160.493C152.132 160.741 152.917 160.865 153.757 160.865C154.735 160.865 155.613 160.706 156.391 160.389C157.169 160.065 157.786 159.617 158.24 159.045C158.695 158.466 158.922 157.79 158.922 157.018C158.922 156.315 158.726 155.743 158.333 155.302C157.941 154.861 157.424 154.502 156.784 154.226C156.143 153.951 155.451 153.709 154.708 153.503L152.105 152.758C150.452 152.282 149.144 151.603 148.179 150.721C147.215 149.839 146.733 148.684 146.733 147.257C146.733 146.071 147.054 145.037 147.694 144.155C148.341 143.266 149.209 142.576 150.297 142.087C151.392 141.591 152.614 141.342 153.964 141.342C155.327 141.342 156.539 141.587 157.6 142.077C158.66 142.559 159.5 143.221 160.12 144.062C160.747 144.903 161.077 145.858 161.112 146.926H158.633Z" fill="#9291A5"/>
<path d="M172.182 146.926V148.994H163.96V146.926H172.182ZM166.356 143.121H168.794V158.259C168.794 158.948 168.894 159.465 169.093 159.81C169.3 160.148 169.562 160.375 169.878 160.493C170.202 160.603 170.543 160.658 170.901 160.658C171.17 160.658 171.39 160.644 171.562 160.617C171.734 160.582 171.872 160.555 171.975 160.534L172.471 162.726C172.306 162.788 172.075 162.85 171.779 162.912C171.483 162.981 171.108 163.016 170.653 163.016C169.965 163.016 169.29 162.867 168.629 162.571C167.974 162.274 167.43 161.823 166.997 161.216C166.57 160.61 166.356 159.845 166.356 158.921V143.121Z" fill="#9291A5"/>
<path d="M180.518 163.181C179.512 163.181 178.6 162.991 177.78 162.612C176.961 162.226 176.31 161.671 175.828 160.947C175.346 160.217 175.105 159.334 175.105 158.3C175.105 157.39 175.284 156.653 175.642 156.088C176 155.515 176.479 155.067 177.078 154.743C177.677 154.419 178.338 154.178 179.061 154.02C179.791 153.854 180.524 153.723 181.261 153.627C182.225 153.503 183.007 153.409 183.606 153.347C184.212 153.279 184.653 153.165 184.928 153.006C185.21 152.848 185.352 152.572 185.352 152.179V152.096C185.352 151.076 185.073 150.283 184.515 149.718C183.964 149.153 183.127 148.87 182.005 148.87C180.841 148.87 179.929 149.125 179.268 149.635C178.607 150.145 178.142 150.69 177.873 151.269L175.56 150.442C175.973 149.477 176.524 148.725 177.212 148.188C177.908 147.643 178.665 147.264 179.485 147.05C180.311 146.83 181.123 146.719 181.922 146.719C182.432 146.719 183.017 146.781 183.678 146.905C184.346 147.023 184.99 147.267 185.61 147.64C186.236 148.012 186.756 148.574 187.169 149.325C187.583 150.076 187.789 151.083 187.789 152.344V162.809H185.352V160.658H185.228C185.062 161.003 184.787 161.371 184.401 161.764C184.016 162.157 183.503 162.492 182.862 162.767C182.222 163.043 181.44 163.181 180.518 163.181ZM180.889 160.989C181.853 160.989 182.666 160.799 183.327 160.42C183.995 160.041 184.498 159.552 184.835 158.952C185.179 158.352 185.352 157.721 185.352 157.06V154.826C185.248 154.95 185.021 155.064 184.67 155.167C184.326 155.264 183.926 155.35 183.472 155.426C183.024 155.495 182.587 155.557 182.16 155.612C181.74 155.66 181.399 155.702 181.137 155.736C180.504 155.819 179.912 155.953 179.361 156.139C178.817 156.319 178.376 156.591 178.039 156.956C177.708 157.315 177.543 157.804 177.543 158.424C177.543 159.272 177.856 159.913 178.483 160.348C179.116 160.775 179.918 160.989 180.889 160.989Z" fill="#9291A5"/>
<path d="M199.138 146.926V148.994H190.916V146.926H199.138ZM193.313 143.121H195.75V158.259C195.75 158.948 195.85 159.465 196.05 159.81C196.257 160.148 196.518 160.375 196.835 160.493C197.159 160.603 197.5 160.658 197.858 160.658C198.126 160.658 198.347 160.644 198.519 160.617C198.691 160.582 198.829 160.555 198.932 160.534L199.428 162.726C199.262 162.788 199.032 162.85 198.736 162.912C198.439 162.981 198.064 163.016 197.61 163.016C196.921 163.016 196.246 162.867 195.585 162.571C194.931 162.274 194.387 161.823 193.953 161.216C193.526 160.61 193.313 159.845 193.313 158.921V143.121Z" fill="#9291A5"/>
<path d="M202.805 162.809V146.926H205.243V162.809H202.805ZM204.045 144.279C203.57 144.279 203.16 144.117 202.816 143.793C202.478 143.469 202.309 143.08 202.309 142.625C202.309 142.17 202.478 141.78 202.816 141.456C203.16 141.132 203.57 140.97 204.045 140.97C204.52 140.97 204.926 141.132 205.264 141.456C205.608 141.78 205.78 142.17 205.78 142.625C205.78 143.08 205.608 143.469 205.264 143.793C204.926 144.117 204.52 144.279 204.045 144.279Z" fill="#9291A5"/>
<path d="M220.946 150.483L218.756 151.104C218.618 150.738 218.415 150.383 218.147 150.039C217.885 149.687 217.527 149.397 217.072 149.17C216.618 148.943 216.036 148.829 215.327 148.829C214.356 148.829 213.547 149.053 212.899 149.501C212.259 149.942 211.939 150.504 211.939 151.186C211.939 151.793 212.159 152.272 212.6 152.624C213.041 152.975 213.729 153.268 214.666 153.503L217.021 154.082C218.439 154.426 219.496 154.954 220.192 155.664C220.887 156.367 221.235 157.273 221.235 158.383C221.235 159.293 220.973 160.106 220.45 160.823C219.934 161.54 219.211 162.106 218.281 162.519C217.351 162.933 216.27 163.14 215.038 163.14C213.419 163.14 212.08 162.788 211.02 162.085C209.959 161.382 209.288 160.355 209.005 159.004L211.319 158.424C211.539 159.279 211.956 159.92 212.569 160.348C213.189 160.775 213.998 160.989 214.996 160.989C216.132 160.989 217.035 160.748 217.703 160.265C218.377 159.776 218.715 159.19 218.715 158.507C218.715 157.956 218.522 157.494 218.136 157.122C217.751 156.742 217.159 156.46 216.36 156.274L213.715 155.653C212.262 155.309 211.195 154.774 210.513 154.051C209.839 153.32 209.501 152.406 209.501 151.31C209.501 150.414 209.752 149.622 210.255 148.932C210.765 148.243 211.457 147.702 212.331 147.309C213.213 146.916 214.211 146.719 215.327 146.719C216.897 146.719 218.129 147.064 219.025 147.753C219.927 148.443 220.567 149.353 220.946 150.483Z" fill="#9291A5"/>
<path d="M231.804 146.926V148.994H223.582V146.926H231.804ZM225.979 143.121H228.416V158.259C228.416 158.948 228.516 159.465 228.716 159.81C228.923 160.148 229.184 160.375 229.501 160.493C229.825 160.603 230.166 160.658 230.524 160.658C230.792 160.658 231.012 160.644 231.185 160.617C231.357 160.582 231.495 160.555 231.598 160.534L232.094 162.726C231.928 162.788 231.698 162.85 231.402 162.912C231.105 162.981 230.73 163.016 230.276 163.016C229.587 163.016 228.912 162.867 228.251 162.571C227.597 162.274 227.053 161.823 226.619 161.216C226.192 160.61 225.979 159.845 225.979 158.921V143.121Z" fill="#9291A5"/>
<path d="M235.471 162.809V146.926H237.909V162.809H235.471ZM236.711 144.279C236.236 144.279 235.826 144.117 235.482 143.793C235.144 143.469 234.975 143.08 234.975 142.625C234.975 142.17 235.144 141.78 235.482 141.456C235.826 141.132 236.236 140.97 236.711 140.97C237.186 140.97 237.592 141.132 237.93 141.456C238.274 141.78 238.446 142.17 238.446 142.625C238.446 143.08 238.274 143.469 237.93 143.793C237.592 144.117 237.186 144.279 236.711 144.279Z" fill="#9291A5"/>
<path d="M248.819 163.14C247.332 163.14 246.051 162.788 244.977 162.085C243.902 161.382 243.076 160.413 242.498 159.179C241.919 157.945 241.63 156.536 241.63 154.95C241.63 153.337 241.926 151.914 242.518 150.68C243.117 149.439 243.951 148.47 245.018 147.774C246.092 147.071 247.345 146.719 248.778 146.719C249.893 146.719 250.899 146.926 251.794 147.34C252.689 147.753 253.422 148.332 253.994 149.077C254.566 149.821 254.92 150.69 255.058 151.683H252.62C252.434 150.959 252.021 150.318 251.381 149.759C250.747 149.194 249.893 148.911 248.819 148.911C247.869 148.911 247.036 149.16 246.319 149.656C245.61 150.145 245.056 150.838 244.656 151.734C244.264 152.624 244.068 153.668 244.068 154.867C244.068 156.094 244.261 157.163 244.646 158.073C245.039 158.983 245.59 159.689 246.299 160.193C247.015 160.696 247.855 160.947 248.819 160.947C249.453 160.947 250.028 160.837 250.544 160.617C251.061 160.396 251.498 160.079 251.856 159.665C252.214 159.252 252.469 158.755 252.62 158.176H255.058C254.92 159.114 254.579 159.958 254.035 160.71C253.498 161.454 252.786 162.047 251.897 162.488C251.016 162.922 249.99 163.14 248.819 163.14Z" fill="#9291A5"/>
<path d="M269.86 150.483L267.67 151.104C267.532 150.738 267.329 150.383 267.06 150.039C266.799 149.687 266.441 149.397 265.986 149.17C265.532 148.943 264.95 148.829 264.241 148.829C263.27 148.829 262.46 149.053 261.813 149.501C261.173 149.942 260.853 150.504 260.853 151.186C260.853 151.793 261.073 152.272 261.514 152.624C261.954 152.975 262.643 153.268 263.579 153.503L265.935 154.082C267.353 154.426 268.41 154.954 269.106 155.664C269.801 156.367 270.149 157.273 270.149 158.383C270.149 159.293 269.887 160.106 269.364 160.823C268.847 161.54 268.124 162.106 267.195 162.519C266.265 162.933 265.184 163.14 263.951 163.14C262.333 163.14 260.994 162.788 259.933 162.085C258.873 161.382 258.201 160.355 257.919 159.004L260.233 158.424C260.453 159.279 260.87 159.92 261.483 160.348C262.102 160.775 262.912 160.989 263.91 160.989C265.046 160.989 265.948 160.748 266.616 160.265C267.291 159.776 267.629 159.19 267.629 158.507C267.629 157.956 267.436 157.494 267.05 157.122C266.664 156.742 266.072 156.46 265.273 156.274L262.629 155.653C261.176 155.309 260.109 154.774 259.427 154.051C258.752 153.32 258.415 152.406 258.415 151.31C258.415 150.414 258.666 149.622 259.169 148.932C259.679 148.243 260.371 147.702 261.245 147.309C262.127 146.916 263.125 146.719 264.241 146.719C265.811 146.719 267.043 147.064 267.938 147.753C268.84 148.443 269.481 149.353 269.86 150.483Z" fill="#9291A5"/>
<defs>
<filter id="filter0_d_623_38" x="0" y="0.970215" width="934" height="707" filterUnits="userSpaceOnUse" color-interpolation-filters="sRGB">
<feFlood flood-opacity="0" result="BackgroundImageFix"/>
<feColorMatrix in="SourceAlpha" type="matrix" values="0 0 0 0 0 0 0 0 0 0 0 0 0 0 0 0 0 0 127 0" result="hardAlpha"/>
<feMorphology radius="2" operator="erode" in="SourceAlpha" result="effect1_dropShadow_623_38"/>
<feOffset dx="7" dy="5"/>
<feGaussianBlur stdDeviation="53.5"/>
<feComposite in2="hardAlpha" operator="out"/>
<feColorMatrix type="matrix" values="0 0 0 0 0.0509804 0 0 0 0 0.0392157 0 0 0 0 0.172549 0 0 0 0.08 0"/>
<feBlend mode="normal" in2="BackgroundImageFix" result="effect1_dropShadow_623_38"/>
<feBlend mode="normal" in="SourceGraphic" in2="effect1_dropShadow_623_38" result="shape"/>
</filter>
<linearGradient id="paint0_linear_623_38" x1="487.211" y1="292.749" x2="487.211" y2="507.895" gradientUnits="userSpaceOnUse">
<stop stop-color="#4DE800"/>
<stop offset="1" stop-color="#FFECED" stop-opacity="0"/>
</linearGradient>
</defs>
</svg>
