<svg width="254" height="48" viewBox="0 0 254 48" fill="none" xmlns="http://www.w3.org/2000/svg">
<path d="M14.1517 0L0 8.99981L14.1517 17.9996L28.3057 8.99981L42.4575 17.9996L56.6092 8.99981L42.4575 0L28.3057 8.99981L14.1517 0Z" fill="white"/>
<path d="M14.1517 35.9987L0 26.9987L14.1517 17.9988L28.3057 26.9987L14.1517 35.9987Z" fill="white"/>
<path d="M28.3062 26.9987L42.458 17.9988L56.6096 26.9987L42.458 35.9987L28.3062 26.9987Z" fill="white"/>
<path d="M28.3054 48L14.1514 39.0002L28.3054 30.0004L42.4572 39.0002L28.3054 48Z" fill="white"/>
<path fill-rule="evenodd" clip-rule="evenodd" d="M226.743 37.0538L236.211 24.3163L227.478 12.2811H234.957L240.016 19.7903L245.117 12.2811H252.553L243.691 24.2732L253.029 37.0538H245.679L239.929 28.9716L234.352 37.0538H226.743Z" fill="white"/>
<path fill-rule="evenodd" clip-rule="evenodd" d="M202.937 25.1619C202.937 33.338 207.403 37.6844 215.315 37.6844C222.716 37.6844 227.735 33.338 227.735 25.1619V24.4734C227.735 16.211 222.631 11.6495 215.315 11.6495C208.169 11.6495 202.937 16.1249 202.937 24.4734V25.1619ZM221.287 25.1637C221.287 29.6995 219.026 32.1619 215.315 32.1619C211.646 32.1619 209.384 29.6563 209.384 25.1637V24.559C209.384 19.7208 211.774 17.1721 215.357 17.1721C218.984 17.1721 221.287 19.8936 221.287 24.559V25.1637Z" fill="white"/>
<path fill-rule="evenodd" clip-rule="evenodd" d="M181.308 32.5236C182.65 35.7068 185.333 37.6854 189.445 37.6854C195.806 37.6854 199.961 33.0397 199.961 24.781V24.0497C199.961 15.791 195.547 11.7046 189.618 11.6616C185.679 11.6616 182.91 13.4252 181.525 16.6512V3.91895H175.163V37.0402H180.789L181.308 32.5236ZM193.513 24.8402C193.513 29.7506 191.244 32.1629 187.519 32.1629C183.965 32.1629 181.61 29.4921 181.61 24.8402V24.3233C181.61 20.059 184.051 17.1731 187.605 17.1731C191.03 17.1731 193.513 19.6713 193.513 24.2373V24.8402Z" fill="white"/>
<path fill-rule="evenodd" clip-rule="evenodd" d="M146.894 12.3099V45.5738H153.244V33.1166C154.583 36.0107 157.219 37.7814 161.193 37.7814C167.069 37.7814 171.692 33.5053 171.692 25.2987V24.6076C171.692 16.228 167.544 11.6495 161.193 11.6495C157.089 11.6495 154.324 13.766 152.985 16.9623L152.337 12.3099H146.894ZM165.244 25.1408C165.244 29.7067 162.889 32.1619 159.207 32.1619C155.653 32.1619 153.341 29.4051 153.341 25.0116V24.5376C153.341 19.9288 155.739 17.1721 159.335 17.1721C162.718 17.1721 165.244 19.6273 165.244 24.5808V25.1408Z" fill="white"/>
<path fill-rule="evenodd" clip-rule="evenodd" d="M118.624 25.1619C118.624 33.338 123.133 37.6844 131.044 37.6844C138.445 37.6844 143.422 33.338 143.422 25.1619V24.4734C143.422 16.211 138.36 11.6495 131.044 11.6495C123.898 11.6495 118.624 16.1249 118.624 24.4734V25.1619ZM136.974 25.1637C136.974 29.6995 134.671 32.1619 131.002 32.1619C127.333 32.1619 125.071 29.6563 125.071 25.1637V24.559C125.071 19.7208 127.461 17.1721 131.044 17.1721C134.671 17.1721 136.974 19.8936 136.974 24.559V25.1637Z" fill="white"/>
<path fill-rule="evenodd" clip-rule="evenodd" d="M101.265 37.0537H107.77V25.6733C107.77 20.4144 109.07 18.5608 114.447 18.5608H117.136V11.9655H115.531C110.892 11.9655 108.333 13.9915 107.336 17.9573L106.512 12.2796H101.265V37.0537Z" fill="white"/>
<path fill-rule="evenodd" clip-rule="evenodd" d="M72.5 6.44299V37.0537H84.3097C92.0025 37.0537 97.7939 32.5852 97.7939 22.7031V20.5978C97.7939 10.7587 91.6569 6.44299 84.1369 6.44299H72.5ZM78.9475 11.9655H83.8674C88.3108 11.9655 91.3464 14.7729 91.3464 20.9493V22.5474C91.3464 28.7237 88.3988 31.5312 84.0874 31.5312H78.9475V11.9655Z" fill="white"/>
</svg>
