<svg width="280" height="55" viewBox="0 0 280 55" fill="none" xmlns="http://www.w3.org/2000/svg">
<path fill-rule="evenodd" clip-rule="evenodd" d="M92.2726 12.8334H92.3814C92.9253 12.8334 93.2516 13.2648 93.2516 13.804V38.8241C93.2516 39.2555 92.9253 39.6868 92.3814 39.6868C91.9462 39.6868 91.5112 39.3634 91.5112 38.8241V13.6961C91.5112 13.2648 91.8375 12.8334 92.2726 12.8334ZM68.4511 14.1275H84.876C85.4199 14.1275 85.7462 14.6667 85.7462 15.0981C85.7462 15.5295 85.4199 15.9609 84.876 15.9609H69.3213V26.4218H83.3532C83.7882 26.4218 84.2234 26.7454 84.2234 27.2847C84.2234 27.716 83.8969 28.1474 83.3532 28.1474H69.43V38.932C69.3213 39.4712 68.8861 39.9026 68.3422 39.9026C67.7983 39.9026 67.3633 39.4712 67.3633 38.932V15.0981H67.472C67.472 14.5589 67.9072 14.1275 68.4511 14.1275ZM116.094 21.8923C116.094 21.3531 115.659 21.0296 115.224 21.0296C114.68 21.0296 114.354 21.461 114.354 21.8923V32.3534C114.354 35.9123 111.417 38.7162 107.827 38.6085C104.02 38.6085 101.845 36.1279 101.845 32.2455V21.8923C101.845 21.3531 101.41 21.0296 100.975 21.0296C100.539 21.0296 100.104 21.461 100.104 21.8923V32.569C100.104 36.9908 102.932 40.2261 107.61 40.2261C110.438 40.3339 113.157 38.8241 114.463 36.3437V39.0399C114.463 39.5791 114.898 39.9026 115.333 39.9026C115.877 39.9026 116.203 39.4712 116.203 39.0399H116.094V21.8923ZM132.628 22.0002C132.628 22.4316 132.193 22.7552 131.758 22.7552H125.775V34.726C125.775 37.4221 127.298 38.3927 129.582 38.3927C130.344 38.3927 131.105 38.2849 131.758 38.0691C132.193 38.0691 132.519 38.3927 132.519 38.8241C132.519 39.1476 132.302 39.4712 131.975 39.5791C131.105 39.9026 130.126 40.0103 129.256 40.0103C126.428 40.0103 124.035 38.3927 124.035 34.9417V22.7552H121.968C121.533 22.7552 121.098 22.3237 121.098 21.8923C121.098 21.461 121.533 21.1375 121.968 21.1375H124.035V15.9609C124.035 15.5295 124.361 15.0981 124.796 15.0981H124.905C125.34 15.0981 125.775 15.5295 125.775 15.9609V21.1375H131.758C132.193 21.1375 132.628 21.5688 132.628 22.0002ZM146.551 22.7552C146.986 22.7552 147.421 22.4316 147.421 22.0002C147.421 21.5688 146.986 21.1375 146.551 21.1375H140.568V15.9609C140.568 15.5295 140.133 15.0981 139.698 15.0981H139.59C139.154 15.0981 138.828 15.5295 138.828 15.9609V21.1375H136.761C136.326 21.1375 135.891 21.461 135.891 21.8923C135.891 22.3237 136.326 22.7552 136.761 22.7552H138.828V34.9417C138.828 38.3927 141.221 40.0103 144.049 40.0103C144.919 40.0103 145.898 39.9026 146.769 39.5791C147.095 39.4712 147.313 39.1476 147.313 38.8241C147.313 38.3927 146.986 38.0691 146.551 38.0691C145.898 38.2849 145.137 38.3927 144.376 38.3927C142.091 38.3927 140.568 37.4221 140.568 34.726V22.7552H146.551ZM150.684 30.4122C150.684 24.912 154.492 20.5982 159.604 20.5982C164.933 20.5982 168.307 24.912 168.307 30.4122C168.307 30.8436 167.871 31.2749 167.437 31.2749H152.642C152.969 35.9123 156.341 38.6085 160.039 38.6085C162.323 38.6085 164.608 37.6379 166.131 36.0202C166.239 35.9123 166.456 35.8044 166.675 35.8044C167.109 35.8044 167.545 36.2358 167.545 36.6672C167.545 36.8829 167.437 37.0985 167.218 37.3143C165.369 39.3633 162.65 40.4418 159.93 40.3339C154.927 40.3339 150.684 36.4515 150.684 30.5201V30.4122ZM152.534 29.5494C152.86 25.4512 155.797 22.3237 159.495 22.3237C163.738 22.3237 166.022 25.7748 166.239 29.5494H152.534ZM175.375 26.5297C176.573 23.4023 179.51 21.1375 182.882 20.9217C183.426 20.9217 183.86 21.3531 183.86 22.0002C183.86 22.4316 183.535 22.9708 182.99 22.9708H182.882C178.857 23.4023 175.375 26.3141 175.375 32.3534V39.2555C175.267 39.7947 174.941 40.1182 174.397 40.1182C173.963 40.1182 173.527 39.6868 173.527 39.2555V22.0002C173.635 21.461 173.963 21.1375 174.505 21.1375C174.941 21.1375 175.375 21.5688 175.375 22.0002V26.5297ZM212.577 19.9511C211.273 19.9511 210.184 20.814 209.858 22.1081L206.704 32.1377L203.549 22.1081C203.222 20.814 202.026 19.8434 200.612 19.8434H200.286C198.872 19.8434 197.674 20.7061 197.349 22.1081L194.194 32.0298L191.148 22.0002C190.822 20.814 189.734 19.8434 188.429 19.8434H188.321C186.906 19.8434 185.819 21.0296 185.819 22.4316C185.819 22.8629 185.928 23.2944 186.036 23.7256V23.7258L190.931 37.6379C191.257 39.0399 192.454 40.0105 193.977 40.1182H194.194C195.609 40.1182 196.804 39.1476 197.24 37.7456L200.395 27.8239L203.549 37.7456C203.875 39.1476 205.181 40.1182 206.595 40.1182H206.812C208.335 40.1182 209.639 39.1476 209.967 37.6379L214.861 23.6179C214.97 23.2944 215.078 22.8629 215.078 22.5394V22.4316C215.078 21.0296 213.991 19.9511 212.577 19.9511ZM220.192 20.9217C222.258 20.2746 224.325 19.8434 226.501 19.9511C229.545 19.9511 231.721 20.814 233.353 22.2158C234.876 23.9414 235.637 26.2062 235.529 28.4709V37.3143C235.529 38.8241 234.331 40.0103 232.81 40.0103C231.395 40.0103 230.198 39.0397 230.09 37.6379C228.567 39.2555 226.391 40.2261 224.108 40.1182C220.518 40.1182 217.363 37.9614 217.363 34.079C217.363 29.7651 220.626 27.7161 225.304 27.7161C226.935 27.7161 228.567 27.9318 230.09 28.4709V28.1474C230.09 25.7747 228.675 24.5885 225.848 24.5885C224.542 24.5885 223.238 24.6964 221.932 25.1277C221.715 25.2356 221.388 25.2356 221.17 25.2356C219.865 25.3435 218.777 24.3729 218.777 23.0787C218.777 22.1081 219.322 21.2452 220.192 20.9217ZM230.198 32.7848C230.198 34.9417 228.35 36.2358 225.739 36.1279C223.998 36.1279 222.693 35.2652 222.693 33.7554V33.6475C222.693 32.0298 224.216 30.9513 226.609 30.9513C227.805 30.9513 229.111 31.2749 230.198 31.7063V32.7848ZM252.28 21.7846C252.606 20.5982 253.694 19.8434 254.89 19.8434C256.413 19.8434 257.61 21.0296 257.61 22.4316V22.5394C257.61 22.9708 257.5 23.4023 257.283 23.8335L251.41 37.7456C250.865 39.1476 249.561 40.0105 248.147 40.1182H247.819C246.296 40.0105 245.101 39.0399 244.665 37.6379L238.575 23.7258C238.356 23.2944 238.247 22.8629 238.247 22.4316C238.356 20.9217 239.553 19.8434 240.968 19.8434C242.272 19.8434 243.361 20.7061 243.686 21.8923L247.928 33.2161L252.28 21.7846ZM259.785 30.8436C260.003 36.2358 264.681 40.4418 270.118 40.1182C272.62 40.1182 275.013 39.3633 276.972 37.7456C277.516 37.3143 277.733 36.775 277.733 36.1279V36.0202C277.733 34.8338 276.755 33.8632 275.557 33.8632C275.123 33.8632 274.579 33.9711 274.253 34.2946C273.056 35.1573 271.641 35.6966 270.227 35.5887C267.834 35.6966 265.768 34.079 265.441 31.7063H276.646C278.059 31.5984 279.148 30.4122 279.039 29.0101V28.5788C279.039 23.7258 274.796 19.6276 269.576 19.7355C263.809 19.7355 259.785 24.3729 259.785 29.9807V30.8436ZM269.576 24.265C267.291 24.265 265.768 25.8826 265.332 28.4709H273.709C273.381 25.9905 271.86 24.265 269.576 24.265Z" fill="white"/>
<path fill-rule="evenodd" clip-rule="evenodd" d="M39.2997 0.430193C63.7739 -3.23655 48.1103 17.5777 40.4962 23.4013C45.7173 27.3915 51.0473 32.9995 53.3316 39.3624C57.5738 51.0097 47.1314 52.7352 39.2997 49.8234C30.7065 46.8037 23.0922 40.333 18.0887 32.7839C16.6746 32.7839 15.1518 32.5681 13.7377 32.1368C16.5659 40.1173 17.7624 48.3136 17.0009 55C17.0009 41.5194 10.5832 28.1465 1.33739 17.0383C-1.92584 13.156 1.44617 10.2441 4.38308 14.0187C6.36012 16.7523 8.17606 19.597 9.82179 22.5385C12.9763 11.5383 28.6398 1.94003 39.2997 0.430193ZM35.8189 20.2737C40.6049 17.3619 55.1807 1.72435 41.5839 3.12633C33.7521 3.9891 24.2889 11.2147 20.3729 15.8521C25.8117 15.205 31.3591 17.5777 35.8189 20.2737ZM20.2641 19.3031C23.9624 18.9796 27.9871 20.9208 31.0328 22.862C28.0959 24.264 24.8326 25.1268 21.4607 25.3426C16.457 25.3426 15.4781 19.7345 20.2641 19.3031ZM22.3309 32.3525C26.6819 37.2055 32.6645 41.9506 39.0821 43.6762C42.7804 44.6468 46.9138 44.2154 45.391 38.9311C43.8682 34.078 39.9523 29.7642 36.1452 26.5288C35.0575 27.2838 33.861 28.0386 32.6645 28.5779C29.4013 30.4112 25.9204 31.7054 22.3309 32.3525Z" fill="white"/>
</svg>
