<svg width="182" height="44" viewBox="0 0 182 44" fill="none" xmlns="http://www.w3.org/2000/svg">
<g id="Vector">
<path d="M23.9275 19.6134C23.9275 20.2209 23.8549 20.9152 23.7096 21.6963H6.01457C6.10174 23.8369 6.68286 25.4135 7.75792 26.426C8.83299 27.4385 10.1696 27.9448 11.7676 27.9448C13.1914 27.9448 14.3681 27.5976 15.2979 26.9034C16.2568 26.2091 16.8669 25.2689 17.1285 24.0828H23.6224C23.3028 25.7607 22.62 27.265 21.574 28.5957C20.528 29.9264 19.1769 30.9678 17.5207 31.7199C15.8936 32.4721 14.0776 32.8481 12.0727 32.8481C9.7192 32.8481 7.62717 32.3563 5.79665 31.3728C3.96613 30.3603 2.54239 28.9283 1.52543 27.0769C0.508478 25.2255 0 23.0414 0 20.5247C0 18.0079 0.508478 15.8238 1.52543 13.9724C2.54239 12.092 3.96613 10.6601 5.79665 9.67653C7.62717 8.69296 9.7192 8.20118 12.0727 8.20118C14.4553 8.20118 16.5328 8.69296 18.3052 9.67653C20.1067 10.6601 21.4868 12.0197 22.4457 13.7554C23.4336 15.4622 23.9275 17.4149 23.9275 19.6134ZM17.7386 19.0059C17.8258 17.0388 17.3028 15.549 16.1696 14.5365C15.0655 13.524 13.6999 13.0178 12.0727 13.0178C10.4165 13.0178 9.02186 13.524 7.88868 14.5365C6.7555 15.549 6.13079 17.0388 6.01457 19.0059H17.7386Z" fill="white"/>
<path d="M51.3894 8.50493V32.5444H45.2441V27.6844C44.6049 29.3044 43.5443 30.5772 42.0625 31.503C40.6097 32.3997 38.9245 32.8481 37.0068 32.8481C34.2174 32.8481 31.9946 31.9369 30.3384 30.1144C28.6823 28.2919 27.8542 25.7462 27.8542 22.4773V8.50493H33.9559V21.783C33.9559 23.6923 34.4498 25.1821 35.4377 26.2525C36.4257 27.2939 37.7622 27.8146 39.4475 27.8146C41.2199 27.8146 42.6291 27.2505 43.6751 26.1223C44.7211 24.9941 45.2441 23.3741 45.2441 21.2623V8.50493H51.3894Z" fill="white"/>
<path d="M63.1223 13.1045C64.0231 11.5713 65.2144 10.3708 66.6962 9.50296C68.1781 8.60618 69.8343 8.15779 71.6648 8.15779V14.7101H69.8778C65.3742 14.7101 63.1223 16.7929 63.1223 20.9586V32.5444H56.977V8.50493H63.1223V13.1045Z" fill="white"/>
<path d="M86.2235 8.20118C88.577 8.20118 90.6836 8.69296 92.5431 9.67653C94.4318 10.6601 95.9136 12.092 96.9887 13.9724C98.0638 15.8238 98.6013 18.0079 98.6013 20.5247C98.6013 23.0414 98.0638 25.2255 96.9887 27.0769C95.9136 28.9283 94.4318 30.3603 92.5431 31.3728C90.6836 32.3563 88.577 32.8481 86.2235 32.8481C83.87 32.8481 81.7489 32.3563 79.8602 31.3728C78.0007 30.3603 76.5333 28.9283 75.4583 27.0769C74.3832 25.2255 73.8457 23.0414 73.8457 20.5247C73.8457 18.0079 74.3832 15.8238 75.4583 13.9724C76.5333 12.092 78.0007 10.6601 79.8602 9.67653C81.7489 8.69296 83.87 8.20118 86.2235 8.20118ZM86.2235 13.4951C84.5092 13.4951 83.0564 14.1026 81.8651 15.3176C80.6738 16.5036 80.0782 18.2393 80.0782 20.5247C80.0782 22.81 80.6738 24.5602 81.8651 25.7751C83.0564 26.9612 84.5092 27.5542 86.2235 27.5542C87.9378 27.5542 89.3906 26.9612 90.5819 25.7751C91.7732 24.5602 92.3688 22.81 92.3688 20.5247C92.3688 18.2393 91.7732 16.5036 90.5819 15.3176C89.3906 14.1026 87.9378 13.4951 86.2235 13.4951Z" fill="white"/>
<path d="M117.371 8.20118C119.405 8.20118 121.235 8.69296 122.862 9.67653C124.489 10.6601 125.753 12.092 126.654 13.9724C127.584 15.8238 128.049 18.0079 128.049 20.5247C128.049 23.0414 127.584 25.24 126.654 27.1203C125.753 28.9717 124.489 30.3892 122.862 31.3728C121.235 32.3563 119.405 32.8481 117.371 32.8481C115.337 32.8481 113.593 32.3708 112.141 31.4162C110.717 30.4326 109.7 29.1308 109.09 27.5108V44H102.944V8.50493H109.09V13.4951C109.7 11.8751 110.717 10.5878 112.141 9.63314C113.593 8.6785 115.337 8.20118 117.371 8.20118ZM115.453 13.5385C113.593 13.5385 112.053 14.1749 110.833 15.4477C109.642 16.6916 109.046 18.384 109.046 20.5247C109.046 22.6364 109.642 24.3287 110.833 25.6016C112.053 26.8455 113.593 27.4675 115.453 27.4675C117.371 27.4675 118.911 26.86 120.073 25.645C121.235 24.4011 121.816 22.6943 121.816 20.5247C121.816 18.355 121.235 16.6483 120.073 15.4043C118.911 14.1604 117.371 13.5385 115.453 13.5385Z" fill="white"/>
<path d="M155.105 19.6134C155.105 20.2209 155.032 20.9152 154.887 21.6963H137.192C137.279 23.8369 137.86 25.4135 138.935 26.426C140.01 27.4385 141.347 27.9448 142.945 27.9448C144.369 27.9448 145.545 27.5976 146.475 26.9034C147.434 26.2091 148.044 25.2689 148.306 24.0828H154.8C154.48 25.7607 153.797 27.265 152.751 28.5957C151.705 29.9264 150.354 30.9678 148.698 31.7199C147.071 32.4721 145.255 32.8481 143.25 32.8481C140.896 32.8481 138.804 32.3563 136.974 31.3728C135.143 30.3603 133.72 28.9283 132.703 27.0769C131.686 25.2255 131.177 23.0414 131.177 20.5247C131.177 18.0079 131.686 15.8238 132.703 13.9724C133.72 12.092 135.143 10.6601 136.974 9.67653C138.804 8.69296 140.896 8.20118 143.25 8.20118C145.632 8.20118 147.71 8.69296 149.482 9.67653C151.284 10.6601 152.664 12.0197 153.623 13.7554C154.611 15.4622 155.105 17.4149 155.105 19.6134ZM148.916 19.0059C149.003 17.0388 148.48 15.549 147.347 14.5365C146.243 13.524 144.877 13.0178 143.25 13.0178C141.594 13.0178 140.199 13.524 139.066 14.5365C137.933 15.549 137.308 17.0388 137.192 19.0059H148.916Z" fill="white"/>
<path d="M170.32 8.20118C173.429 8.20118 176.014 9.0401 178.077 10.7179C180.169 12.3958 181.477 14.6811 182 17.574H175.506C175.244 16.3011 174.649 15.3031 173.719 14.5799C172.789 13.8277 171.613 13.4517 170.189 13.4517C168.562 13.4517 167.196 14.0592 166.092 15.2742C165.017 16.4602 164.479 18.2104 164.479 20.5247C164.479 22.8389 165.017 24.6035 166.092 25.8185C167.196 27.0046 168.562 27.5976 170.189 27.5976C171.613 27.5976 172.789 27.236 173.719 26.5128C174.649 25.7607 175.244 24.7482 175.506 23.4753H182C181.477 26.3682 180.169 28.6535 178.077 30.3314C176.014 32.0092 173.429 32.8481 170.32 32.8481C167.966 32.8481 165.874 32.3563 164.043 31.3728C162.213 30.3603 160.789 28.9283 159.772 27.0769C158.755 25.2255 158.247 23.0414 158.247 20.5247C158.247 18.0079 158.755 15.8238 159.772 13.9724C160.789 12.092 162.213 10.6601 164.043 9.67653C165.874 8.69296 167.966 8.20118 170.32 8.20118Z" fill="white"/>
<path d="M161.87 0H176.398V3.61604H161.87V0Z" fill="white"/>
</g>
</svg>
