<svg width="27" height="27" viewBox="0 0 27 27" fill="none" xmlns="http://www.w3.org/2000/svg">
<circle cx="13.5" cy="13.5" r="13.5" fill="#9DFA6F"/>
<path d="M20.7022 9.26045C20.6162 9.17792 20.5139 9.11242 20.4012 9.06772C20.2885 9.02301 20.1676 9 20.0454 9C19.9233 9 19.8024 9.02301 19.6897 9.06772C19.577 9.11242 19.4747 9.17792 19.3887 9.26045L12.4973 15.8289L9.60205 13.0642C9.51277 12.9821 9.40737 12.9175 9.29188 12.8742C9.17638 12.8309 9.05306 12.8096 8.92894 12.8117C8.80482 12.8137 8.68234 12.839 8.56849 12.8861C8.45464 12.9332 8.35165 13.0012 8.26541 13.0862C8.17916 13.1712 8.11134 13.2715 8.06583 13.3814C8.02032 13.4913 7.99799 13.6087 8.00014 13.7269C8.00229 13.845 8.02886 13.9616 8.07834 14.07C8.12783 14.1784 8.19925 14.2764 8.28853 14.3585L11.8406 17.7396C11.9266 17.8221 12.0289 17.8876 12.1416 17.9323C12.2543 17.977 12.3752 18 12.4973 18C12.6195 18 12.7404 17.977 12.8531 17.9323C12.9658 17.8876 13.0681 17.8221 13.1541 17.7396L20.7022 10.5548C20.7961 10.4723 20.871 10.3722 20.9223 10.2609C20.9735 10.1495 21 10.0292 21 9.90761C21 9.78601 20.9735 9.66573 20.9223 9.55435C20.871 9.44297 20.7961 9.3429 20.7022 9.26045Z" fill="black"/>
</svg>
