<svg width="934" height="859" viewBox="0 0 934 859" fill="none" xmlns="http://www.w3.org/2000/svg">
<g filter="url(#filter0_d_644_76)">
<rect x="98" y="251.97" width="724" height="497" rx="20" fill="white"/>
</g>
<path d="M307.591 702.238V700.967L312.361 695.745C312.921 695.134 313.382 694.602 313.744 694.151C314.106 693.694 314.374 693.266 314.549 692.866C314.727 692.462 314.817 692.038 314.817 691.596C314.817 691.088 314.694 690.648 314.45 690.277C314.21 689.905 313.881 689.618 313.462 689.416C313.043 689.213 312.573 689.112 312.05 689.112C311.495 689.112 311.011 689.227 310.597 689.458C310.188 689.684 309.87 690.001 309.644 690.411C309.423 690.82 309.313 691.3 309.313 691.85H307.647C307.647 691.003 307.842 690.26 308.233 689.62C308.623 688.98 309.155 688.482 309.828 688.124C310.505 687.767 311.265 687.588 312.107 687.588C312.954 687.588 313.704 687.767 314.358 688.124C315.012 688.482 315.525 688.964 315.896 689.571C316.268 690.178 316.454 690.853 316.454 691.596C316.454 692.128 316.357 692.648 316.165 693.156C315.976 693.659 315.647 694.221 315.177 694.842C314.711 695.458 314.064 696.211 313.236 697.1L309.99 700.572V700.685H316.708V702.238H307.591Z" fill="#615E83"/>
<path d="M324.336 702.435C323.273 702.435 322.367 702.146 321.619 701.567C320.871 700.984 320.3 700.139 319.905 699.034C319.509 697.924 319.312 696.583 319.312 695.012C319.312 693.45 319.509 692.116 319.905 691.01C320.304 689.9 320.878 689.053 321.626 688.47C322.379 687.882 323.282 687.588 324.336 687.588C325.39 687.588 326.291 687.882 327.039 688.47C327.792 689.053 328.365 689.9 328.761 691.01C329.161 692.116 329.361 693.45 329.361 695.012C329.361 696.583 329.163 697.924 328.768 699.034C328.373 700.139 327.801 700.984 327.053 701.567C326.305 702.146 325.399 702.435 324.336 702.435ZM324.336 700.883C325.39 700.883 326.209 700.375 326.792 699.358C327.375 698.342 327.667 696.893 327.667 695.012C327.667 693.76 327.533 692.695 327.265 691.815C327.001 690.935 326.62 690.265 326.121 689.804C325.628 689.343 325.032 689.112 324.336 689.112C323.292 689.112 322.476 689.627 321.887 690.658C321.299 691.683 321.005 693.135 321.005 695.012C321.005 696.263 321.137 697.326 321.401 698.201C321.664 699.076 322.043 699.742 322.537 700.198C323.035 700.655 323.635 700.883 324.336 700.883Z" fill="#615E83"/>
<path d="M337.123 687.786V702.238H335.373V689.62H335.288L331.76 691.963V690.185L335.373 687.786H337.123Z" fill="#615E83"/>
<path d="M345.908 702.435C344.939 702.435 344.083 702.263 343.34 701.92C342.601 701.572 342.025 701.094 341.611 700.488C341.197 699.876 340.992 699.18 340.997 698.399C340.992 697.787 341.112 697.223 341.357 696.705C341.601 696.183 341.935 695.748 342.359 695.4C342.787 695.047 343.264 694.823 343.791 694.729V694.645C343.1 694.466 342.549 694.078 342.14 693.48C341.731 692.878 341.529 692.194 341.533 691.427C341.529 690.693 341.714 690.037 342.091 689.458C342.467 688.879 342.985 688.423 343.643 688.089C344.307 687.755 345.062 687.588 345.908 687.588C346.746 687.588 347.494 687.755 348.152 688.089C348.811 688.423 349.329 688.879 349.705 689.458C350.086 690.037 350.279 690.693 350.284 691.427C350.279 692.194 350.069 692.878 349.655 693.48C349.246 694.078 348.703 694.466 348.025 694.645V694.729C348.548 694.823 349.018 695.047 349.437 695.4C349.855 695.748 350.189 696.183 350.439 696.705C350.688 697.223 350.815 697.787 350.82 698.399C350.815 699.18 350.603 699.876 350.185 700.488C349.771 701.094 349.194 701.572 348.456 701.92C347.722 702.263 346.873 702.435 345.908 702.435ZM345.908 700.883C346.562 700.883 347.127 700.777 347.602 700.565C348.077 700.353 348.444 700.055 348.703 699.669C348.962 699.283 349.093 698.832 349.098 698.314C349.093 697.768 348.952 697.286 348.675 696.867C348.397 696.449 348.018 696.119 347.538 695.88C347.063 695.64 346.52 695.52 345.908 695.52C345.292 695.52 344.742 695.64 344.257 695.88C343.777 696.119 343.399 696.449 343.121 696.867C342.848 697.286 342.714 697.768 342.719 698.314C342.714 698.832 342.839 699.283 343.093 699.669C343.352 700.055 343.721 700.353 344.201 700.565C344.68 700.777 345.25 700.883 345.908 700.883ZM345.908 694.024C346.426 694.024 346.885 693.92 347.284 693.713C347.689 693.506 348.007 693.217 348.237 692.845C348.468 692.474 348.585 692.038 348.59 691.54C348.585 691.05 348.47 690.625 348.244 690.262C348.018 689.896 347.705 689.613 347.306 689.416C346.906 689.213 346.44 689.112 345.908 689.112C345.367 689.112 344.895 689.213 344.49 689.416C344.085 689.613 343.773 689.896 343.551 690.262C343.33 690.625 343.222 691.05 343.227 691.54C343.222 692.038 343.333 692.474 343.559 692.845C343.789 693.217 344.107 693.506 344.511 693.713C344.916 693.92 345.381 694.024 345.908 694.024Z" fill="#615E83"/>
<path d="M202.76 702.238V700.967L207.53 695.745C208.09 695.134 208.551 694.602 208.913 694.151C209.275 693.694 209.544 693.266 209.718 692.866C209.896 692.462 209.986 692.038 209.986 691.596C209.986 691.088 209.863 690.648 209.619 690.277C209.379 689.905 209.05 689.618 208.631 689.416C208.212 689.213 207.742 689.112 207.22 689.112C206.664 689.112 206.18 689.227 205.766 689.458C205.357 689.684 205.039 690.001 204.813 690.411C204.592 690.82 204.482 691.3 204.482 691.85H202.816C202.816 691.003 203.011 690.26 203.402 689.62C203.792 688.98 204.324 688.482 204.997 688.124C205.674 687.767 206.434 687.588 207.276 687.588C208.123 687.588 208.873 687.767 209.527 688.124C210.181 688.482 210.694 688.964 211.065 689.571C211.437 690.178 211.623 690.853 211.623 691.596C211.623 692.128 211.526 692.648 211.334 693.156C211.145 693.659 210.816 694.221 210.346 694.842C209.88 695.458 209.233 696.211 208.405 697.1L205.159 700.572V700.685H211.877V702.238H202.76Z" fill="#615E83"/>
<path d="M219.505 702.435C218.442 702.435 217.536 702.146 216.788 701.567C216.04 700.984 215.469 700.139 215.074 699.034C214.678 697.924 214.481 696.583 214.481 695.012C214.481 693.45 214.678 692.116 215.074 691.01C215.474 689.9 216.047 689.053 216.795 688.47C217.548 687.882 218.451 687.588 219.505 687.588C220.559 687.588 221.46 687.882 222.208 688.47C222.961 689.053 223.535 689.9 223.93 691.01C224.33 692.116 224.53 693.45 224.53 695.012C224.53 696.583 224.332 697.924 223.937 699.034C223.542 700.139 222.97 700.984 222.222 701.567C221.474 702.146 220.568 702.435 219.505 702.435ZM219.505 700.883C220.559 700.883 221.378 700.375 221.961 699.358C222.544 698.342 222.836 696.893 222.836 695.012C222.836 693.76 222.702 692.695 222.434 691.815C222.17 690.935 221.789 690.265 221.291 689.804C220.797 689.343 220.201 689.112 219.505 689.112C218.461 689.112 217.645 689.627 217.057 690.658C216.468 691.683 216.174 693.135 216.174 695.012C216.174 696.263 216.306 697.326 216.57 698.201C216.833 699.076 217.212 699.742 217.706 700.198C218.204 700.655 218.804 700.883 219.505 700.883Z" fill="#615E83"/>
<path d="M232.292 687.786V702.238H230.542V689.62H230.457L226.929 691.963V690.185L230.542 687.786H232.292Z" fill="#615E83"/>
<path d="M236.9 702.238L243.364 689.451V689.338H235.912V687.786H245.17V689.423L238.735 702.238H236.9Z" fill="#615E83"/>
<path d="M412.79 702.238V700.967L417.56 695.745C418.12 695.134 418.581 694.602 418.943 694.151C419.306 693.694 419.574 693.266 419.748 692.866C419.927 692.462 420.016 692.038 420.016 691.596C420.016 691.088 419.894 690.648 419.649 690.277C419.409 689.905 419.08 689.618 418.661 689.416C418.242 689.213 417.772 689.112 417.25 689.112C416.695 689.112 416.21 689.227 415.796 689.458C415.387 689.684 415.069 690.001 414.844 690.411C414.622 690.82 414.512 691.3 414.512 691.85H412.846C412.846 691.003 413.042 690.26 413.432 689.62C413.823 688.98 414.354 688.482 415.027 688.124C415.704 687.767 416.464 687.588 417.306 687.588C418.153 687.588 418.903 687.767 419.557 688.124C420.211 688.482 420.724 688.964 421.096 689.571C421.467 690.178 421.653 690.853 421.653 691.596C421.653 692.128 421.557 692.648 421.364 693.156C421.176 693.659 420.846 694.221 420.376 694.842C419.91 695.458 419.263 696.211 418.435 697.1L415.189 700.572V700.685H421.907V702.238H412.79Z" fill="#615E83"/>
<path d="M429.535 702.435C428.472 702.435 427.567 702.146 426.819 701.567C426.071 700.984 425.499 700.139 425.104 699.034C424.709 697.924 424.511 696.583 424.511 695.012C424.511 693.45 424.709 692.116 425.104 691.01C425.504 689.9 426.078 689.053 426.826 688.47C427.578 687.882 428.482 687.588 429.535 687.588C430.589 687.588 431.49 687.882 432.238 688.47C432.991 689.053 433.565 689.9 433.96 691.01C434.36 692.116 434.56 693.45 434.56 695.012C434.56 696.583 434.362 697.924 433.967 699.034C433.572 700.139 433 700.984 432.252 701.567C431.504 702.146 430.599 702.435 429.535 702.435ZM429.535 700.883C430.589 700.883 431.408 700.375 431.991 699.358C432.575 698.342 432.866 696.893 432.866 695.012C432.866 693.76 432.732 692.695 432.464 691.815C432.201 690.935 431.819 690.265 431.321 689.804C430.827 689.343 430.232 689.112 429.535 689.112C428.491 689.112 427.675 689.627 427.087 690.658C426.499 691.683 426.205 693.135 426.205 695.012C426.205 696.263 426.336 697.326 426.6 698.201C426.863 699.076 427.242 699.742 427.736 700.198C428.235 700.655 428.835 700.883 429.535 700.883Z" fill="#615E83"/>
<path d="M442.322 687.786V702.238H440.572V689.62H440.487L436.959 691.963V690.185L440.572 687.786H442.322Z" fill="#615E83"/>
<path d="M451.079 687.588C451.672 687.593 452.265 687.706 452.858 687.927C453.451 688.148 453.992 688.515 454.481 689.028C454.97 689.536 455.363 690.23 455.659 691.109C455.956 691.989 456.104 693.092 456.104 694.419C456.104 695.703 455.982 696.844 455.737 697.841C455.497 698.834 455.149 699.671 454.693 700.353C454.241 701.036 453.69 701.553 453.041 701.906C452.397 702.259 451.668 702.435 450.854 702.435C450.045 702.435 449.322 702.275 448.687 701.955C448.057 701.631 447.539 701.181 447.135 700.608C446.735 700.029 446.479 699.358 446.366 698.596H448.087C448.243 699.26 448.551 699.808 449.012 700.241C449.478 700.669 450.092 700.883 450.854 700.883C451.969 700.883 452.848 700.396 453.493 699.422C454.142 698.448 454.467 697.072 454.467 695.294H454.354C454.09 695.689 453.777 696.03 453.415 696.317C453.053 696.604 452.651 696.825 452.209 696.98C451.766 697.136 451.296 697.213 450.797 697.213C449.969 697.213 449.209 697.009 448.518 696.599C447.831 696.185 447.281 695.618 446.867 694.899C446.457 694.174 446.253 693.346 446.253 692.415C446.253 691.53 446.45 690.721 446.845 689.987C447.245 689.249 447.805 688.661 448.525 688.223C449.249 687.786 450.101 687.574 451.079 687.588ZM451.079 689.14C450.487 689.14 449.953 689.289 449.478 689.585C449.007 689.877 448.633 690.272 448.356 690.771C448.083 691.264 447.946 691.813 447.946 692.415C447.946 693.017 448.078 693.565 448.341 694.059C448.61 694.548 448.974 694.939 449.435 695.23C449.901 695.517 450.43 695.661 451.023 695.661C451.47 695.661 451.886 695.574 452.272 695.4C452.658 695.221 452.994 694.979 453.281 694.673C453.573 694.362 453.801 694.012 453.966 693.621C454.13 693.226 454.213 692.815 454.213 692.387C454.213 691.822 454.076 691.293 453.803 690.799C453.535 690.305 453.164 689.905 452.688 689.599C452.218 689.293 451.682 689.14 451.079 689.14Z" fill="#615E83"/>
<path d="M516.66 702.238V700.967L521.431 695.745C521.991 695.134 522.452 694.602 522.814 694.151C523.176 693.694 523.444 693.266 523.618 692.866C523.797 692.462 523.886 692.038 523.886 691.596C523.886 691.088 523.764 690.648 523.519 690.277C523.28 689.905 522.95 689.618 522.532 689.416C522.113 689.213 521.642 689.112 521.12 689.112C520.565 689.112 520.081 689.227 519.667 689.458C519.257 689.684 518.94 690.001 518.714 690.411C518.493 690.82 518.382 691.3 518.382 691.85H516.717C516.717 691.003 516.912 690.26 517.303 689.62C517.693 688.98 518.225 688.482 518.897 688.124C519.575 687.767 520.335 687.588 521.177 687.588C522.023 687.588 522.774 687.767 523.428 688.124C524.082 688.482 524.594 688.964 524.966 689.571C525.338 690.178 525.524 690.853 525.524 691.596C525.524 692.128 525.427 692.648 525.234 693.156C525.046 693.659 524.717 694.221 524.246 694.842C523.781 695.458 523.134 696.211 522.306 697.1L519.06 700.572V700.685H525.778V702.238H516.66Z" fill="#615E83"/>
<path d="M533.406 702.435C532.343 702.435 531.437 702.146 530.689 701.567C529.941 700.984 529.369 700.139 528.974 699.034C528.579 697.924 528.382 696.583 528.382 695.012C528.382 693.45 528.579 692.116 528.974 691.01C529.374 689.9 529.948 689.053 530.696 688.47C531.449 687.882 532.352 687.588 533.406 687.588C534.46 687.588 535.361 687.882 536.109 688.47C536.861 689.053 537.435 689.9 537.83 691.01C538.23 692.116 538.43 693.45 538.43 695.012C538.43 696.583 538.233 697.924 537.837 699.034C537.442 700.139 536.871 700.984 536.123 701.567C535.375 702.146 534.469 702.435 533.406 702.435ZM533.406 700.883C534.46 700.883 535.278 700.375 535.862 699.358C536.445 698.342 536.737 696.893 536.737 695.012C536.737 693.76 536.603 692.695 536.334 691.815C536.071 690.935 535.69 690.265 535.191 689.804C534.697 689.343 534.102 689.112 533.406 689.112C532.361 689.112 531.545 689.627 530.957 690.658C530.369 691.683 530.075 693.135 530.075 695.012C530.075 696.263 530.207 697.326 530.47 698.201C530.734 699.076 531.112 699.742 531.606 700.198C532.105 700.655 532.705 700.883 533.406 700.883Z" fill="#615E83"/>
<path d="M541.112 702.238V700.967L545.882 695.745C546.442 695.134 546.903 694.602 547.265 694.151C547.627 693.694 547.896 693.266 548.07 692.866C548.248 692.462 548.338 692.038 548.338 691.596C548.338 691.088 548.215 690.648 547.971 690.277C547.731 689.905 547.402 689.618 546.983 689.416C546.564 689.213 546.094 689.112 545.572 689.112C545.016 689.112 544.532 689.227 544.118 689.458C543.709 689.684 543.391 690.001 543.165 690.411C542.944 690.82 542.834 691.3 542.834 691.85H541.168C541.168 691.003 541.363 690.26 541.754 689.62C542.144 688.98 542.676 688.482 543.349 688.124C544.026 687.767 544.786 687.588 545.628 687.588C546.475 687.588 547.225 687.767 547.879 688.124C548.533 688.482 549.046 688.964 549.417 689.571C549.789 690.178 549.975 690.853 549.975 691.596C549.975 692.128 549.878 692.648 549.686 693.156C549.497 693.659 549.168 694.221 548.698 694.842C548.232 695.458 547.585 696.211 546.757 697.1L543.511 700.572V700.685H550.229V702.238H541.112Z" fill="#615E83"/>
<path d="M557.857 702.435C556.794 702.435 555.888 702.146 555.14 701.567C554.392 700.984 553.821 700.139 553.426 699.034C553.03 697.924 552.833 696.583 552.833 695.012C552.833 693.45 553.03 692.116 553.426 691.01C553.825 689.9 554.399 689.053 555.147 688.47C555.9 687.882 556.803 687.588 557.857 687.588C558.911 687.588 559.812 687.882 560.56 688.47C561.313 689.053 561.887 689.9 562.282 691.01C562.682 692.116 562.882 693.45 562.882 695.012C562.882 696.583 562.684 697.924 562.289 699.034C561.894 700.139 561.322 700.984 560.574 701.567C559.826 702.146 558.92 702.435 557.857 702.435ZM557.857 700.883C558.911 700.883 559.73 700.375 560.313 699.358C560.896 698.342 561.188 696.893 561.188 695.012C561.188 693.76 561.054 692.695 560.786 691.815C560.522 690.935 560.141 690.265 559.643 689.804C559.149 689.343 558.553 689.112 557.857 689.112C556.813 689.112 555.997 689.627 555.409 690.658C554.82 691.683 554.526 693.135 554.526 695.012C554.526 696.263 554.658 697.326 554.922 698.201C555.185 699.076 555.564 699.742 556.058 700.198C556.556 700.655 557.156 700.883 557.857 700.883Z" fill="#615E83"/>
<path d="M623.529 702.238V700.967L628.3 695.745C628.859 695.134 629.32 694.602 629.683 694.151C630.045 693.694 630.313 693.266 630.487 692.866C630.666 692.462 630.755 692.038 630.755 691.596C630.755 691.088 630.633 690.648 630.388 690.277C630.148 689.905 629.819 689.618 629.4 689.416C628.982 689.213 628.511 689.112 627.989 689.112C627.434 689.112 626.949 689.227 626.535 689.458C626.126 689.684 625.809 690.001 625.583 690.411C625.362 690.82 625.251 691.3 625.251 691.85H623.586C623.586 691.003 623.781 690.26 624.171 689.62C624.562 688.98 625.093 688.482 625.766 688.124C626.444 687.767 627.203 687.588 628.045 687.588C628.892 687.588 629.643 687.767 630.297 688.124C630.95 688.482 631.463 688.964 631.835 689.571C632.207 690.178 632.392 690.853 632.392 691.596C632.392 692.128 632.296 692.648 632.103 693.156C631.915 693.659 631.586 694.221 631.115 694.842C630.649 695.458 630.003 696.211 629.175 697.1L625.928 700.572V700.685H632.646V702.238H623.529Z" fill="#615E83"/>
<path d="M640.275 702.435C639.211 702.435 638.306 702.146 637.558 701.567C636.81 700.984 636.238 700.139 635.843 699.034C635.448 697.924 635.25 696.583 635.25 695.012C635.25 693.45 635.448 692.116 635.843 691.01C636.243 689.9 636.817 689.053 637.565 688.47C638.318 687.882 639.221 687.588 640.275 687.588C641.328 687.588 642.229 687.882 642.977 688.47C643.73 689.053 644.304 689.9 644.699 691.01C645.099 692.116 645.299 693.45 645.299 695.012C645.299 696.583 645.101 697.924 644.706 699.034C644.311 700.139 643.74 700.984 642.992 701.567C642.243 702.146 641.338 702.435 640.275 702.435ZM640.275 700.883C641.328 700.883 642.147 700.375 642.73 699.358C643.314 698.342 643.605 696.893 643.605 695.012C643.605 693.76 643.471 692.695 643.203 691.815C642.94 690.935 642.559 690.265 642.06 689.804C641.566 689.343 640.971 689.112 640.275 689.112C639.23 689.112 638.414 689.627 637.826 690.658C637.238 691.683 636.944 693.135 636.944 695.012C636.944 696.263 637.076 697.326 637.339 698.201C637.603 699.076 637.981 699.742 638.475 700.198C638.974 700.655 639.574 700.883 640.275 700.883Z" fill="#615E83"/>
<path d="M647.981 702.238V700.967L652.751 695.745C653.311 695.134 653.772 694.602 654.134 694.151C654.496 693.694 654.764 693.266 654.938 692.866C655.117 692.462 655.207 692.038 655.207 691.596C655.207 691.088 655.084 690.648 654.84 690.277C654.6 689.905 654.27 689.618 653.852 689.416C653.433 689.213 652.963 689.112 652.44 689.112C651.885 689.112 651.401 689.227 650.987 689.458C650.577 689.684 650.26 690.001 650.034 690.411C649.813 690.82 649.702 691.3 649.702 691.85H648.037C648.037 691.003 648.232 690.26 648.623 689.62C649.013 688.98 649.545 688.482 650.217 688.124C650.895 687.767 651.655 687.588 652.497 687.588C653.344 687.588 654.094 687.767 654.748 688.124C655.402 688.482 655.915 688.964 656.286 689.571C656.658 690.178 656.844 690.853 656.844 691.596C656.844 692.128 656.747 692.648 656.554 693.156C656.366 693.659 656.037 694.221 655.566 694.842C655.101 695.458 654.454 696.211 653.626 697.1L650.38 700.572V700.685H657.098V702.238H647.981Z" fill="#615E83"/>
<path d="M665.093 687.786V702.238H663.343V689.62H663.258L659.73 691.963V690.185L663.343 687.786H665.093Z" fill="#615E83"/>
<path d="M727.857 702.238V700.967L732.627 695.745C733.187 695.134 733.648 694.602 734.01 694.151C734.373 693.694 734.641 693.266 734.815 692.866C734.994 692.462 735.083 692.038 735.083 691.596C735.083 691.088 734.961 690.648 734.716 690.277C734.476 689.905 734.147 689.618 733.728 689.416C733.309 689.213 732.839 689.112 732.317 689.112C731.762 689.112 731.277 689.227 730.863 689.458C730.454 689.684 730.136 690.001 729.911 690.411C729.689 690.82 729.579 691.3 729.579 691.85H727.913C727.913 691.003 728.109 690.26 728.499 689.62C728.89 688.98 729.421 688.482 730.094 688.124C730.771 687.767 731.531 687.588 732.373 687.588C733.22 687.588 733.97 687.767 734.624 688.124C735.278 688.482 735.791 688.964 736.163 689.571C736.534 690.178 736.72 690.853 736.72 691.596C736.72 692.128 736.624 692.648 736.431 693.156C736.243 693.659 735.913 694.221 735.443 694.842C734.977 695.458 734.33 696.211 733.502 697.1L730.256 700.572V700.685H736.974V702.238H727.857Z" fill="#615E83"/>
<path d="M744.602 702.435C743.539 702.435 742.634 702.146 741.886 701.567C741.138 700.984 740.566 700.139 740.171 699.034C739.776 697.924 739.578 696.583 739.578 695.012C739.578 693.45 739.776 692.116 740.171 691.01C740.571 689.9 741.145 689.053 741.893 688.47C742.645 687.882 743.549 687.588 744.602 687.588C745.656 687.588 746.557 687.882 747.305 688.47C748.058 689.053 748.632 689.9 749.027 691.01C749.427 692.116 749.627 693.45 749.627 695.012C749.627 696.583 749.429 697.924 749.034 699.034C748.639 700.139 748.067 700.984 747.319 701.567C746.571 702.146 745.666 702.435 744.602 702.435ZM744.602 700.883C745.656 700.883 746.475 700.375 747.058 699.358C747.642 698.342 747.933 696.893 747.933 695.012C747.933 693.76 747.799 692.695 747.531 691.815C747.268 690.935 746.886 690.265 746.388 689.804C745.894 689.343 745.299 689.112 744.602 689.112C743.558 689.112 742.742 689.627 742.154 690.658C741.566 691.683 741.272 693.135 741.272 695.012C741.272 696.263 741.403 697.326 741.667 698.201C741.93 699.076 742.309 699.742 742.803 700.198C743.302 700.655 743.901 700.883 744.602 700.883Z" fill="#615E83"/>
<path d="M752.308 702.238V700.967L757.079 695.745C757.638 695.134 758.099 694.602 758.462 694.151C758.824 693.694 759.092 693.266 759.266 692.866C759.445 692.462 759.534 692.038 759.534 691.596C759.534 691.088 759.412 690.648 759.167 690.277C758.927 689.905 758.598 689.618 758.18 689.416C757.761 689.213 757.29 689.112 756.768 689.112C756.213 689.112 755.728 689.227 755.315 689.458C754.905 689.684 754.588 690.001 754.362 690.411C754.141 690.82 754.03 691.3 754.03 691.85H752.365C752.365 691.003 752.56 690.26 752.951 689.62C753.341 688.98 753.873 688.482 754.545 688.124C755.223 687.767 755.982 687.588 756.825 687.588C757.671 687.588 758.422 687.767 759.076 688.124C759.73 688.482 760.242 688.964 760.614 689.571C760.986 690.178 761.172 690.853 761.172 691.596C761.172 692.128 761.075 692.648 760.882 693.156C760.694 693.659 760.365 694.221 759.894 694.842C759.429 695.458 758.782 696.211 757.954 697.1L754.708 700.572V700.685H761.426V702.238H752.308Z" fill="#615E83"/>
<path d="M764.34 702.238V700.967L769.11 695.745C769.67 695.134 770.131 694.602 770.493 694.151C770.856 693.694 771.124 693.266 771.298 692.866C771.477 692.462 771.566 692.038 771.566 691.596C771.566 691.088 771.444 690.648 771.199 690.277C770.959 689.905 770.63 689.618 770.211 689.416C769.792 689.213 769.322 689.112 768.8 689.112C768.245 689.112 767.76 689.227 767.346 689.458C766.937 689.684 766.619 690.001 766.393 690.411C766.172 690.82 766.062 691.3 766.062 691.85H764.396C764.396 691.003 764.592 690.26 764.982 689.62C765.373 688.98 765.904 688.482 766.577 688.124C767.254 687.767 768.014 687.588 768.856 687.588C769.703 687.588 770.453 687.767 771.107 688.124C771.761 688.482 772.274 688.964 772.646 689.571C773.017 690.178 773.203 690.853 773.203 691.596C773.203 692.128 773.107 692.648 772.914 693.156C772.726 693.659 772.396 694.221 771.926 694.842C771.46 695.458 770.813 696.211 769.985 697.1L766.739 700.572V700.685H773.457V702.238H764.34Z" fill="#615E83"/>
<path d="M169.985 659.25C168.922 659.25 168.016 658.96 167.268 658.382C166.52 657.798 165.948 656.954 165.553 655.848C165.158 654.738 164.96 653.397 164.96 651.826C164.96 650.264 165.158 648.93 165.553 647.825C165.953 646.715 166.527 645.868 167.275 645.285C168.028 644.696 168.931 644.402 169.985 644.402C171.038 644.402 171.939 644.696 172.687 645.285C173.44 645.868 174.014 646.715 174.409 647.825C174.809 648.93 175.009 650.264 175.009 651.826C175.009 653.397 174.811 654.738 174.416 655.848C174.021 656.954 173.45 657.798 172.702 658.382C171.954 658.96 171.048 659.25 169.985 659.25ZM169.985 657.697C171.038 657.697 171.857 657.189 172.44 656.173C173.024 655.157 173.315 653.708 173.315 651.826C173.315 650.575 173.181 649.509 172.913 648.629C172.65 647.75 172.269 647.079 171.77 646.618C171.276 646.157 170.681 645.927 169.985 645.927C168.94 645.927 168.124 646.442 167.536 647.472C166.948 648.498 166.654 649.949 166.654 651.826C166.654 653.077 166.786 654.141 167.049 655.016C167.313 655.891 167.691 656.556 168.185 657.013C168.684 657.469 169.284 657.697 169.985 657.697Z" fill="#615E83"/>
<path d="M155.856 576.094V590.546H154.105V577.929H154.021L150.492 580.272V578.493L154.105 576.094H155.856Z" fill="#615E83"/>
<path d="M160.266 576.094H162.355L167.266 588.09H167.435L172.347 576.094H174.436V590.546H172.799V579.566H172.657L168.141 590.546H166.56L162.044 579.566H161.903V590.546H160.266V576.094Z" fill="#615E83"/>
<path d="M147.98 515.045V513.775L152.751 508.553C153.31 507.941 153.771 507.41 154.134 506.958C154.496 506.502 154.764 506.074 154.938 505.674C155.117 505.269 155.206 504.846 155.206 504.404C155.206 503.895 155.084 503.456 154.839 503.084C154.599 502.712 154.27 502.425 153.851 502.223C153.433 502.021 152.962 501.92 152.44 501.92C151.885 501.92 151.4 502.035 150.986 502.265C150.577 502.491 150.26 502.809 150.034 503.218C149.813 503.627 149.702 504.107 149.702 504.658H148.037C148.037 503.811 148.232 503.067 148.622 502.428C149.013 501.788 149.544 501.289 150.217 500.932C150.895 500.574 151.654 500.395 152.497 500.395C153.343 500.395 154.094 500.574 154.748 500.932C155.402 501.289 155.914 501.771 156.286 502.378C156.658 502.985 156.843 503.66 156.843 504.404C156.843 504.935 156.747 505.455 156.554 505.963C156.366 506.466 156.037 507.029 155.566 507.65C155.1 508.266 154.454 509.019 153.626 509.908L150.38 513.38V513.493H157.097V515.045H147.98Z" fill="#615E83"/>
<path d="M160.266 500.593H162.355L167.266 512.589H167.435L172.347 500.593H174.436V515.045H172.799V504.065H172.657L168.141 515.045H166.56L162.044 504.065H161.903V515.045H160.266V500.593Z" fill="#615E83"/>
<path d="M152.242 441.817C151.311 441.817 150.481 441.657 149.751 441.338C149.027 441.018 148.451 440.573 148.023 440.004C147.599 439.43 147.369 438.764 147.331 438.007H149.109C149.147 438.473 149.307 438.875 149.589 439.214C149.871 439.548 150.241 439.806 150.697 439.99C151.153 440.173 151.659 440.265 152.214 440.265C152.835 440.265 153.386 440.157 153.866 439.94C154.345 439.724 154.722 439.423 154.995 439.037C155.267 438.651 155.404 438.204 155.404 437.696C155.404 437.165 155.272 436.697 155.009 436.292C154.745 435.883 154.359 435.563 153.851 435.332C153.343 435.102 152.722 434.987 151.988 434.987H150.831V433.434H151.988C152.562 433.434 153.066 433.331 153.499 433.124C153.936 432.917 154.277 432.625 154.522 432.249C154.771 431.872 154.896 431.43 154.896 430.922C154.896 430.433 154.788 430.007 154.571 429.645C154.355 429.282 154.049 429 153.654 428.798C153.263 428.596 152.802 428.494 152.271 428.494C151.772 428.494 151.302 428.586 150.859 428.77C150.422 428.948 150.064 429.21 149.787 429.553C149.509 429.892 149.359 430.301 149.335 430.781H147.642C147.67 430.023 147.898 429.36 148.326 428.791C148.754 428.217 149.314 427.77 150.006 427.45C150.702 427.13 151.466 426.97 152.299 426.97C153.193 426.97 153.96 427.151 154.599 427.514C155.239 427.871 155.731 428.344 156.074 428.932C156.418 429.52 156.589 430.155 156.589 430.837C156.589 431.651 156.375 432.345 155.947 432.919C155.524 433.493 154.948 433.89 154.218 434.112V434.224C155.131 434.375 155.844 434.763 156.357 435.389C156.869 436.01 157.126 436.779 157.126 437.696C157.126 438.482 156.912 439.188 156.484 439.813C156.06 440.434 155.482 440.924 154.748 441.281C154.014 441.639 153.179 441.817 152.242 441.817Z" fill="#615E83"/>
<path d="M160.266 427.168H162.355L167.266 439.164H167.435L172.347 427.168H174.436V441.62H172.799V430.64H172.657L168.141 441.62H166.56L162.044 430.64H161.903V441.62H160.266V427.168Z" fill="#615E83"/>
<path opacity="0.7" d="M366.808 490.917C298.568 565.04 243.025 525.052 223.784 491.226V658.895H750.637V539.666C744.134 543.029 729.182 572.117 698.817 546.435C649.181 498.637 607.266 535.037 594.765 546.435C582.264 557.833 540.717 587.246 509.098 521.065C477.478 454.884 455.785 444.957 444.387 444.222C432.989 443.487 412.767 438.339 366.808 490.917Z" fill="url(#paint0_linear_644_76)"/>
<path d="M223.784 491.226C243.025 525.052 298.568 565.04 366.808 490.917C412.767 438.339 432.989 443.487 444.387 444.222C455.785 444.957 477.478 454.884 509.098 521.065C540.717 587.246 582.264 557.833 594.765 546.435C607.266 535.037 649.181 498.637 698.817 546.435C729.182 572.117 744.134 543.029 750.637 539.666" stroke="#4AE000" stroke-width="2" stroke-linecap="round"/>
<circle cx="223.784" cy="491.594" r="4.54849" fill="#4AE000" stroke="white" stroke-width="2"/>
<circle cx="330.015" cy="521.142" r="4.54849" fill="#4AE000" stroke="white" stroke-width="2"/>
<circle cx="434.339" cy="443.749" r="4.54849" fill="#4AE000" stroke="white" stroke-width="2"/>
<circle cx="539.615" cy="558.122" r="4.54849" fill="#4AE000" stroke="white" stroke-width="2"/>
<circle cx="644.893" cy="522.571" r="4.54849" fill="#4AE000" stroke="white" stroke-width="2"/>
<circle cx="750.17" cy="539.439" r="4.54849" fill="#4AE000" stroke="white" stroke-width="2"/>
<rect x="618.768" y="305.891" width="155.325" height="43.094" rx="20" fill="#F8F8FF"/>
<path d="M662.215 331.378H656.255L655.175 334.438H652.735L657.935 320.538H660.555L665.735 334.438H663.295L662.215 331.378ZM661.575 329.618L659.235 323.018L656.895 329.618H661.575ZM673.588 323.238C674.868 323.238 675.895 323.652 676.668 324.478C677.441 325.305 677.828 326.485 677.828 328.018V334.438H675.548V328.258C675.548 327.272 675.295 326.512 674.788 325.978C674.281 325.432 673.588 325.158 672.708 325.158C671.801 325.158 671.075 325.452 670.528 326.038C669.981 326.612 669.708 327.458 669.708 328.578V334.438H667.428V323.418H669.708V325.838C670.001 325.012 670.495 324.372 671.188 323.918C671.881 323.465 672.681 323.238 673.588 323.238ZM686.654 323.238C687.934 323.238 688.961 323.652 689.734 324.478C690.508 325.305 690.894 326.485 690.894 328.018V334.438H688.614V328.258C688.614 327.272 688.361 326.512 687.854 325.978C687.348 325.432 686.654 325.158 685.774 325.158C684.868 325.158 684.141 325.452 683.594 326.038C683.048 326.612 682.774 327.458 682.774 328.578V334.438H680.494V323.418H682.774V325.838C683.068 325.012 683.561 324.372 684.254 323.918C684.948 323.465 685.748 323.238 686.654 323.238ZM703.721 323.418V334.438H701.421V332.038C701.141 332.852 700.654 333.485 699.961 333.938C699.267 334.378 698.461 334.598 697.541 334.598C696.261 334.598 695.234 334.185 694.461 333.358C693.687 332.532 693.301 331.352 693.301 329.818V323.418H695.581V329.578C695.581 330.578 695.834 331.352 696.341 331.898C696.847 332.432 697.541 332.698 698.421 332.698C699.327 332.698 700.054 332.405 700.601 331.818C701.147 331.232 701.421 330.378 701.421 329.258V323.418H703.721ZM710.871 323.278C711.871 323.278 712.725 323.525 713.431 324.018C714.138 324.512 714.638 325.165 714.931 325.978V323.418H717.211V334.438H714.931V331.878C714.638 332.692 714.138 333.345 713.431 333.838C712.725 334.332 711.871 334.578 710.871 334.578C709.911 334.578 709.051 334.352 708.291 333.898C707.545 333.445 706.958 332.792 706.531 331.938C706.105 331.085 705.891 330.078 705.891 328.918C705.891 327.772 706.105 326.772 706.531 325.918C706.958 325.065 707.545 324.412 708.291 323.958C709.051 323.505 709.911 323.278 710.871 323.278ZM711.571 325.278C710.558 325.278 709.745 325.605 709.131 326.258C708.531 326.898 708.231 327.785 708.231 328.918C708.231 330.052 708.531 330.945 709.131 331.598C709.745 332.238 710.558 332.558 711.571 332.558C712.211 332.558 712.785 332.412 713.291 332.118C713.798 331.812 714.198 331.385 714.491 330.838C714.785 330.292 714.931 329.652 714.931 328.918C714.931 328.198 714.785 327.565 714.491 327.018C714.198 326.458 713.798 326.032 713.291 325.738C712.785 325.432 712.211 325.278 711.571 325.278ZM722.227 319.638V334.438H719.947V319.638H722.227Z" fill="#727272"/>
<path fill-rule="evenodd" clip-rule="evenodd" d="M748.596 324.891C748.355 325.132 748.355 325.524 748.596 325.765L752.804 329.973C752.808 329.977 752.812 329.982 752.817 329.986C752.937 330.107 753.096 330.167 753.254 330.167C753.412 330.167 753.57 330.107 753.691 329.986C753.696 329.982 753.7 329.977 753.704 329.973L757.912 325.765C758.153 325.524 758.153 325.132 757.912 324.891C757.67 324.649 757.279 324.649 757.038 324.891L753.254 328.674L749.47 324.891C749.229 324.649 748.838 324.649 748.596 324.891Z" fill="#615E83"/>
<path d="M163.842 335.595V339.581H156.909V360.721H151.897V339.581H145V335.595H163.842Z" fill="#1E1B39"/>
<path d="M178.333 340.72C180.608 340.72 182.421 341.468 183.772 342.962C185.123 344.457 185.799 346.557 185.799 349.262V360.721H180.821V349.831C180.821 348.265 180.419 347.055 179.613 346.201C178.807 345.323 177.705 344.884 176.307 344.884C174.885 344.884 173.747 345.347 172.894 346.272C172.04 347.197 171.614 348.526 171.614 350.258V360.721H166.601V334.385H171.614V344.955C172.135 343.627 172.988 342.595 174.174 341.859C175.382 341.1 176.769 340.72 178.333 340.72Z" fill="#1E1B39"/>
<path d="M189.64 335.346C189.64 334.54 189.925 333.887 190.493 333.389C191.062 332.867 191.809 332.606 192.733 332.606C193.658 332.606 194.404 332.867 194.973 333.389C195.542 333.887 195.826 334.54 195.826 335.346C195.826 336.129 195.542 336.782 194.973 337.304C194.404 337.802 193.658 338.051 192.733 338.051C191.809 338.051 191.062 337.802 190.493 337.304C189.925 336.782 189.64 336.129 189.64 335.346ZM195.222 341.005V360.721H190.209V341.005H195.222Z" fill="#1E1B39"/>
<path d="M206.547 340.756C208.94 340.756 210.86 341.361 212.306 342.571C213.752 343.781 214.652 345.394 215.008 347.411H210.315C210.125 346.462 209.699 345.703 209.035 345.133C208.372 344.564 207.506 344.279 206.44 344.279C205.587 344.279 204.923 344.481 204.449 344.884C203.975 345.287 203.738 345.833 203.738 346.521C203.738 347.067 203.928 347.506 204.307 347.838C204.686 348.17 205.16 348.431 205.729 348.621C206.298 348.811 207.115 349.036 208.182 349.297C209.675 349.629 210.884 349.985 211.808 350.365C212.756 350.721 213.562 351.302 214.226 352.109C214.913 352.892 215.257 353.959 215.257 355.312C215.257 356.996 214.593 358.36 213.266 359.404C211.962 360.448 210.196 360.97 207.969 360.97C205.409 360.97 203.359 360.401 201.818 359.262C200.278 358.099 199.342 356.45 199.01 354.315H203.809C203.928 355.288 204.354 356.059 205.089 356.628C205.824 357.174 206.784 357.447 207.969 357.447C208.822 357.447 209.474 357.245 209.924 356.842C210.374 356.415 210.599 355.869 210.599 355.205C210.599 354.635 210.398 354.173 209.995 353.817C209.616 353.461 209.13 353.188 208.537 352.998C207.969 352.809 207.151 352.583 206.084 352.322C204.615 351.99 203.418 351.658 202.494 351.326C201.593 350.97 200.811 350.412 200.147 349.653C199.508 348.894 199.188 347.85 199.188 346.521C199.188 344.813 199.839 343.425 201.143 342.357C202.446 341.29 204.248 340.756 206.547 340.756Z" fill="#1E1B39"/>
<path d="M253.786 335.88V360.721H248.809V343.389L242.445 360.721H238.108L231.745 343.461V360.721H226.732V335.88H232.811L240.348 354.564L247.742 335.88H253.786Z" fill="#1E1B39"/>
<path d="M267.426 340.756C269.345 340.756 271.064 341.159 272.581 341.966C274.121 342.773 275.33 343.947 276.207 345.489C277.084 347.008 277.522 348.799 277.522 350.863C277.522 352.927 277.084 354.718 276.207 356.237C275.33 357.755 274.121 358.93 272.581 359.76C271.064 360.567 269.345 360.97 267.426 360.97C265.506 360.97 263.776 360.567 262.235 359.76C260.719 358.93 259.522 357.755 258.645 356.237C257.768 354.718 257.329 352.927 257.329 350.863C257.329 348.799 257.768 347.008 258.645 345.489C259.522 343.947 260.719 342.773 262.235 341.966C263.776 341.159 265.506 340.756 267.426 340.756ZM267.426 345.098C266.027 345.098 264.842 345.596 263.871 346.592C262.899 347.565 262.413 348.989 262.413 350.863C262.413 352.737 262.899 354.173 263.871 355.169C264.842 356.142 266.027 356.628 267.426 356.628C268.824 356.628 270.009 356.142 270.981 355.169C271.953 354.173 272.438 352.737 272.438 350.863C272.438 348.989 271.953 347.565 270.981 346.592C270.009 345.596 268.824 345.098 267.426 345.098Z" fill="#1E1B39"/>
<path d="M292.796 340.72C295.072 340.72 296.885 341.468 298.236 342.962C299.587 344.457 300.262 346.557 300.262 349.262V360.721H295.285V349.831C295.285 348.265 294.882 347.055 294.076 346.201C293.27 345.323 292.168 344.884 290.77 344.884C289.348 344.884 288.21 345.347 287.357 346.272C286.504 347.197 286.077 348.526 286.077 350.258V360.721H281.065V341.005H286.077V344.955C286.599 343.627 287.452 342.595 288.637 341.859C289.846 341.1 291.232 340.72 292.796 340.72Z" fill="#1E1B39"/>
<path d="M315.196 356.415V360.721H312.565C310.361 360.721 308.666 360.187 307.481 359.12C306.32 358.052 305.739 356.273 305.739 353.781V345.24H303.002V341.005H305.739V336.129H310.752V341.005H315.16V345.24H310.752V353.852C310.752 354.802 310.941 355.466 311.321 355.845C311.7 356.225 312.34 356.415 313.24 356.415H315.196Z" fill="#1E1B39"/>
<path d="M330.534 340.72C332.81 340.72 334.623 341.468 335.974 342.962C337.325 344.457 338 346.557 338 349.262V360.721H333.023V349.831C333.023 348.265 332.62 347.055 331.814 346.201C331.008 345.323 329.906 344.884 328.508 344.884C327.086 344.884 325.948 345.347 325.095 346.272C324.242 347.197 323.815 348.526 323.815 350.258V360.721H318.803V334.385H323.815V344.955C324.337 343.627 325.19 342.595 326.375 341.859C327.584 341.1 328.97 340.72 330.534 340.72Z" fill="#1E1B39"/>
<path d="M158.633 297.926C158.509 296.878 158.006 296.065 157.125 295.486C156.243 294.907 155.162 294.617 153.881 294.617C152.945 294.617 152.125 294.769 151.423 295.072C150.727 295.376 150.183 295.793 149.791 296.323C149.405 296.854 149.212 297.457 149.212 298.133C149.212 298.698 149.347 299.184 149.615 299.591C149.891 299.991 150.242 300.325 150.669 300.594C151.096 300.856 151.543 301.073 152.012 301.245C152.48 301.411 152.91 301.545 153.303 301.649L155.451 302.228C156.002 302.372 156.615 302.572 157.29 302.827C157.972 303.082 158.622 303.431 159.242 303.872C159.869 304.306 160.385 304.864 160.791 305.547C161.198 306.229 161.401 307.067 161.401 308.06C161.401 309.204 161.101 310.238 160.502 311.162C159.91 312.085 159.042 312.82 157.899 313.364C156.763 313.909 155.382 314.181 153.757 314.181C152.242 314.181 150.93 313.936 149.822 313.447C148.72 312.957 147.852 312.275 147.219 311.399C146.592 310.524 146.238 309.507 146.155 308.349H148.799C148.868 309.149 149.137 309.811 149.605 310.334C150.08 310.851 150.679 311.237 151.402 311.493C152.132 311.741 152.917 311.865 153.757 311.865C154.735 311.865 155.613 311.706 156.391 311.389C157.169 311.065 157.786 310.617 158.24 310.045C158.695 309.466 158.922 308.79 158.922 308.018C158.922 307.315 158.726 306.743 158.333 306.302C157.941 305.861 157.424 305.502 156.784 305.226C156.143 304.951 155.451 304.709 154.708 304.503L152.105 303.758C150.452 303.282 149.144 302.603 148.179 301.721C147.215 300.839 146.733 299.684 146.733 298.257C146.733 297.071 147.054 296.037 147.694 295.155C148.341 294.266 149.209 293.576 150.297 293.087C151.392 292.591 152.614 292.342 153.964 292.342C155.327 292.342 156.539 292.587 157.6 293.077C158.66 293.559 159.5 294.221 160.12 295.062C160.747 295.903 161.077 296.858 161.112 297.926H158.633Z" fill="#9291A5"/>
<path d="M172.182 297.926V299.994H163.96V297.926H172.182ZM166.356 294.121H168.794V309.259C168.794 309.948 168.894 310.465 169.093 310.81C169.3 311.148 169.562 311.375 169.878 311.493C170.202 311.603 170.543 311.658 170.901 311.658C171.17 311.658 171.39 311.644 171.562 311.617C171.734 311.582 171.872 311.555 171.975 311.534L172.471 313.726C172.306 313.788 172.075 313.85 171.779 313.912C171.483 313.981 171.108 314.016 170.653 314.016C169.965 314.016 169.29 313.867 168.629 313.571C167.974 313.274 167.43 312.823 166.997 312.216C166.57 311.61 166.356 310.845 166.356 309.921V294.121Z" fill="#9291A5"/>
<path d="M180.518 314.181C179.512 314.181 178.6 313.991 177.78 313.612C176.961 313.226 176.31 312.671 175.828 311.947C175.346 311.217 175.105 310.334 175.105 309.3C175.105 308.39 175.284 307.653 175.642 307.088C176 306.515 176.479 306.067 177.078 305.743C177.677 305.419 178.338 305.178 179.061 305.02C179.791 304.854 180.524 304.723 181.261 304.627C182.225 304.503 183.007 304.409 183.606 304.347C184.212 304.279 184.653 304.165 184.928 304.006C185.21 303.848 185.352 303.572 185.352 303.179V303.096C185.352 302.076 185.073 301.283 184.515 300.718C183.964 300.153 183.127 299.87 182.005 299.87C180.841 299.87 179.929 300.125 179.268 300.635C178.607 301.145 178.142 301.69 177.873 302.269L175.56 301.442C175.973 300.477 176.524 299.725 177.212 299.188C177.908 298.643 178.665 298.264 179.485 298.05C180.311 297.83 181.123 297.719 181.922 297.719C182.432 297.719 183.017 297.781 183.678 297.905C184.346 298.023 184.99 298.267 185.61 298.64C186.236 299.012 186.756 299.574 187.169 300.325C187.583 301.076 187.789 302.083 187.789 303.344V313.809H185.352V311.658H185.228C185.062 312.003 184.787 312.371 184.401 312.764C184.016 313.157 183.503 313.492 182.862 313.767C182.222 314.043 181.44 314.181 180.518 314.181ZM180.889 311.989C181.853 311.989 182.666 311.799 183.327 311.42C183.995 311.041 184.498 310.552 184.835 309.952C185.179 309.352 185.352 308.721 185.352 308.06V305.826C185.248 305.95 185.021 306.064 184.67 306.167C184.326 306.264 183.926 306.35 183.472 306.426C183.024 306.495 182.587 306.557 182.16 306.612C181.74 306.66 181.399 306.702 181.137 306.736C180.504 306.819 179.912 306.953 179.361 307.139C178.817 307.319 178.376 307.591 178.039 307.956C177.708 308.315 177.543 308.804 177.543 309.424C177.543 310.272 177.856 310.913 178.483 311.348C179.116 311.775 179.918 311.989 180.889 311.989Z" fill="#9291A5"/>
<path d="M199.138 297.926V299.994H190.916V297.926H199.138ZM193.313 294.121H195.75V309.259C195.75 309.948 195.85 310.465 196.05 310.81C196.257 311.148 196.518 311.375 196.835 311.493C197.159 311.603 197.5 311.658 197.858 311.658C198.126 311.658 198.347 311.644 198.519 311.617C198.691 311.582 198.829 311.555 198.932 311.534L199.428 313.726C199.262 313.788 199.032 313.85 198.736 313.912C198.439 313.981 198.064 314.016 197.61 314.016C196.921 314.016 196.246 313.867 195.585 313.571C194.931 313.274 194.387 312.823 193.953 312.216C193.526 311.61 193.313 310.845 193.313 309.921V294.121Z" fill="#9291A5"/>
<path d="M202.805 313.809V297.926H205.243V313.809H202.805ZM204.045 295.279C203.57 295.279 203.16 295.117 202.816 294.793C202.478 294.469 202.309 294.08 202.309 293.625C202.309 293.17 202.478 292.78 202.816 292.456C203.16 292.132 203.57 291.97 204.045 291.97C204.52 291.97 204.926 292.132 205.264 292.456C205.608 292.78 205.78 293.17 205.78 293.625C205.78 294.08 205.608 294.469 205.264 294.793C204.926 295.117 204.52 295.279 204.045 295.279Z" fill="#9291A5"/>
<path d="M220.946 301.483L218.756 302.104C218.618 301.738 218.415 301.383 218.147 301.039C217.885 300.687 217.527 300.397 217.072 300.17C216.618 299.943 216.036 299.829 215.327 299.829C214.356 299.829 213.547 300.053 212.899 300.501C212.259 300.942 211.939 301.504 211.939 302.186C211.939 302.793 212.159 303.272 212.6 303.624C213.041 303.975 213.729 304.268 214.666 304.503L217.021 305.082C218.439 305.426 219.496 305.954 220.192 306.664C220.887 307.367 221.235 308.273 221.235 309.383C221.235 310.293 220.973 311.106 220.45 311.823C219.934 312.54 219.211 313.106 218.281 313.519C217.351 313.933 216.27 314.14 215.038 314.14C213.419 314.14 212.08 313.788 211.02 313.085C209.959 312.382 209.288 311.355 209.005 310.004L211.319 309.424C211.539 310.279 211.956 310.92 212.569 311.348C213.189 311.775 213.998 311.989 214.996 311.989C216.132 311.989 217.035 311.748 217.703 311.265C218.377 310.776 218.715 310.19 218.715 309.507C218.715 308.956 218.522 308.494 218.136 308.122C217.751 307.742 217.159 307.46 216.36 307.274L213.715 306.653C212.262 306.309 211.195 305.774 210.513 305.051C209.839 304.32 209.501 303.406 209.501 302.31C209.501 301.414 209.752 300.622 210.255 299.932C210.765 299.243 211.457 298.702 212.331 298.309C213.213 297.916 214.211 297.719 215.327 297.719C216.897 297.719 218.129 298.064 219.025 298.753C219.927 299.443 220.567 300.353 220.946 301.483Z" fill="#9291A5"/>
<path d="M231.804 297.926V299.994H223.582V297.926H231.804ZM225.979 294.121H228.416V309.259C228.416 309.948 228.516 310.465 228.716 310.81C228.923 311.148 229.184 311.375 229.501 311.493C229.825 311.603 230.166 311.658 230.524 311.658C230.792 311.658 231.012 311.644 231.185 311.617C231.357 311.582 231.495 311.555 231.598 311.534L232.094 313.726C231.928 313.788 231.698 313.85 231.402 313.912C231.105 313.981 230.73 314.016 230.276 314.016C229.587 314.016 228.912 313.867 228.251 313.571C227.597 313.274 227.053 312.823 226.619 312.216C226.192 311.61 225.979 310.845 225.979 309.921V294.121Z" fill="#9291A5"/>
<path d="M235.471 313.809V297.926H237.909V313.809H235.471ZM236.711 295.279C236.236 295.279 235.826 295.117 235.482 294.793C235.144 294.469 234.975 294.08 234.975 293.625C234.975 293.17 235.144 292.78 235.482 292.456C235.826 292.132 236.236 291.97 236.711 291.97C237.186 291.97 237.592 292.132 237.93 292.456C238.274 292.78 238.446 293.17 238.446 293.625C238.446 294.08 238.274 294.469 237.93 294.793C237.592 295.117 237.186 295.279 236.711 295.279Z" fill="#9291A5"/>
<path d="M248.819 314.14C247.332 314.14 246.051 313.788 244.977 313.085C243.902 312.382 243.076 311.413 242.498 310.179C241.919 308.945 241.63 307.536 241.63 305.95C241.63 304.337 241.926 302.914 242.518 301.68C243.117 300.439 243.951 299.47 245.018 298.774C246.092 298.071 247.345 297.719 248.778 297.719C249.893 297.719 250.899 297.926 251.794 298.34C252.689 298.753 253.422 299.332 253.994 300.077C254.566 300.821 254.92 301.69 255.058 302.683H252.62C252.434 301.959 252.021 301.318 251.381 300.759C250.747 300.194 249.893 299.911 248.819 299.911C247.869 299.911 247.036 300.16 246.319 300.656C245.61 301.145 245.056 301.838 244.656 302.734C244.264 303.624 244.068 304.668 244.068 305.867C244.068 307.094 244.261 308.163 244.646 309.073C245.039 309.983 245.59 310.689 246.299 311.193C247.015 311.696 247.855 311.947 248.819 311.947C249.453 311.947 250.028 311.837 250.544 311.617C251.061 311.396 251.498 311.079 251.856 310.665C252.214 310.252 252.469 309.755 252.62 309.176H255.058C254.92 310.114 254.579 310.958 254.035 311.71C253.498 312.454 252.786 313.047 251.897 313.488C251.016 313.922 249.99 314.14 248.819 314.14Z" fill="#9291A5"/>
<path d="M269.86 301.483L267.67 302.104C267.532 301.738 267.329 301.383 267.06 301.039C266.799 300.687 266.441 300.397 265.986 300.17C265.532 299.943 264.95 299.829 264.241 299.829C263.27 299.829 262.46 300.053 261.813 300.501C261.173 300.942 260.853 301.504 260.853 302.186C260.853 302.793 261.073 303.272 261.514 303.624C261.954 303.975 262.643 304.268 263.579 304.503L265.935 305.082C267.353 305.426 268.41 305.954 269.106 306.664C269.801 307.367 270.149 308.273 270.149 309.383C270.149 310.293 269.887 311.106 269.364 311.823C268.847 312.54 268.124 313.106 267.195 313.519C266.265 313.933 265.184 314.14 263.951 314.14C262.333 314.14 260.994 313.788 259.933 313.085C258.873 312.382 258.201 311.355 257.919 310.004L260.233 309.424C260.453 310.279 260.87 310.92 261.483 311.348C262.102 311.775 262.912 311.989 263.91 311.989C265.046 311.989 265.948 311.748 266.616 311.265C267.291 310.776 267.629 310.19 267.629 309.507C267.629 308.956 267.436 308.494 267.05 308.122C266.664 307.742 266.072 307.46 265.273 307.274L262.629 306.653C261.176 306.309 260.109 305.774 259.427 305.051C258.752 304.32 258.415 303.406 258.415 302.31C258.415 301.414 258.666 300.622 259.169 299.932C259.679 299.243 260.371 298.702 261.245 298.309C262.127 297.916 263.125 297.719 264.241 297.719C265.811 297.719 267.043 298.064 267.938 298.753C268.84 299.443 269.481 300.353 269.86 301.483Z" fill="#9291A5"/>
<path d="M223.595 579.883C259.513 546.071 310.222 487.983 395.857 549.701C502.9 626.849 545.924 494.106 590.803 481.307C665.946 459.876 710.606 520.594 749.595 571.311" stroke="#B0B0B0" stroke-dasharray="4 4"/>
<rect x="93" y="48.9702" width="346" height="165" rx="13" fill="black"/>
<g filter="url(#filter1_d_644_76)">
<rect x="459" y="48.9702" width="363" height="165" rx="13" fill="white"/>
</g>
<path d="M154.6 114.674C156.093 114.674 157.373 114.941 158.44 115.474C159.507 115.986 160.307 116.701 160.84 117.618C161.395 118.536 161.672 119.56 161.672 120.69C161.672 122.12 161.267 123.314 160.456 124.274C159.667 125.213 158.547 125.778 157.096 125.97V126.13C158.653 126.578 159.869 127.25 160.744 128.146C161.64 129.021 162.088 130.237 162.088 131.794C162.088 133.693 161.459 135.24 160.2 136.434C158.941 137.608 157.139 138.194 154.792 138.194C152.381 138.194 150.44 137.586 148.968 136.37C147.496 135.133 146.653 133.309 146.44 130.898H150.056C150.184 132.178 150.643 133.202 151.432 133.97C152.221 134.717 153.288 135.09 154.632 135.09C155.891 135.09 156.851 134.76 157.512 134.098C158.195 133.437 158.536 132.584 158.536 131.538C158.536 130.28 158.045 129.32 157.064 128.658C156.104 127.997 154.707 127.666 152.872 127.666H152.008V124.658H152.872C156.349 124.701 158.088 123.517 158.088 121.106C158.088 120.061 157.768 119.24 157.128 118.642C156.488 118.045 155.613 117.746 154.504 117.746C153.395 117.746 152.467 118.088 151.72 118.77C150.973 119.432 150.525 120.402 150.376 121.682H146.792C146.941 119.464 147.688 117.746 149.032 116.53C150.376 115.293 152.232 114.674 154.6 114.674ZM181.312 118.258H170.144V124.978C170.656 124.317 171.381 123.794 172.32 123.41C173.259 123.005 174.293 122.802 175.424 122.802C177.003 122.802 178.315 123.144 179.36 123.826C180.405 124.488 181.173 125.373 181.664 126.482C182.176 127.592 182.432 128.818 182.432 130.162C182.432 132.53 181.771 134.45 180.448 135.922C179.125 137.373 177.205 138.098 174.688 138.098C172.32 138.098 170.411 137.469 168.96 136.21C167.509 134.952 166.72 133.277 166.592 131.186H170.176C170.368 132.338 170.837 133.245 171.584 133.906C172.352 134.568 173.323 134.898 174.496 134.898C175.947 134.898 177.035 134.461 177.76 133.586C178.485 132.712 178.848 131.549 178.848 130.098C178.848 128.733 178.475 127.666 177.728 126.898C176.981 126.109 175.915 125.714 174.528 125.714C173.547 125.714 172.683 125.928 171.936 126.354C171.211 126.781 170.677 127.346 170.336 128.05H166.784V115.026H181.312V118.258ZM185.633 126.514C185.633 130.12 186.273 132.946 187.553 134.994C188.833 137.021 190.966 138.034 193.953 138.034C196.939 138.034 199.073 137.01 200.353 134.962C201.633 132.914 202.273 130.098 202.273 126.514C202.273 122.952 201.633 120.157 200.353 118.13C199.073 116.082 196.939 115.058 193.953 115.058C190.966 115.058 188.833 116.072 187.553 118.098C186.273 120.125 185.633 122.93 185.633 126.514ZM198.625 126.514C198.625 129.117 198.305 131.112 197.665 132.498C197.025 133.885 195.787 134.578 193.953 134.578C192.097 134.578 190.849 133.885 190.209 132.498C189.569 131.112 189.249 129.117 189.249 126.514C189.249 123.933 189.569 121.96 190.209 120.594C190.849 119.229 192.097 118.546 193.953 118.546C195.787 118.546 197.025 119.24 197.665 120.626C198.305 121.992 198.625 123.954 198.625 126.514ZM208.354 135.474C208.738 136.456 208.93 137.469 208.93 138.514C208.93 139.709 208.621 140.68 208.002 141.426C207.384 142.194 206.445 142.578 205.186 142.578V141.106C205.72 141.106 206.114 140.968 206.37 140.69C206.626 140.413 206.754 139.944 206.754 139.282V138.994H204.898V135.474H208.354ZM210.51 118.802V115.378H217.742V137.97H213.902V118.802H210.51ZM237.218 118.258H226.05V124.978C226.562 124.317 227.288 123.794 228.226 123.41C229.165 123.005 230.2 122.802 231.33 122.802C232.909 122.802 234.221 123.144 235.266 123.826C236.312 124.488 237.08 125.373 237.57 126.482C238.082 127.592 238.338 128.818 238.338 130.162C238.338 132.53 237.677 134.45 236.354 135.922C235.032 137.373 233.112 138.098 230.594 138.098C228.226 138.098 226.317 137.469 224.866 136.21C223.416 134.952 222.626 133.277 222.498 131.186H226.082C226.274 132.338 226.744 133.245 227.49 133.906C228.258 134.568 229.229 134.898 230.402 134.898C231.853 134.898 232.941 134.461 233.666 133.586C234.392 132.712 234.754 131.549 234.754 130.098C234.754 128.733 234.381 127.666 233.634 126.898C232.888 126.109 231.821 125.714 230.434 125.714C229.453 125.714 228.589 125.928 227.842 126.354C227.117 126.781 226.584 127.346 226.242 128.05H222.69V115.026H237.218V118.258ZM241.539 126.514C241.539 130.12 242.179 132.946 243.459 134.994C244.739 137.021 246.872 138.034 249.859 138.034C252.846 138.034 254.979 137.01 256.259 134.962C257.539 132.914 258.179 130.098 258.179 126.514C258.179 122.952 257.539 120.157 256.259 118.13C254.979 116.082 252.846 115.058 249.859 115.058C246.872 115.058 244.739 116.072 243.459 118.098C242.179 120.125 241.539 122.93 241.539 126.514ZM254.531 126.514C254.531 129.117 254.211 131.112 253.571 132.498C252.931 133.885 251.694 134.578 249.859 134.578C248.003 134.578 246.755 133.885 246.115 132.498C245.475 131.112 245.155 129.117 245.155 126.514C245.155 123.933 245.475 121.96 246.115 120.594C246.755 119.229 248.003 118.546 249.859 118.546C251.694 118.546 252.931 119.24 253.571 120.626C254.211 121.992 254.531 123.954 254.531 126.514ZM264.901 133.938V137.97H260.773V133.938H264.901ZM268.146 120.626C268.146 119.517 268.445 118.504 269.042 117.586C269.64 116.669 270.525 115.933 271.698 115.378C272.893 114.824 274.322 114.546 275.986 114.546C277.65 114.546 279.069 114.824 280.242 115.378C281.437 115.933 282.333 116.669 282.93 117.586C283.549 118.504 283.858 119.517 283.858 120.626C283.858 121.864 283.528 122.93 282.866 123.826C282.226 124.722 281.266 125.373 279.986 125.778C281.416 126.226 282.514 126.952 283.282 127.954C284.05 128.936 284.434 130.141 284.434 131.57C284.434 133.768 283.656 135.485 282.098 136.722C280.541 137.938 278.504 138.546 275.986 138.546C273.469 138.546 271.432 137.938 269.874 136.722C268.338 135.485 267.57 133.768 267.57 131.57C267.57 130.141 267.954 128.936 268.722 127.954C269.49 126.952 270.589 126.226 272.018 125.778C270.738 125.373 269.768 124.722 269.106 123.826C268.466 122.93 268.146 121.864 268.146 120.626ZM271.762 121.202C271.762 122.354 272.136 123.25 272.882 123.89C273.65 124.509 274.685 124.818 275.986 124.818C277.288 124.818 278.322 124.509 279.09 123.89C279.858 123.25 280.242 122.354 280.242 121.202C280.242 120.05 279.848 119.154 279.058 118.514C278.29 117.874 277.266 117.554 275.986 117.554C274.706 117.554 273.682 117.874 272.914 118.514C272.146 119.154 271.762 120.05 271.762 121.202ZM271.122 131.378C271.122 132.68 271.56 133.704 272.434 134.45C273.309 135.176 274.493 135.538 275.986 135.538C277.48 135.538 278.664 135.176 279.538 134.45C280.413 133.704 280.85 132.68 280.85 131.378C280.85 130.056 280.392 129.064 279.474 128.402C278.578 127.72 277.416 127.378 275.986 127.378C274.578 127.378 273.416 127.72 272.498 128.402C271.581 129.085 271.122 130.077 271.122 131.378ZM300.142 121.458C299.758 118.941 298.446 117.682 296.206 117.682C294.584 117.682 293.368 118.333 292.558 119.634C291.747 120.914 291.342 122.93 291.342 125.682L291.374 126.77C291.694 125.618 292.387 124.701 293.454 124.018C294.52 123.336 295.779 122.994 297.23 122.994C299.448 122.994 301.187 123.656 302.446 124.978C303.704 126.301 304.334 128.168 304.334 130.578C304.334 132.029 304.046 133.33 303.47 134.482C302.894 135.613 302.03 136.52 300.878 137.202C299.726 137.864 298.307 138.194 296.622 138.194C293.358 138.194 291.118 137.181 289.902 135.154C288.686 133.128 288.078 130.344 288.078 126.802C288.078 122.749 288.728 119.72 290.03 117.714C291.331 115.709 293.464 114.706 296.43 114.706C298.648 114.706 300.344 115.336 301.518 116.594C302.712 117.853 303.406 119.474 303.598 121.458H300.142ZM291.694 130.162C291.694 131.549 292.099 132.712 292.91 133.65C293.72 134.568 294.915 135.026 296.494 135.026C297.838 135.026 298.904 134.632 299.694 133.842C300.504 133.053 300.91 131.954 300.91 130.546C300.91 129.032 300.504 127.869 299.694 127.058C298.883 126.248 297.784 125.842 296.398 125.842C295.139 125.842 294.04 126.216 293.102 126.962C292.163 127.709 291.694 128.776 291.694 130.162Z" fill="white"/>
<path d="M122.125 770.92V743.668H122.812L135.188 769.103H135.875V741.851M118 752.752H140M118 760.019H140" stroke="white" stroke-width="3"/>
<path d="M128.86 172.49H124.64V176.75H122.86V172.49H118.66V170.83H122.86V166.55H124.64V170.83H128.86V172.49ZM138.623 168.63C138.517 167.79 138.23 167.144 137.763 166.69C137.31 166.224 136.677 165.99 135.863 165.99C134.73 165.99 133.87 166.43 133.283 167.31C132.71 168.19 132.423 169.584 132.423 171.49L132.443 172.23C132.643 171.43 133.103 170.797 133.823 170.33C134.543 169.85 135.39 169.61 136.363 169.61C137.763 169.61 138.857 170.03 139.643 170.87C140.443 171.71 140.843 172.884 140.843 174.39C140.843 175.27 140.67 176.07 140.323 176.79C139.977 177.497 139.443 178.064 138.723 178.49C138.017 178.904 137.137 179.11 136.083 179.11C134.07 179.11 132.683 178.477 131.923 177.21C131.177 175.944 130.803 174.224 130.803 172.05C130.803 169.544 131.203 167.664 132.003 166.41C132.817 165.144 134.137 164.51 135.963 164.51C137.31 164.51 138.343 164.89 139.063 165.65C139.797 166.41 140.23 167.404 140.363 168.63H138.623ZM132.643 174.09C132.643 175.064 132.923 175.884 133.483 176.55C134.057 177.204 134.91 177.53 136.043 177.53C136.977 177.53 137.723 177.257 138.283 176.71C138.843 176.15 139.123 175.37 139.123 174.37C139.123 173.29 138.843 172.47 138.283 171.91C137.723 171.337 136.95 171.05 135.963 171.05C135.403 171.05 134.87 171.164 134.363 171.39C133.857 171.617 133.443 171.964 133.123 172.43C132.803 172.884 132.643 173.437 132.643 174.09ZM144.745 176.83V178.97H142.545V176.83H144.745ZM151.343 164.49C152.25 164.49 153.03 164.65 153.683 164.97C154.337 165.29 154.83 165.73 155.163 166.29C155.497 166.85 155.663 167.484 155.663 168.19C155.663 169.07 155.403 169.81 154.883 170.41C154.377 171.01 153.63 171.37 152.643 171.49V171.61C153.67 171.877 154.47 172.29 155.043 172.85C155.63 173.41 155.923 174.184 155.923 175.17C155.923 176.33 155.537 177.277 154.763 178.01C153.99 178.744 152.877 179.11 151.423 179.11C149.97 179.11 148.79 178.737 147.883 177.99C146.99 177.23 146.463 176.124 146.303 174.67H148.103C148.223 175.55 148.557 176.25 149.103 176.77C149.663 177.29 150.417 177.55 151.363 177.55C152.257 177.55 152.943 177.324 153.423 176.87C153.903 176.404 154.143 175.804 154.143 175.07C154.143 174.19 153.797 173.524 153.103 173.07C152.423 172.604 151.45 172.37 150.183 172.37H149.703V170.85H150.183C152.637 170.85 153.863 170.03 153.863 168.39C153.863 167.67 153.637 167.097 153.183 166.67C152.73 166.244 152.103 166.03 151.303 166.03C150.503 166.03 149.83 166.264 149.283 166.73C148.737 167.184 148.417 167.857 148.323 168.75H146.543C146.637 167.417 147.097 166.377 147.923 165.63C148.763 164.87 149.903 164.49 151.343 164.49ZM157.981 177.57C160.247 176.05 162.061 174.544 163.421 173.05C164.781 171.544 165.461 170.144 165.461 168.85C165.461 168.05 165.254 167.41 164.841 166.93C164.441 166.437 163.787 166.19 162.881 166.19C161.947 166.19 161.241 166.49 160.761 167.09C160.281 167.677 160.014 168.49 159.961 169.53H158.161C158.254 167.957 158.741 166.75 159.621 165.91C160.501 165.057 161.634 164.63 163.021 164.63C164.341 164.63 165.387 164.984 166.161 165.69C166.934 166.397 167.321 167.397 167.321 168.69C167.321 169.757 166.974 170.844 166.281 171.95C165.601 173.044 164.741 174.064 163.701 175.01C162.674 175.944 161.614 176.737 160.521 177.39H167.681V178.89H157.981V177.57Z" fill="#4DE800"/>
<path d="M182.7 177.37V178.97H181.34C180.22 178.97 179.38 178.704 178.82 178.17C178.273 177.637 178 176.744 178 175.49V169.57H176.36V167.99H178V165.25H179.84V167.99H182.68V169.57H179.84V175.53C179.84 176.237 179.967 176.724 180.22 176.99C180.487 177.244 180.94 177.37 181.58 177.37H182.7ZM190.701 167.81C191.981 167.81 193.014 168.224 193.801 169.05C194.588 169.864 194.981 171.044 194.981 172.59V178.97H193.161V172.75C193.161 171.657 192.881 170.817 192.321 170.23C191.761 169.644 191.001 169.35 190.041 169.35C189.041 169.35 188.241 169.677 187.641 170.33C187.041 170.97 186.741 171.91 186.741 173.15V178.97H184.921V164.17H186.741V170.59C187.021 169.697 187.514 169.01 188.221 168.53C188.941 168.05 189.768 167.81 190.701 167.81ZM202.273 167.85C203.339 167.85 204.239 168.117 204.973 168.65C205.719 169.184 206.239 169.897 206.533 170.79V167.99H208.353V178.97H206.533V176.17C206.239 177.064 205.719 177.777 204.973 178.31C204.239 178.844 203.339 179.11 202.273 179.11C201.299 179.11 200.433 178.884 199.673 178.43C198.913 177.977 198.313 177.33 197.873 176.49C197.446 175.637 197.233 174.637 197.233 173.49C197.233 172.344 197.446 171.344 197.873 170.49C198.313 169.637 198.913 168.984 199.673 168.53C200.433 168.077 201.299 167.85 202.273 167.85ZM202.793 169.47C201.673 169.47 200.773 169.83 200.093 170.55C199.426 171.257 199.093 172.237 199.093 173.49C199.093 174.744 199.426 175.73 200.093 176.45C200.773 177.157 201.673 177.51 202.793 177.51C203.513 177.51 204.153 177.344 204.713 177.01C205.286 176.677 205.733 176.21 206.053 175.61C206.373 174.997 206.533 174.29 206.533 173.49C206.533 172.69 206.373 171.984 206.053 171.37C205.733 170.757 205.286 170.29 204.713 169.97C204.153 169.637 203.513 169.47 202.793 169.47ZM217.029 167.81C218.309 167.81 219.342 168.224 220.129 169.05C220.916 169.864 221.309 171.044 221.309 172.59V178.97H219.489V172.75C219.489 171.657 219.209 170.817 218.649 170.23C218.089 169.644 217.329 169.35 216.369 169.35C215.369 169.35 214.569 169.677 213.969 170.33C213.369 170.97 213.069 171.91 213.069 173.15V178.97H211.249V167.99H213.069V170.59C213.349 169.697 213.842 169.01 214.549 168.53C215.269 168.05 216.096 167.81 217.029 167.81ZM230.862 164.17V178.97H229.042V164.17H230.862ZM238.288 167.85C239.355 167.85 240.255 168.117 240.988 168.65C241.735 169.184 242.255 169.897 242.548 170.79V167.99H244.368V178.97H242.548V176.17C242.255 177.064 241.735 177.777 240.988 178.31C240.255 178.844 239.355 179.11 238.288 179.11C237.315 179.11 236.448 178.884 235.688 178.43C234.928 177.977 234.328 177.33 233.888 176.49C233.461 175.637 233.248 174.637 233.248 173.49C233.248 172.344 233.461 171.344 233.888 170.49C234.328 169.637 234.928 168.984 235.688 168.53C236.448 168.077 237.315 167.85 238.288 167.85ZM238.808 169.47C237.688 169.47 236.788 169.83 236.108 170.55C235.441 171.257 235.108 172.237 235.108 173.49C235.108 174.744 235.441 175.73 236.108 176.45C236.788 177.157 237.688 177.51 238.808 177.51C239.528 177.51 240.168 177.344 240.728 177.01C241.301 176.677 241.748 176.21 242.068 175.61C242.388 174.997 242.548 174.29 242.548 173.49C242.548 172.69 242.388 171.984 242.068 171.37C241.748 170.757 241.301 170.29 240.728 169.97C240.168 169.637 239.528 169.47 238.808 169.47ZM250.705 167.85C251.945 167.85 252.938 168.177 253.685 168.83C254.445 169.47 254.905 170.337 255.065 171.43H253.325C253.245 170.777 252.971 170.244 252.505 169.83C252.051 169.404 251.438 169.19 250.665 169.19C250.011 169.19 249.498 169.35 249.125 169.67C248.765 169.977 248.585 170.397 248.585 170.93C248.585 171.33 248.705 171.657 248.945 171.91C249.198 172.15 249.505 172.337 249.865 172.47C250.238 172.59 250.745 172.724 251.385 172.87C252.198 173.057 252.851 173.25 253.345 173.45C253.851 173.637 254.278 173.944 254.625 174.37C254.985 174.797 255.165 175.37 255.165 176.09C255.165 176.984 254.825 177.71 254.145 178.27C253.478 178.83 252.585 179.11 251.465 179.11C250.158 179.11 249.091 178.797 248.265 178.17C247.438 177.544 246.951 176.67 246.805 175.55H248.565C248.631 176.217 248.918 176.757 249.425 177.17C249.945 177.584 250.625 177.79 251.465 177.79C252.091 177.79 252.578 177.63 252.925 177.31C253.285 176.99 253.465 176.57 253.465 176.05C253.465 175.624 253.338 175.284 253.085 175.03C252.831 174.777 252.518 174.584 252.145 174.45C251.771 174.317 251.258 174.177 250.605 174.03C249.791 173.844 249.138 173.657 248.645 173.47C248.165 173.284 247.751 172.99 247.405 172.59C247.071 172.177 246.905 171.624 246.905 170.93C246.905 170.01 247.245 169.27 247.925 168.71C248.605 168.137 249.531 167.85 250.705 167.85ZM262.837 177.37V178.97H261.477C260.357 178.97 259.517 178.704 258.957 178.17C258.41 177.637 258.137 176.744 258.137 175.49V169.57H256.497V167.99H258.137V165.25H259.977V167.99H262.817V169.57H259.977V175.53C259.977 176.237 260.103 176.724 260.357 176.99C260.623 177.244 261.077 177.37 261.717 177.37H262.837ZM283.499 167.81C284.779 167.81 285.806 168.224 286.579 169.05C287.366 169.864 287.759 171.044 287.759 172.59V178.97H285.939V172.75C285.939 171.67 285.672 170.844 285.139 170.27C284.619 169.697 283.899 169.41 282.979 169.41C282.019 169.41 281.246 169.73 280.659 170.37C280.086 170.997 279.799 171.924 279.799 173.15V178.97H277.979V172.75C277.979 171.67 277.712 170.844 277.179 170.27C276.646 169.697 275.926 169.41 275.019 169.41C274.046 169.41 273.266 169.73 272.679 170.37C272.106 170.997 271.819 171.924 271.819 173.15V178.97H269.999V167.99H271.819V170.49C272.086 169.624 272.559 168.964 273.239 168.51C273.932 168.044 274.726 167.81 275.619 167.81C276.552 167.81 277.359 168.05 278.039 168.53C278.732 168.997 279.226 169.69 279.519 170.61C279.826 169.717 280.339 169.03 281.059 168.55C281.779 168.057 282.592 167.81 283.499 167.81ZM295.565 167.85C296.618 167.85 297.558 168.077 298.385 168.53C299.225 168.984 299.878 169.637 300.345 170.49C300.825 171.344 301.065 172.344 301.065 173.49C301.065 174.637 300.825 175.637 300.345 176.49C299.878 177.33 299.225 177.977 298.385 178.43C297.558 178.884 296.618 179.11 295.565 179.11C294.512 179.11 293.565 178.884 292.725 178.43C291.898 177.977 291.245 177.33 290.765 176.49C290.285 175.637 290.045 174.637 290.045 173.49C290.045 172.344 290.285 171.344 290.765 170.49C291.245 169.637 291.898 168.984 292.725 168.53C293.565 168.077 294.512 167.85 295.565 167.85ZM295.565 169.45C294.912 169.45 294.305 169.597 293.745 169.89C293.198 170.184 292.752 170.637 292.405 171.25C292.072 171.85 291.905 172.597 291.905 173.49C291.905 174.37 292.072 175.117 292.405 175.73C292.752 176.33 293.198 176.777 293.745 177.07C294.305 177.364 294.912 177.51 295.565 177.51C296.218 177.51 296.818 177.364 297.365 177.07C297.925 176.777 298.372 176.33 298.705 175.73C299.052 175.117 299.225 174.37 299.225 173.49C299.225 172.597 299.052 171.85 298.705 171.25C298.372 170.637 297.925 170.184 297.365 169.89C296.818 169.597 296.218 169.45 295.565 169.45ZM309.217 167.81C310.497 167.81 311.53 168.224 312.317 169.05C313.103 169.864 313.497 171.044 313.497 172.59V178.97H311.677V172.75C311.677 171.657 311.397 170.817 310.837 170.23C310.277 169.644 309.517 169.35 308.557 169.35C307.557 169.35 306.757 169.677 306.157 170.33C305.557 170.97 305.257 171.91 305.257 173.15V178.97H303.437V167.99H305.257V170.59C305.537 169.697 306.03 169.01 306.737 168.53C307.457 168.05 308.283 167.81 309.217 167.81ZM321.528 177.37V178.97H320.168C319.048 178.97 318.208 178.704 317.648 178.17C317.101 177.637 316.828 176.744 316.828 175.49V169.57H315.188V167.99H316.828V165.25H318.668V167.99H321.508V169.57H318.668V175.53C318.668 176.237 318.795 176.724 319.048 176.99C319.315 177.244 319.768 177.37 320.408 177.37H321.528ZM329.529 167.81C330.809 167.81 331.842 168.224 332.629 169.05C333.416 169.864 333.809 171.044 333.809 172.59V178.97H331.989V172.75C331.989 171.657 331.709 170.817 331.149 170.23C330.589 169.644 329.829 169.35 328.869 169.35C327.869 169.35 327.069 169.677 326.469 170.33C325.869 170.97 325.569 171.91 325.569 173.15V178.97H323.749V164.17H325.569V170.59C325.849 169.697 326.342 169.01 327.049 168.53C327.769 168.05 328.596 167.81 329.529 167.81Z" fill="#B7B7B7"/>
<path d="M121.66 80.8502V94.9702H119.38V80.8502H121.66ZM130.579 83.7702C131.859 83.7702 132.886 84.1835 133.659 85.0102C134.432 85.8369 134.819 87.0169 134.819 88.5502V94.9702H132.539V88.7902C132.539 87.8035 132.286 87.0435 131.779 86.5102C131.272 85.9635 130.579 85.6902 129.699 85.6902C128.792 85.6902 128.066 85.9835 127.519 86.5702C126.972 87.1435 126.699 87.9902 126.699 89.1102V94.9702H124.419V83.9502H126.699V86.3702C126.992 85.5435 127.486 84.9035 128.179 84.4502C128.872 83.9969 129.672 83.7702 130.579 83.7702ZM142.385 83.8102C143.812 83.8102 144.992 84.1902 145.925 84.9502C146.859 85.6969 147.439 86.7169 147.665 88.0102H145.245C145.112 87.3169 144.785 86.7769 144.265 86.3902C143.759 85.9902 143.119 85.7902 142.345 85.7902C141.465 85.7902 140.732 86.1035 140.145 86.7302C139.559 87.3435 139.265 88.2502 139.265 89.4502C139.265 90.6502 139.559 91.5635 140.145 92.1902C140.732 92.8169 141.465 93.1302 142.345 93.1302C143.119 93.1302 143.759 92.9302 144.265 92.5302C144.785 92.1302 145.112 91.5835 145.245 90.8902H147.665C147.439 92.1835 146.859 93.2102 145.925 93.9702C144.992 94.7302 143.812 95.1102 142.385 95.1102C141.319 95.1102 140.372 94.8835 139.545 94.4302C138.732 93.9769 138.092 93.3235 137.625 92.4702C137.159 91.6169 136.925 90.6102 136.925 89.4502C136.925 88.3035 137.159 87.3035 137.625 86.4502C138.092 85.5969 138.732 84.9435 139.545 84.4902C140.372 84.0369 141.319 83.8102 142.385 83.8102ZM154.908 83.8102C155.975 83.8102 156.935 84.0369 157.788 84.4902C158.642 84.9435 159.308 85.5969 159.788 86.4502C160.268 87.3035 160.508 88.3035 160.508 89.4502C160.508 90.6102 160.268 91.6169 159.788 92.4702C159.308 93.3235 158.642 93.9769 157.788 94.4302C156.935 94.8835 155.975 95.1102 154.908 95.1102C153.842 95.1102 152.882 94.8835 152.028 94.4302C151.188 93.9769 150.522 93.3235 150.028 92.4702C149.548 91.6035 149.308 90.5969 149.308 89.4502C149.308 88.3035 149.548 87.3035 150.028 86.4502C150.522 85.5969 151.188 84.9435 152.028 84.4902C152.882 84.0369 153.842 83.8102 154.908 83.8102ZM154.908 85.7902C154.322 85.7902 153.782 85.9235 153.288 86.1902C152.795 86.4569 152.395 86.8702 152.088 87.4302C151.795 87.9769 151.648 88.6502 151.648 89.4502C151.648 90.2635 151.795 90.9435 152.088 91.4902C152.395 92.0369 152.795 92.4435 153.288 92.7102C153.782 92.9769 154.322 93.1102 154.908 93.1102C155.495 93.1102 156.035 92.9769 156.528 92.7102C157.022 92.4435 157.415 92.0369 157.708 91.4902C158.015 90.9435 158.168 90.2635 158.168 89.4502C158.168 88.6502 158.015 87.9769 157.708 87.4302C157.415 86.8702 157.022 86.4569 156.528 86.1902C156.035 85.9235 155.495 85.7902 154.908 85.7902ZM176.48 83.7702C177.787 83.7702 178.827 84.1835 179.6 85.0102C180.387 85.8369 180.78 87.0169 180.78 88.5502V94.9702H178.5V88.7902C178.5 87.8302 178.26 87.0902 177.78 86.5702C177.3 86.0369 176.64 85.7702 175.8 85.7702C174.907 85.7702 174.194 86.0569 173.66 86.6302C173.14 87.1902 172.88 88.0169 172.88 89.1102V94.9702H170.6V88.7902C170.6 87.8302 170.36 87.0902 169.88 86.5702C169.4 86.0369 168.74 85.7702 167.9 85.7702C167.007 85.7702 166.294 86.0569 165.76 86.6302C165.24 87.1902 164.98 88.0169 164.98 89.1102V94.9702H162.7V83.9502H164.98V86.2502C165.26 85.4502 165.727 84.8369 166.38 84.4102C167.034 83.9835 167.8 83.7702 168.68 83.7702C169.6 83.7702 170.394 83.9969 171.06 84.4502C171.74 84.9035 172.234 85.5569 172.54 86.4102C172.86 85.5835 173.374 84.9369 174.08 84.4702C174.787 84.0035 175.587 83.7702 176.48 83.7702ZM193.683 88.9302C193.683 89.3035 193.656 89.6302 193.603 89.9102H185.123C185.163 91.0435 185.476 91.8835 186.063 92.4302C186.649 92.9769 187.376 93.2502 188.243 93.2502C189.003 93.2502 189.643 93.0569 190.163 92.6702C190.696 92.2835 191.023 91.7702 191.143 91.1302H193.583C193.436 91.9035 193.129 92.5902 192.663 93.1902C192.196 93.7902 191.589 94.2635 190.843 94.6102C190.096 94.9435 189.263 95.1102 188.343 95.1102C187.276 95.1102 186.329 94.8835 185.503 94.4302C184.689 93.9769 184.049 93.3235 183.583 92.4702C183.116 91.6169 182.883 90.6102 182.883 89.4502C182.883 88.3035 183.116 87.3035 183.583 86.4502C184.049 85.5969 184.689 84.9435 185.503 84.4902C186.329 84.0369 187.276 83.8102 188.343 83.8102C189.423 83.8102 190.363 84.0369 191.163 84.4902C191.976 84.9302 192.596 85.5435 193.023 86.3302C193.463 87.1035 193.683 87.9702 193.683 88.9302ZM191.383 88.8702C191.409 88.1502 191.283 87.5502 191.003 87.0702C190.736 86.5769 190.363 86.2169 189.883 85.9902C189.416 85.7502 188.903 85.6302 188.343 85.6302C187.449 85.6302 186.703 85.9035 186.103 86.4502C185.503 86.9969 185.176 87.8035 185.123 88.8702H191.383Z" fill="white"/>
<path d="M548.392 118.002L539.976 137.97H536.136L544.68 118.418H533.48V115.25H548.392V118.002ZM550.339 133.106V130.034L561.571 115.186H565.475V129.906H568.643V133.106H565.475V137.97H561.795V133.106H550.339ZM562.051 119.538L554.115 129.906H562.051V119.538ZM570.811 135.122C574.267 132.754 577.03 130.44 579.099 128.178C581.19 125.896 582.235 123.784 582.235 121.842C582.235 120.69 581.947 119.773 581.371 119.09C580.817 118.408 579.91 118.066 578.651 118.066C577.35 118.066 576.369 118.493 575.707 119.346C575.046 120.178 574.673 121.373 574.587 122.93H571.035C571.185 120.349 571.974 118.376 573.403 117.01C574.854 115.645 576.699 114.962 578.939 114.962C581.137 114.962 582.854 115.549 584.091 116.722C585.35 117.874 585.979 119.474 585.979 121.522C585.979 123.165 585.467 124.829 584.443 126.514C583.441 128.2 582.161 129.757 580.603 131.186C579.046 132.594 577.435 133.81 575.771 134.834H586.491V137.81H570.811V135.122ZM592.136 135.474C592.52 136.456 592.712 137.469 592.712 138.514C592.712 139.709 592.402 140.68 591.784 141.426C591.165 142.194 590.226 142.578 588.968 142.578V141.106C589.501 141.106 589.896 140.968 590.152 140.69C590.408 140.413 590.536 139.944 590.536 139.282V138.994H588.68V135.474H592.136ZM594.291 118.802V115.378H601.523V137.97H597.683V118.802H594.291ZM621 118.258H609.832V124.978C610.344 124.317 611.069 123.794 612.008 123.41C612.946 123.005 613.981 122.802 615.112 122.802C616.69 122.802 618.002 123.144 619.048 123.826C620.093 124.488 620.861 125.373 621.352 126.482C621.864 127.592 622.12 128.818 622.12 130.162C622.12 132.53 621.458 134.45 620.135 135.922C618.813 137.373 616.893 138.098 614.376 138.098C612.008 138.098 610.098 137.469 608.648 136.21C607.197 134.952 606.408 133.277 606.28 131.186H609.864C610.056 132.338 610.525 133.245 611.272 133.906C612.04 134.568 613.01 134.898 614.184 134.898C615.634 134.898 616.722 134.461 617.448 133.586C618.173 132.712 618.536 131.549 618.536 130.098C618.536 128.733 618.162 127.666 617.416 126.898C616.669 126.109 615.602 125.714 614.216 125.714C613.234 125.714 612.37 125.928 611.624 126.354C610.898 126.781 610.365 127.346 610.024 128.05H606.472V115.026H621V118.258ZM625.32 126.514C625.32 130.12 625.96 132.946 627.24 134.994C628.52 137.021 630.654 138.034 633.64 138.034C636.627 138.034 638.76 137.01 640.04 134.962C641.32 132.914 641.96 130.098 641.96 126.514C641.96 122.952 641.32 120.157 640.04 118.13C638.76 116.082 636.627 115.058 633.64 115.058C630.654 115.058 628.52 116.072 627.24 118.098C625.96 120.125 625.32 122.93 625.32 126.514ZM638.312 126.514C638.312 129.117 637.992 131.112 637.352 132.498C636.712 133.885 635.475 134.578 633.64 134.578C631.784 134.578 630.536 133.885 629.896 132.498C629.256 131.112 628.936 129.117 628.936 126.514C628.936 123.933 629.256 121.96 629.896 120.594C630.536 119.229 631.784 118.546 633.64 118.546C635.475 118.546 636.712 119.24 637.352 120.626C637.992 121.992 638.312 123.954 638.312 126.514ZM648.682 133.938V137.97H644.554V133.938H648.682ZM651.928 120.626C651.928 119.517 652.226 118.504 652.824 117.586C653.421 116.669 654.306 115.933 655.48 115.378C656.674 114.824 658.104 114.546 659.768 114.546C661.432 114.546 662.85 114.824 664.024 115.378C665.218 115.933 666.114 116.669 666.712 117.586C667.33 118.504 667.64 119.517 667.64 120.626C667.64 121.864 667.309 122.93 666.648 123.826C666.008 124.722 665.048 125.373 663.768 125.778C665.197 126.226 666.296 126.952 667.064 127.954C667.832 128.936 668.216 130.141 668.216 131.57C668.216 133.768 667.437 135.485 665.88 136.722C664.322 137.938 662.285 138.546 659.768 138.546C657.25 138.546 655.213 137.938 653.656 136.722C652.12 135.485 651.352 133.768 651.352 131.57C651.352 130.141 651.736 128.936 652.504 127.954C653.272 126.952 654.37 126.226 655.8 125.778C654.52 125.373 653.549 124.722 652.888 123.826C652.248 122.93 651.928 121.864 651.928 120.626ZM655.544 121.202C655.544 122.354 655.917 123.25 656.664 123.89C657.432 124.509 658.466 124.818 659.768 124.818C661.069 124.818 662.104 124.509 662.872 123.89C663.64 123.25 664.024 122.354 664.024 121.202C664.024 120.05 663.629 119.154 662.84 118.514C662.072 117.874 661.048 117.554 659.768 117.554C658.488 117.554 657.464 117.874 656.696 118.514C655.928 119.154 655.544 120.05 655.544 121.202ZM654.904 131.378C654.904 132.68 655.341 133.704 656.216 134.45C657.09 135.176 658.274 135.538 659.768 135.538C661.261 135.538 662.445 135.176 663.32 134.45C664.194 133.704 664.632 132.68 664.632 131.378C664.632 130.056 664.173 129.064 663.256 128.402C662.36 127.72 661.197 127.378 659.768 127.378C658.36 127.378 657.197 127.72 656.28 128.402C655.362 129.085 654.904 130.077 654.904 131.378ZM683.923 121.458C683.539 118.941 682.227 117.682 679.987 117.682C678.366 117.682 677.15 118.333 676.339 119.634C675.528 120.914 675.123 122.93 675.123 125.682L675.155 126.77C675.475 125.618 676.168 124.701 677.235 124.018C678.302 123.336 679.56 122.994 681.011 122.994C683.23 122.994 684.968 123.656 686.227 124.978C687.486 126.301 688.115 128.168 688.115 130.578C688.115 132.029 687.827 133.33 687.251 134.482C686.675 135.613 685.811 136.52 684.659 137.202C683.507 137.864 682.088 138.194 680.403 138.194C677.139 138.194 674.899 137.181 673.683 135.154C672.467 133.128 671.859 130.344 671.859 126.802C671.859 122.749 672.51 119.72 673.811 117.714C675.112 115.709 677.246 114.706 680.211 114.706C682.43 114.706 684.126 115.336 685.299 116.594C686.494 117.853 687.187 119.474 687.379 121.458H683.923ZM675.475 130.162C675.475 131.549 675.88 132.712 676.691 133.65C677.502 134.568 678.696 135.026 680.275 135.026C681.619 135.026 682.686 134.632 683.475 133.842C684.286 133.053 684.691 131.954 684.691 130.546C684.691 129.032 684.286 127.869 683.475 127.058C682.664 126.248 681.566 125.842 680.179 125.842C678.92 125.842 677.822 126.216 676.883 126.962C675.944 127.709 675.475 128.776 675.475 130.162Z" fill="black"/>
<path d="M512.375 137.97V116.408H512.938L523.062 136.533H523.625V114.97M509 123.595H527M509 129.345H527" stroke="black" stroke-width="3"/>
<path d="M126.375 137.97V116.408H126.938L137.062 136.533H137.625V114.97M123 123.595H141M123 129.345H141" stroke="white" stroke-width="3"/>
<path d="M516.86 172.49H512.64V176.75H510.86V172.49H506.66V170.83H510.86V166.55H512.64V170.83H516.86V172.49ZM526.623 168.63C526.517 167.79 526.23 167.144 525.763 166.69C525.31 166.224 524.677 165.99 523.863 165.99C522.73 165.99 521.87 166.43 521.283 167.31C520.71 168.19 520.423 169.584 520.423 171.49L520.443 172.23C520.643 171.43 521.103 170.797 521.823 170.33C522.543 169.85 523.39 169.61 524.363 169.61C525.763 169.61 526.857 170.03 527.643 170.87C528.443 171.71 528.843 172.884 528.843 174.39C528.843 175.27 528.67 176.07 528.323 176.79C527.977 177.497 527.443 178.064 526.723 178.49C526.017 178.904 525.137 179.11 524.083 179.11C522.07 179.11 520.683 178.477 519.923 177.21C519.177 175.944 518.803 174.224 518.803 172.05C518.803 169.544 519.203 167.664 520.003 166.41C520.817 165.144 522.137 164.51 523.963 164.51C525.31 164.51 526.343 164.89 527.063 165.65C527.797 166.41 528.23 167.404 528.363 168.63H526.623ZM520.643 174.09C520.643 175.064 520.923 175.884 521.483 176.55C522.057 177.204 522.91 177.53 524.043 177.53C524.977 177.53 525.723 177.257 526.283 176.71C526.843 176.15 527.123 175.37 527.123 174.37C527.123 173.29 526.843 172.47 526.283 171.91C525.723 171.337 524.95 171.05 523.963 171.05C523.403 171.05 522.87 171.164 522.363 171.39C521.857 171.617 521.443 171.964 521.123 172.43C520.803 172.884 520.643 173.437 520.643 174.09ZM532.745 176.83V178.97H530.545V176.83H532.745ZM539.343 164.49C540.25 164.49 541.03 164.65 541.683 164.97C542.337 165.29 542.83 165.73 543.163 166.29C543.497 166.85 543.663 167.484 543.663 168.19C543.663 169.07 543.403 169.81 542.883 170.41C542.377 171.01 541.63 171.37 540.643 171.49V171.61C541.67 171.877 542.47 172.29 543.043 172.85C543.63 173.41 543.923 174.184 543.923 175.17C543.923 176.33 543.537 177.277 542.763 178.01C541.99 178.744 540.877 179.11 539.423 179.11C537.97 179.11 536.79 178.737 535.883 177.99C534.99 177.23 534.463 176.124 534.303 174.67H536.103C536.223 175.55 536.557 176.25 537.103 176.77C537.663 177.29 538.417 177.55 539.363 177.55C540.257 177.55 540.943 177.324 541.423 176.87C541.903 176.404 542.143 175.804 542.143 175.07C542.143 174.19 541.797 173.524 541.103 173.07C540.423 172.604 539.45 172.37 538.183 172.37H537.703V170.85H538.183C540.637 170.85 541.863 170.03 541.863 168.39C541.863 167.67 541.637 167.097 541.183 166.67C540.73 166.244 540.103 166.03 539.303 166.03C538.503 166.03 537.83 166.264 537.283 166.73C536.737 167.184 536.417 167.857 536.323 168.75H534.543C534.637 167.417 535.097 166.377 535.923 165.63C536.763 164.87 537.903 164.49 539.343 164.49ZM545.981 177.57C548.247 176.05 550.061 174.544 551.421 173.05C552.781 171.544 553.461 170.144 553.461 168.85C553.461 168.05 553.254 167.41 552.841 166.93C552.441 166.437 551.787 166.19 550.881 166.19C549.947 166.19 549.241 166.49 548.761 167.09C548.281 167.677 548.014 168.49 547.961 169.53H546.161C546.254 167.957 546.741 166.75 547.621 165.91C548.501 165.057 549.634 164.63 551.021 164.63C552.341 164.63 553.387 164.984 554.161 165.69C554.934 166.397 555.321 167.397 555.321 168.69C555.321 169.757 554.974 170.844 554.281 171.95C553.601 173.044 552.741 174.064 551.701 175.01C550.674 175.944 549.614 176.737 548.521 177.39H555.681V178.89H545.981V177.57Z" fill="#42C800"/>
<path d="M570.7 177.37V178.97H569.34C568.22 178.97 567.38 178.704 566.82 178.17C566.273 177.637 566 176.744 566 175.49V169.57H564.36V167.99H566V165.25H567.84V167.99H570.68V169.57H567.84V175.53C567.84 176.237 567.967 176.724 568.22 176.99C568.487 177.244 568.94 177.37 569.58 177.37H570.7ZM578.701 167.81C579.981 167.81 581.014 168.224 581.801 169.05C582.588 169.864 582.981 171.044 582.981 172.59V178.97H581.161V172.75C581.161 171.657 580.881 170.817 580.321 170.23C579.761 169.644 579.001 169.35 578.041 169.35C577.041 169.35 576.241 169.677 575.641 170.33C575.041 170.97 574.741 171.91 574.741 173.15V178.97H572.921V164.17H574.741V170.59C575.021 169.697 575.514 169.01 576.221 168.53C576.941 168.05 577.768 167.81 578.701 167.81ZM590.273 167.85C591.339 167.85 592.239 168.117 592.973 168.65C593.719 169.184 594.239 169.897 594.533 170.79V167.99H596.353V178.97H594.533V176.17C594.239 177.064 593.719 177.777 592.973 178.31C592.239 178.844 591.339 179.11 590.273 179.11C589.299 179.11 588.433 178.884 587.673 178.43C586.913 177.977 586.313 177.33 585.873 176.49C585.446 175.637 585.233 174.637 585.233 173.49C585.233 172.344 585.446 171.344 585.873 170.49C586.313 169.637 586.913 168.984 587.673 168.53C588.433 168.077 589.299 167.85 590.273 167.85ZM590.793 169.47C589.673 169.47 588.773 169.83 588.093 170.55C587.426 171.257 587.093 172.237 587.093 173.49C587.093 174.744 587.426 175.73 588.093 176.45C588.773 177.157 589.673 177.51 590.793 177.51C591.513 177.51 592.153 177.344 592.713 177.01C593.286 176.677 593.733 176.21 594.053 175.61C594.373 174.997 594.533 174.29 594.533 173.49C594.533 172.69 594.373 171.984 594.053 171.37C593.733 170.757 593.286 170.29 592.713 169.97C592.153 169.637 591.513 169.47 590.793 169.47ZM605.029 167.81C606.309 167.81 607.342 168.224 608.129 169.05C608.916 169.864 609.309 171.044 609.309 172.59V178.97H607.489V172.75C607.489 171.657 607.209 170.817 606.649 170.23C606.089 169.644 605.329 169.35 604.369 169.35C603.369 169.35 602.569 169.677 601.969 170.33C601.369 170.97 601.069 171.91 601.069 173.15V178.97H599.249V167.99H601.069V170.59C601.349 169.697 601.842 169.01 602.549 168.53C603.269 168.05 604.096 167.81 605.029 167.81ZM618.862 164.17V178.97H617.042V164.17H618.862ZM626.288 167.85C627.355 167.85 628.255 168.117 628.988 168.65C629.735 169.184 630.255 169.897 630.548 170.79V167.99H632.368V178.97H630.548V176.17C630.255 177.064 629.735 177.777 628.988 178.31C628.255 178.844 627.355 179.11 626.288 179.11C625.315 179.11 624.448 178.884 623.688 178.43C622.928 177.977 622.328 177.33 621.888 176.49C621.461 175.637 621.248 174.637 621.248 173.49C621.248 172.344 621.461 171.344 621.888 170.49C622.328 169.637 622.928 168.984 623.688 168.53C624.448 168.077 625.315 167.85 626.288 167.85ZM626.808 169.47C625.688 169.47 624.788 169.83 624.108 170.55C623.441 171.257 623.108 172.237 623.108 173.49C623.108 174.744 623.441 175.73 624.108 176.45C624.788 177.157 625.688 177.51 626.808 177.51C627.528 177.51 628.168 177.344 628.728 177.01C629.301 176.677 629.748 176.21 630.068 175.61C630.388 174.997 630.548 174.29 630.548 173.49C630.548 172.69 630.388 171.984 630.068 171.37C629.748 170.757 629.301 170.29 628.728 169.97C628.168 169.637 627.528 169.47 626.808 169.47ZM638.705 167.85C639.945 167.85 640.938 168.177 641.685 168.83C642.445 169.47 642.905 170.337 643.065 171.43H641.325C641.245 170.777 640.971 170.244 640.505 169.83C640.051 169.404 639.438 169.19 638.665 169.19C638.011 169.19 637.498 169.35 637.125 169.67C636.765 169.977 636.585 170.397 636.585 170.93C636.585 171.33 636.705 171.657 636.945 171.91C637.198 172.15 637.505 172.337 637.865 172.47C638.238 172.59 638.745 172.724 639.385 172.87C640.198 173.057 640.851 173.25 641.345 173.45C641.851 173.637 642.278 173.944 642.625 174.37C642.985 174.797 643.165 175.37 643.165 176.09C643.165 176.984 642.825 177.71 642.145 178.27C641.478 178.83 640.585 179.11 639.465 179.11C638.158 179.11 637.091 178.797 636.265 178.17C635.438 177.544 634.951 176.67 634.805 175.55H636.565C636.631 176.217 636.918 176.757 637.425 177.17C637.945 177.584 638.625 177.79 639.465 177.79C640.091 177.79 640.578 177.63 640.925 177.31C641.285 176.99 641.465 176.57 641.465 176.05C641.465 175.624 641.338 175.284 641.085 175.03C640.831 174.777 640.518 174.584 640.145 174.45C639.771 174.317 639.258 174.177 638.605 174.03C637.791 173.844 637.138 173.657 636.645 173.47C636.165 173.284 635.751 172.99 635.405 172.59C635.071 172.177 634.905 171.624 634.905 170.93C634.905 170.01 635.245 169.27 635.925 168.71C636.605 168.137 637.531 167.85 638.705 167.85ZM650.837 177.37V178.97H649.477C648.357 178.97 647.517 178.704 646.957 178.17C646.41 177.637 646.137 176.744 646.137 175.49V169.57H644.497V167.99H646.137V165.25H647.977V167.99H650.817V169.57H647.977V175.53C647.977 176.237 648.103 176.724 648.357 176.99C648.623 177.244 649.077 177.37 649.717 177.37H650.837ZM671.499 167.81C672.779 167.81 673.806 168.224 674.579 169.05C675.366 169.864 675.759 171.044 675.759 172.59V178.97H673.939V172.75C673.939 171.67 673.672 170.844 673.139 170.27C672.619 169.697 671.899 169.41 670.979 169.41C670.019 169.41 669.246 169.73 668.659 170.37C668.086 170.997 667.799 171.924 667.799 173.15V178.97H665.979V172.75C665.979 171.67 665.712 170.844 665.179 170.27C664.646 169.697 663.926 169.41 663.019 169.41C662.046 169.41 661.266 169.73 660.679 170.37C660.106 170.997 659.819 171.924 659.819 173.15V178.97H657.999V167.99H659.819V170.49C660.086 169.624 660.559 168.964 661.239 168.51C661.932 168.044 662.726 167.81 663.619 167.81C664.552 167.81 665.359 168.05 666.039 168.53C666.732 168.997 667.226 169.69 667.519 170.61C667.826 169.717 668.339 169.03 669.059 168.55C669.779 168.057 670.592 167.81 671.499 167.81ZM683.565 167.85C684.618 167.85 685.558 168.077 686.385 168.53C687.225 168.984 687.878 169.637 688.345 170.49C688.825 171.344 689.065 172.344 689.065 173.49C689.065 174.637 688.825 175.637 688.345 176.49C687.878 177.33 687.225 177.977 686.385 178.43C685.558 178.884 684.618 179.11 683.565 179.11C682.512 179.11 681.565 178.884 680.725 178.43C679.898 177.977 679.245 177.33 678.765 176.49C678.285 175.637 678.045 174.637 678.045 173.49C678.045 172.344 678.285 171.344 678.765 170.49C679.245 169.637 679.898 168.984 680.725 168.53C681.565 168.077 682.512 167.85 683.565 167.85ZM683.565 169.45C682.912 169.45 682.305 169.597 681.745 169.89C681.198 170.184 680.752 170.637 680.405 171.25C680.072 171.85 679.905 172.597 679.905 173.49C679.905 174.37 680.072 175.117 680.405 175.73C680.752 176.33 681.198 176.777 681.745 177.07C682.305 177.364 682.912 177.51 683.565 177.51C684.218 177.51 684.818 177.364 685.365 177.07C685.925 176.777 686.372 176.33 686.705 175.73C687.052 175.117 687.225 174.37 687.225 173.49C687.225 172.597 687.052 171.85 686.705 171.25C686.372 170.637 685.925 170.184 685.365 169.89C684.818 169.597 684.218 169.45 683.565 169.45ZM697.217 167.81C698.497 167.81 699.53 168.224 700.317 169.05C701.103 169.864 701.497 171.044 701.497 172.59V178.97H699.677V172.75C699.677 171.657 699.397 170.817 698.837 170.23C698.277 169.644 697.517 169.35 696.557 169.35C695.557 169.35 694.757 169.677 694.157 170.33C693.557 170.97 693.257 171.91 693.257 173.15V178.97H691.437V167.99H693.257V170.59C693.537 169.697 694.03 169.01 694.737 168.53C695.457 168.05 696.283 167.81 697.217 167.81ZM709.528 177.37V178.97H708.168C707.048 178.97 706.208 178.704 705.648 178.17C705.101 177.637 704.828 176.744 704.828 175.49V169.57H703.188V167.99H704.828V165.25H706.668V167.99H709.508V169.57H706.668V175.53C706.668 176.237 706.795 176.724 707.048 176.99C707.315 177.244 707.768 177.37 708.408 177.37H709.528ZM717.529 167.81C718.809 167.81 719.842 168.224 720.629 169.05C721.416 169.864 721.809 171.044 721.809 172.59V178.97H719.989V172.75C719.989 171.657 719.709 170.817 719.149 170.23C718.589 169.644 717.829 169.35 716.869 169.35C715.869 169.35 715.069 169.677 714.469 170.33C713.869 170.97 713.569 171.91 713.569 173.15V178.97H711.749V164.17H713.569V170.59C713.849 169.697 714.342 169.01 715.049 168.53C715.769 168.05 716.596 167.81 717.529 167.81Z" fill="#B7B7B7"/>
<path d="M509.66 82.6902V86.9702H514.86V88.7302H509.66V93.1102H515.46V94.9702H507.38V80.8502H515.46V82.6902H509.66ZM524.193 94.9702L521.493 91.0702L519.133 94.9702H516.593L520.233 89.2502L516.553 83.9502H519.133L521.773 87.7502L524.113 83.9502H526.633L522.993 89.5102L526.773 94.9702H524.193ZM534.677 83.8102C535.637 83.8102 536.49 84.0369 537.237 84.4902C537.997 84.9435 538.59 85.5969 539.017 86.4502C539.443 87.3035 539.657 88.3035 539.657 89.4502C539.657 90.6102 539.443 91.6169 539.017 92.4702C538.59 93.3235 537.997 93.9769 537.237 94.4302C536.49 94.8835 535.637 95.1102 534.677 95.1102C533.677 95.1102 532.823 94.8635 532.117 94.3702C531.41 93.8769 530.917 93.2235 530.637 92.4102V100.21H528.357V83.9502H530.637V86.5102C530.917 85.6969 531.41 85.0435 532.117 84.5502C532.823 84.0569 533.677 83.8102 534.677 83.8102ZM533.977 85.8102C533.337 85.8102 532.763 85.9635 532.257 86.2702C531.75 86.5635 531.35 86.9902 531.057 87.5502C530.763 88.0969 530.617 88.7302 530.617 89.4502C530.617 90.1835 530.763 90.8235 531.057 91.3702C531.35 91.9169 531.75 92.3435 532.257 92.6502C532.763 92.9435 533.337 93.0902 533.977 93.0902C534.99 93.0902 535.803 92.7702 536.417 92.1302C537.03 91.4769 537.337 90.5835 537.337 89.4502C537.337 88.3302 537.03 87.4435 536.417 86.7902C535.803 86.1369 534.99 85.8102 533.977 85.8102ZM552.093 88.9302C552.093 89.3035 552.066 89.6302 552.013 89.9102H543.533C543.573 91.0435 543.886 91.8835 544.473 92.4302C545.059 92.9769 545.786 93.2502 546.653 93.2502C547.413 93.2502 548.053 93.0569 548.573 92.6702C549.106 92.2835 549.433 91.7702 549.553 91.1302H551.993C551.846 91.9035 551.539 92.5902 551.073 93.1902C550.606 93.7902 549.999 94.2635 549.253 94.6102C548.506 94.9435 547.673 95.1102 546.753 95.1102C545.686 95.1102 544.739 94.8835 543.913 94.4302C543.099 93.9769 542.459 93.3235 541.993 92.4702C541.526 91.6169 541.293 90.6102 541.293 89.4502C541.293 88.3035 541.526 87.3035 541.993 86.4502C542.459 85.5969 543.099 84.9435 543.913 84.4902C544.739 84.0369 545.686 83.8102 546.753 83.8102C547.833 83.8102 548.773 84.0369 549.573 84.4902C550.386 84.9302 551.006 85.5435 551.433 86.3302C551.873 87.1035 552.093 87.9702 552.093 88.9302ZM549.793 88.8702C549.819 88.1502 549.693 87.5502 549.413 87.0702C549.146 86.5769 548.773 86.2169 548.293 85.9902C547.826 85.7502 547.313 85.6302 546.753 85.6302C545.859 85.6302 545.113 85.9035 544.513 86.4502C543.913 86.9969 543.586 87.8035 543.533 88.8702H549.793ZM560.454 83.7702C561.734 83.7702 562.761 84.1835 563.534 85.0102C564.307 85.8369 564.694 87.0169 564.694 88.5502V94.9702H562.414V88.7902C562.414 87.8035 562.161 87.0435 561.654 86.5102C561.147 85.9635 560.454 85.6902 559.574 85.6902C558.667 85.6902 557.941 85.9835 557.394 86.5702C556.847 87.1435 556.574 87.9902 556.574 89.1102V94.9702H554.294V83.9502H556.574V86.3702C556.867 85.5435 557.361 84.9035 558.054 84.4502C558.747 83.9969 559.547 83.7702 560.454 83.7702ZM570.98 83.8102C572.274 83.8102 573.307 84.1435 574.08 84.8102C574.867 85.4635 575.347 86.3435 575.52 87.4502H573.36C573.267 86.8502 573.007 86.3702 572.58 86.0102C572.167 85.6369 571.614 85.4502 570.92 85.4502C570.347 85.4502 569.9 85.5902 569.58 85.8702C569.274 86.1369 569.12 86.5035 569.12 86.9702C569.12 87.3169 569.234 87.5969 569.46 87.8102C569.687 88.0235 569.967 88.1902 570.3 88.3102C570.647 88.4302 571.134 88.5635 571.76 88.7102C572.587 88.8969 573.254 89.0902 573.76 89.2902C574.28 89.4902 574.72 89.8102 575.08 90.2502C575.454 90.6769 575.64 91.2635 575.64 92.0102C575.64 92.9302 575.287 93.6769 574.58 94.2502C573.887 94.8235 572.947 95.1102 571.76 95.1102C570.387 95.1102 569.274 94.7902 568.42 94.1502C567.58 93.5102 567.074 92.6169 566.9 91.4702H569.12C569.187 92.0702 569.454 92.5569 569.92 92.9302C570.387 93.3035 571 93.4902 571.76 93.4902C572.307 93.4902 572.734 93.3502 573.04 93.0702C573.36 92.7769 573.52 92.4102 573.52 91.9702C573.52 91.5835 573.4 91.2769 573.16 91.0502C572.92 90.8235 572.62 90.6502 572.26 90.5302C571.9 90.3969 571.407 90.2635 570.78 90.1302C569.98 89.9435 569.327 89.7569 568.82 89.5702C568.327 89.3835 567.9 89.0835 567.54 88.6702C567.194 88.2435 567.02 87.6702 567.02 86.9502C567.02 86.0169 567.367 85.2635 568.06 84.6902C568.767 84.1035 569.74 83.8102 570.98 83.8102ZM588.167 88.9302C588.167 89.3035 588.14 89.6302 588.087 89.9102H579.607C579.647 91.0435 579.96 91.8835 580.547 92.4302C581.134 92.9769 581.86 93.2502 582.727 93.2502C583.487 93.2502 584.127 93.0569 584.647 92.6702C585.18 92.2835 585.507 91.7702 585.627 91.1302H588.067C587.92 91.9035 587.614 92.5902 587.147 93.1902C586.68 93.7902 586.074 94.2635 585.327 94.6102C584.58 94.9435 583.747 95.1102 582.827 95.1102C581.76 95.1102 580.814 94.8835 579.987 94.4302C579.174 93.9769 578.534 93.3235 578.067 92.4702C577.6 91.6169 577.367 90.6102 577.367 89.4502C577.367 88.3035 577.6 87.3035 578.067 86.4502C578.534 85.5969 579.174 84.9435 579.987 84.4902C580.814 84.0369 581.76 83.8102 582.827 83.8102C583.907 83.8102 584.847 84.0369 585.647 84.4902C586.46 84.9302 587.08 85.5435 587.507 86.3302C587.947 87.1035 588.167 87.9702 588.167 88.9302ZM585.867 88.8702C585.894 88.1502 585.767 87.5502 585.487 87.0702C585.22 86.5769 584.847 86.2169 584.367 85.9902C583.9 85.7502 583.387 85.6302 582.827 85.6302C581.934 85.6302 581.187 85.9035 580.587 86.4502C579.987 86.9969 579.66 87.8035 579.607 88.8702H585.867Z" fill="black"/>
<defs>
<filter id="filter0_d_644_76" x="0" y="151.97" width="934" height="707" filterUnits="userSpaceOnUse" color-interpolation-filters="sRGB">
<feFlood flood-opacity="0" result="BackgroundImageFix"/>
<feColorMatrix in="SourceAlpha" type="matrix" values="0 0 0 0 0 0 0 0 0 0 0 0 0 0 0 0 0 0 127 0" result="hardAlpha"/>
<feMorphology radius="2" operator="erode" in="SourceAlpha" result="effect1_dropShadow_644_76"/>
<feOffset dx="7" dy="5"/>
<feGaussianBlur stdDeviation="53.5"/>
<feComposite in2="hardAlpha" operator="out"/>
<feColorMatrix type="matrix" values="0 0 0 0 0.0509804 0 0 0 0 0.0392157 0 0 0 0 0.172549 0 0 0 0.08 0"/>
<feBlend mode="normal" in2="BackgroundImageFix" result="effect1_dropShadow_644_76"/>
<feBlend mode="normal" in="SourceGraphic" in2="effect1_dropShadow_644_76" result="shape"/>
</filter>
<filter id="filter1_d_644_76" x="407" y="0.970215" width="467" height="269" filterUnits="userSpaceOnUse" color-interpolation-filters="sRGB">
<feFlood flood-opacity="0" result="BackgroundImageFix"/>
<feColorMatrix in="SourceAlpha" type="matrix" values="0 0 0 0 0 0 0 0 0 0 0 0 0 0 0 0 0 0 127 0" result="hardAlpha"/>
<feOffset dy="4"/>
<feGaussianBlur stdDeviation="26"/>
<feComposite in2="hardAlpha" operator="out"/>
<feColorMatrix type="matrix" values="0 0 0 0 0 0 0 0 0 0 0 0 0 0 0 0 0 0 0.06 0"/>
<feBlend mode="normal" in2="BackgroundImageFix" result="effect1_dropShadow_644_76"/>
<feBlend mode="normal" in="SourceGraphic" in2="effect1_dropShadow_644_76" result="shape"/>
</filter>
<linearGradient id="paint0_linear_644_76" x1="487.21" y1="443.749" x2="487.21" y2="658.895" gradientUnits="userSpaceOnUse">
<stop stop-color="#4DE800"/>
<stop offset="1" stop-color="#FFECED" stop-opacity="0"/>
</linearGradient>
</defs>
</svg>
