<svg width="195" height="62" viewBox="0 0 195 62" fill="none" xmlns="http://www.w3.org/2000/svg">
<path d="M0 50.0146V12.3224L33.3428 0L51.4633 5.7988V56.5378L33.3428 62L0 50.0142L33.3428 54.0268V10.1482L11.5971 15.2221V44.941L0 50.0146Z" fill="white"/>
<path d="M86.975 50.279C81.7263 50.279 77.5232 48.5496 74.3655 45.0907C71.2078 41.6318 69.6289 37.1318 69.6289 31.5904C69.6289 25.6364 71.2378 20.887 74.4558 17.3423C77.6738 13.7974 82.0533 12.0249 87.5944 12.0249C92.7053 12.0249 96.8224 13.7457 99.9457 17.1873C103.069 20.6291 104.631 25.129 104.631 30.6876C104.631 36.7277 103.03 41.503 99.8296 45.0137C96.6288 48.5242 92.3438 50.2796 86.9748 50.2796L86.975 50.279ZM87.2847 15.9477C83.3956 15.9477 80.238 17.3502 77.8115 20.1551C75.3852 22.9601 74.1719 26.6428 74.1719 31.203C74.1719 35.7632 75.355 39.4329 77.7211 42.2121C80.0873 44.9913 83.1718 46.3808 86.975 46.3808C91.0361 46.3808 94.2369 45.0558 96.5772 42.4057C98.9175 39.7556 100.088 36.0472 100.088 31.2805C100.088 26.3933 98.9519 22.616 96.6804 19.9487C94.4089 17.2815 91.2769 15.9478 87.2846 15.9477H87.2847Z" fill="white"/>
<path d="M120.054 9.95736C117.662 9.9574 115.674 10.7721 114.074 12.3811C112.473 13.9901 111.673 16.1795 111.673 18.95V23.2311H107.165V26.8553H111.673V49.6649H115.886V26.8553H126.192V49.6649H130.405V26.8553H136.589V23.2311H130.405V19.1538C130.405 15.4196 131.885 13.5589 134.845 13.5589C135.895 13.559 136.828 13.7739 137.654 14.2385V10.433C136.897 10.1233 135.886 9.9574 134.596 9.95736C132.204 9.9574 130.194 10.772 128.593 12.381C126.993 13.9901 126.192 16.1794 126.192 18.9499V23.231H115.886V19.1537C115.886 15.4195 117.366 13.5589 120.325 13.5589C121.375 13.5589 122.308 13.7738 123.134 14.2384V10.433C122.377 10.1232 121.344 9.95732 120.054 9.95728L120.054 9.95736Z" fill="white"/>
<path d="M142.746 16.5115C141.989 16.5115 141.343 16.2534 140.81 15.7371C140.276 15.2209 140.01 14.567 140.01 13.7754C140.01 12.9838 140.276 12.3255 140.81 11.8007C141.343 11.2759 141.989 11.0135 142.746 11.0134C143.52 11.0135 144.178 11.2759 144.72 11.8007C145.262 12.3256 145.533 12.9839 145.533 13.7754C145.533 14.5326 145.262 15.1778 144.72 15.7112C144.178 16.2447 143.52 16.5115 142.746 16.5114V16.5115ZM144.811 49.6547H140.578V23.2226H144.811V49.6547Z" fill="white"/>
<path d="M168.861 48.4415C166.831 49.6633 164.422 50.2741 161.634 50.2741C157.865 50.2741 154.824 49.048 152.509 46.5958C150.194 44.1437 149.037 40.9643 149.037 37.0581C149.037 32.7043 150.285 29.2068 152.78 26.5652C155.275 23.9237 158.605 22.603 162.769 22.603C165.093 22.6031 167.14 23.0333 168.913 23.8937V28.2301C166.951 26.8535 164.852 26.1651 162.615 26.1651C159.913 26.1651 157.697 27.1331 155.968 29.0691C154.238 31.005 153.374 33.5476 153.374 36.6967C153.374 39.7943 154.187 42.2378 155.813 44.0276C157.439 45.8173 159.62 46.7121 162.356 46.712C164.662 46.712 166.831 45.9462 168.861 44.4146L168.861 48.4415Z" fill="white"/>
<path d="M194.739 37.4984H176.077C176.145 40.4411 176.937 42.7125 178.451 44.3128C179.966 45.9132 182.048 46.7134 184.698 46.7134C187.675 46.7134 190.411 45.7326 192.906 43.7708V47.7458C190.583 49.4322 187.512 50.2756 183.691 50.2756C179.957 50.2756 177.023 49.0752 174.889 46.6747C172.755 44.2741 171.688 40.897 171.688 36.5433C171.688 32.4304 172.854 29.0791 175.186 26.4893C177.518 23.8995 180.413 22.6046 183.872 22.6046C187.331 22.6046 190.007 23.7231 191.9 25.9603C193.793 28.1974 194.739 31.3035 194.739 35.2786L194.739 37.4984ZM190.403 33.9105C190.385 31.467 189.796 29.5655 188.634 28.2059C187.473 26.8465 185.86 26.1667 183.795 26.1667C181.798 26.1667 180.103 26.8808 178.709 28.3091C177.316 29.7375 176.455 31.6046 176.128 33.9105H190.403Z" fill="white"/>
</svg>
