<svg width="25" height="26" viewBox="0 0 25 26" fill="none" xmlns="http://www.w3.org/2000/svg">
<path d="M23.4375 11.9077H14.0625V2.53271C14.0625 2.11831 13.8979 1.72089 13.6049 1.42786C13.3118 1.13484 12.9144 0.970215 12.5 0.970215C12.0856 0.970215 11.6882 1.13484 11.3951 1.42786C11.1021 1.72089 10.9375 2.11831 10.9375 2.53271V11.9077H1.5625C1.1481 11.9077 0.750672 12.0723 0.457646 12.3654C0.16462 12.6584 0 13.0558 0 13.4702C0 13.8846 0.16462 14.282 0.457646 14.5751C0.750672 14.8681 1.1481 15.0327 1.5625 15.0327H10.9375V24.4077C10.9375 24.8221 11.1021 25.2195 11.3951 25.5126C11.6882 25.8056 12.0856 25.9702 12.5 25.9702C12.9144 25.9702 13.3118 25.8056 13.6049 25.5126C13.8979 25.2195 14.0625 24.8221 14.0625 24.4077V15.0327H23.4375C23.8519 15.0327 24.2493 14.8681 24.5424 14.5751C24.8354 14.282 25 13.8846 25 13.4702C25 13.0558 24.8354 12.6584 24.5424 12.3654C24.2493 12.0723 23.8519 11.9077 23.4375 11.9077Z" fill="#4DE800"/>
</svg>
