<svg width="58" height="58" viewBox="0 0 58 58" fill="none"
    xmlns="http://www.w3.org/2000/svg">
    <rect y="0.970215" width="58" height="57" rx="6" fill="#020202"/>
    <path d="M39.9428 31.1349L39.2096 30.4549L39.9428 31.1349ZM28.2318 19.4238L28.9118 20.157L28.2318 19.4238ZM45.5033 16.9967L46.4949 17.1263L45.5033 16.9967ZM42.37 13.8634L42.4997 14.8549L42.37 13.8634ZM20.3846 30.8727L21.2825 31.3129L20.3846 30.8727ZM28.494 38.9821L28.0538 38.0842L28.494 38.9821ZM23.0834 26.9144C22.6929 26.5239 22.0597 26.5239 21.6692 26.9144C21.2787 27.3049 21.2787 27.9381 21.6692 28.3286L23.0834 26.9144ZM31.0381 37.6974C31.4286 38.088 32.0617 38.088 32.4523 37.6974C32.8428 37.3069 32.8428 36.6738 32.4523 36.2832L31.0381 37.6974ZM20.1557 40.6252C20.5462 40.2347 20.5462 39.6015 20.1557 39.211C19.7651 38.8205 19.132 38.8205 18.7415 39.211L20.1557 40.6252ZM14.057 43.8954C13.6665 44.2859 13.6665 44.9191 14.057 45.3096C14.4476 45.7002 15.0807 45.7002 15.4712 45.3096L14.057 43.8954ZM16.6423 37.1119C17.0329 36.7214 17.0329 36.0882 16.6423 35.6977C16.2518 35.3072 15.6187 35.3072 15.2281 35.6977L16.6423 37.1119ZM12.8859 38.0399C12.4954 38.4304 12.4954 39.0636 12.8859 39.4541C13.2764 39.8446 13.9096 39.8446 14.3001 39.4541L12.8859 38.0399ZM23.669 44.1385C24.0595 43.748 24.0595 43.1148 23.669 42.7243C23.2785 42.3338 22.6453 42.3338 22.2548 42.7243L23.669 44.1385ZM19.9126 45.0665C19.522 45.4571 19.522 46.0902 19.9126 46.4807C20.3031 46.8713 20.9362 46.8713 21.3268 46.4807L19.9126 45.0665ZM27.1779 44.8367L28.1678 44.6953L27.1779 44.8367ZM35.7269 39.0983L36.7169 38.9569L35.7269 39.0983ZM14.5299 32.1888L14.6713 31.1989L14.6713 31.1989L14.5299 32.1888ZM20.2683 23.6398L20.1269 24.6297L20.1269 24.6297L20.2683 23.6398ZM25.6057 37.6345L21.7321 33.761L20.3179 35.1752L24.1915 39.0488L25.6057 37.6345ZM39.2096 30.4549C36.0406 33.8717 30.9127 36.6826 28.0538 38.0842L28.9342 39.88C31.8138 38.4683 37.2364 35.5236 40.676 31.8149L39.2096 30.4549ZM21.2825 31.3129C22.6841 28.454 25.495 23.326 28.9118 20.157L27.5518 18.6906C23.8431 22.1303 20.8984 27.5529 19.4867 30.4325L21.2825 31.3129ZM44.5117 16.867C44.0077 20.7206 42.6642 26.7301 39.2096 30.4549L40.676 31.8149C44.5881 27.5969 45.9846 21.0275 46.4949 17.1263L44.5117 16.867ZM28.9118 20.157C32.6366 16.7024 38.646 15.3589 42.4997 14.8549L42.2403 12.8718C38.3391 13.382 31.7698 14.7786 27.5518 18.6906L28.9118 20.157ZM46.4949 17.1263C46.8238 14.6112 44.7555 12.5429 42.2403 12.8718L42.4997 14.8549C43.7123 14.6963 44.6703 15.6543 44.5117 16.867L46.4949 17.1263ZM21.7321 33.761C21.0621 33.0909 20.8891 32.1154 21.2825 31.3129L19.4867 30.4325C18.6934 32.0506 19.0817 33.939 20.3179 35.1752L21.7321 33.761ZM24.1915 39.0488C25.4277 40.285 27.3161 40.6733 28.9342 39.88L28.0538 38.0842C27.2513 38.4776 26.2758 38.3046 25.6057 37.6345L24.1915 39.0488ZM21.6692 28.3286L31.0381 37.6974L32.4523 36.2832L23.0834 26.9144L21.6692 28.3286ZM18.7415 39.211L14.057 43.8954L15.4712 45.3096L20.1557 40.6252L18.7415 39.211ZM15.2281 35.6977L12.8859 38.0399L14.3001 39.4541L16.6423 37.1119L15.2281 35.6977ZM22.2548 42.7243L19.9126 45.0665L21.3268 46.4807L23.669 44.1385L22.2548 42.7243ZM31.6236 21.6444C29.9395 23.3285 29.9395 26.059 31.6236 27.7431L33.0378 26.3288C32.1348 25.4258 32.1348 23.9617 33.0378 23.0586L31.6236 21.6444ZM31.6236 27.7431C33.3077 29.4271 36.0382 29.4271 37.7222 27.7431L36.308 26.3288C35.405 27.2319 33.9409 27.2319 33.0378 26.3288L31.6236 27.7431ZM37.7222 27.7431C39.4063 26.059 39.4063 23.3285 37.7222 21.6444L36.308 23.0586C37.2111 23.9617 37.2111 25.4258 36.308 26.3288L37.7222 27.7431ZM37.7222 21.6444C36.0382 19.9603 33.3077 19.9603 31.6236 21.6444L33.0378 23.0586C33.9409 22.1556 35.405 22.1556 36.308 23.0586L37.7222 21.6444ZM34.5514 39.7966L29.2814 45.0665L30.6956 46.4807L35.9656 41.2108L34.5514 39.7966ZM28.1678 44.6953L27.4651 39.7767L25.4852 40.0595L26.1879 44.9782L28.1678 44.6953ZM34.2685 35.9607L34.737 39.2398L36.7169 38.9569L36.2484 35.6778L34.2685 35.9607ZM29.2814 45.0665C28.899 45.4489 28.2443 45.2306 28.1678 44.6953L26.1879 44.9782C26.4974 47.145 29.1479 48.0285 30.6956 46.4807L29.2814 45.0665ZM35.9656 41.2108C36.5568 40.6196 36.8351 39.7846 36.7169 38.9569L34.737 39.2398C34.7662 39.4442 34.6974 39.6505 34.5514 39.7966L35.9656 41.2108ZM18.1559 23.4011L12.8859 28.6711L14.3001 30.0853L19.5701 24.8153L18.1559 23.4011ZM14.3885 33.1788L19.3071 33.8815L19.5899 31.9016L14.6713 31.1989L14.3885 33.1788ZM23.6888 23.1183L20.4097 22.6498L20.1269 24.6297L23.406 25.0982L23.6888 23.1183ZM12.8859 28.6711C11.3382 30.2188 12.2216 32.8693 14.3885 33.1788L14.6713 31.1989C14.136 31.1224 13.9177 30.4677 14.3001 30.0853L12.8859 28.6711ZM19.5701 24.8153C19.7161 24.6693 19.9224 24.6005 20.1269 24.6297L20.4097 22.6498C19.5821 22.5316 18.747 22.8099 18.1559 23.4011L19.5701 24.8153Z" fill="white"/>
</svg>
