<svg width="35" height="36" viewBox="0 0 35 36" fill="none" xmlns="http://www.w3.org/2000/svg">
<path d="M27.9428 19.1349L27.2096 18.4549L27.9428 19.1349ZM16.2318 7.42383L16.9118 8.15703L16.2318 7.42383ZM33.5033 4.99666L34.4949 5.12634L33.5033 4.99666ZM30.37 1.86338L30.4997 2.85493L30.37 1.86338ZM8.38458 18.8727L9.28248 19.3129L8.38458 18.8727ZM16.494 26.9821L16.0538 26.0842L16.494 26.9821ZM11.0834 14.9144C10.6929 14.5239 10.0597 14.5239 9.66922 14.9144C9.27869 15.3049 9.27869 15.9381 9.66922 16.3286L11.0834 14.9144ZM19.0381 25.6974C19.4286 26.088 20.0617 26.088 20.4523 25.6974C20.8428 25.3069 20.8428 24.6738 20.4523 24.2832L19.0381 25.6974ZM8.15566 28.6252C8.54619 28.2347 8.54619 27.6015 8.15566 27.211C7.76514 26.8205 7.13197 26.8205 6.74145 27.211L8.15566 28.6252ZM2.05703 31.8954C1.66651 32.2859 1.66651 32.9191 2.05703 33.3096C2.44755 33.7002 3.08072 33.7002 3.47124 33.3096L2.05703 31.8954ZM4.64235 25.1119C5.03287 24.7214 5.03287 24.0882 4.64235 23.6977C4.25182 23.3072 3.61866 23.3072 3.22813 23.6977L4.64235 25.1119ZM0.885924 26.0399C0.495401 26.4304 0.4954 27.0636 0.885924 27.4541C1.27645 27.8446 1.90961 27.8446 2.30014 27.4541L0.885924 26.0399ZM11.669 32.1385C12.0595 31.748 12.0595 31.1148 11.669 30.7243C11.2785 30.3338 10.6453 30.3338 10.2548 30.7243L11.669 32.1385ZM7.91256 33.0665C7.52203 33.4571 7.52203 34.0902 7.91256 34.4807C8.30308 34.8713 8.93625 34.8713 9.32677 34.4807L7.91256 33.0665ZM15.1779 32.8367L16.1678 32.6953L15.1779 32.8367ZM23.7269 27.0983L24.7169 26.9569L23.7269 27.0983ZM2.52988 20.1888L2.6713 19.1989L2.6713 19.1989L2.52988 20.1888ZM8.2683 11.6398L8.12688 12.6297L8.12688 12.6297L8.2683 11.6398ZM13.6057 25.6345L9.73212 21.761L8.31791 23.1752L12.1915 27.0488L13.6057 25.6345ZM27.2096 18.4549C24.0406 21.8717 18.9127 24.6826 16.0538 26.0842L16.9342 27.88C19.8138 26.4683 25.2364 23.5236 28.676 19.8149L27.2096 18.4549ZM9.28248 19.3129C10.6841 16.454 13.495 11.326 16.9118 8.15703L15.5518 6.69063C11.8431 10.1303 8.89841 15.5529 7.48668 18.4325L9.28248 19.3129ZM32.5117 4.86698C32.0077 8.72064 30.6642 14.7301 27.2096 18.4549L28.676 19.8149C32.5881 15.5969 33.9846 9.02755 34.4949 5.12634L32.5117 4.86698ZM16.9118 8.15703C20.6366 4.70245 26.646 3.35894 30.4997 2.85493L30.2403 0.87182C26.3391 1.38205 19.7698 2.7786 15.5518 6.69063L16.9118 8.15703ZM34.4949 5.12634C34.8238 2.61116 32.7555 0.542866 30.2403 0.87182L30.4997 2.85493C31.7123 2.69633 32.6703 3.65434 32.5117 4.86698L34.4949 5.12634ZM9.73212 21.761C9.06209 21.0909 8.88905 20.1154 9.28248 19.3129L7.48668 18.4325C6.69342 20.0506 7.08172 21.939 8.31791 23.1752L9.73212 21.761ZM12.1915 27.0488C13.4277 28.285 15.3161 28.6733 16.9342 27.88L16.0538 26.0842C15.2513 26.4776 14.2758 26.3046 13.6057 25.6345L12.1915 27.0488ZM9.66922 16.3286L19.0381 25.6974L20.4523 24.2832L11.0834 14.9144L9.66922 16.3286ZM6.74145 27.211L2.05703 31.8954L3.47124 33.3096L8.15566 28.6252L6.74145 27.211ZM3.22813 23.6977L0.885924 26.0399L2.30014 27.4541L4.64235 25.1119L3.22813 23.6977ZM10.2548 30.7243L7.91256 33.0665L9.32677 34.4807L11.669 32.1385L10.2548 30.7243ZM19.6236 9.64442C17.9395 11.3285 17.9395 14.059 19.6236 15.7431L21.0378 14.3288C20.1348 13.4258 20.1348 11.9617 21.0378 11.0586L19.6236 9.64442ZM19.6236 15.7431C21.3077 17.4271 24.0382 17.4271 25.7222 15.7431L24.308 14.3288C23.405 15.2319 21.9409 15.2319 21.0378 14.3288L19.6236 15.7431ZM25.7222 15.7431C27.4063 14.059 27.4063 11.3285 25.7222 9.64442L24.308 11.0586C25.2111 11.9617 25.2111 13.4258 24.308 14.3288L25.7222 15.7431ZM25.7222 9.64442C24.0382 7.96033 21.3077 7.96033 19.6236 9.64442L21.0378 11.0586C21.9409 10.1556 23.405 10.1556 24.308 11.0586L25.7222 9.64442ZM22.5514 27.7966L17.2814 33.0665L18.6956 34.4807L23.9656 29.2108L22.5514 27.7966ZM16.1678 32.6953L15.4651 27.7767L13.4852 28.0595L14.1879 32.9782L16.1678 32.6953ZM22.2685 23.9607L22.737 27.2398L24.7169 26.9569L24.2484 23.6778L22.2685 23.9607ZM17.2814 33.0665C16.899 33.4489 16.2443 33.2306 16.1678 32.6953L14.1879 32.9782C14.4974 35.145 17.1479 36.0285 18.6956 34.4807L17.2814 33.0665ZM23.9656 29.2108C24.5568 28.6196 24.8351 27.7846 24.7169 26.9569L22.737 27.2398C22.7662 27.4442 22.6974 27.6505 22.5514 27.7966L23.9656 29.2108ZM6.15586 11.4011L0.885889 16.6711L2.3001 18.0853L7.57008 12.8153L6.15586 11.4011ZM2.38846 21.1788L7.3071 21.8815L7.58994 19.9016L2.6713 19.1989L2.38846 21.1788ZM11.6888 11.1183L8.40972 10.6498L8.12688 12.6297L11.406 13.0982L11.6888 11.1183ZM0.885889 16.6711C-0.661843 18.2188 0.221635 20.8693 2.38846 21.1788L2.6713 19.1989C2.136 19.1224 1.91775 18.4677 2.3001 18.0853L0.885889 16.6711ZM7.57008 12.8153C7.71612 12.6693 7.92241 12.6005 8.12688 12.6297L8.40972 10.6498C7.58206 10.5316 6.74705 10.8099 6.15586 11.4011L7.57008 12.8153Z" fill="white"/>
</svg>
