<svg width="62" height="62" viewBox="0 0 62 62" fill="none" xmlns="http://www.w3.org/2000/svg">
<g id="vuesax/bold/send-2">
<g id="send-2">
<path id="Vector" d="M41.6955 7.64678L18.368 15.3968C2.68721 20.6409 2.68721 29.1918 18.368 34.4101L25.2914 36.7093L27.5905 43.6326C32.8089 59.3134 41.3855 59.3134 46.6039 43.6326L54.3797 20.3309C57.8414 9.86844 52.158 4.15928 41.6955 7.64678ZM42.5222 21.5451L32.7055 31.4134C32.318 31.8009 31.8272 31.9818 31.3364 31.9818C30.8455 31.9818 30.3547 31.8009 29.9672 31.4134C29.218 30.6643 29.218 29.4243 29.9672 28.6751L39.7839 18.8068C40.533 18.0576 41.773 18.0576 42.5222 18.8068C43.2714 19.5559 43.2714 20.7959 42.5222 21.5451Z" fill="black"/>
</g>
</g>
</svg>
