<svg width="28" height="31" viewBox="0 0 28 31" fill="none" xmlns="http://www.w3.org/2000/svg">
<path d="M2.78356 20.7105C2.28774 20.7105 1.81222 20.9074 1.46163 21.258C1.11103 21.6086 0.914062 22.0841 0.914062 22.58V28.1885C0.914062 28.6843 1.11103 29.1598 1.46163 29.5104C1.81222 29.861 2.28774 30.0579 2.78356 30.0579C3.27938 30.0579 3.75489 29.861 4.10549 29.5104C4.45609 29.1598 4.65306 28.6843 4.65306 28.1885V22.58C4.65306 22.0841 4.45609 21.6086 4.10549 21.258C3.75489 20.9074 3.27938 20.7105 2.78356 20.7105ZM10.2615 15.102C9.76572 15.102 9.29021 15.2989 8.93961 15.6495C8.58901 16.0001 8.39205 16.4756 8.39205 16.9715V28.1885C8.39205 28.6843 8.58901 29.1598 8.93961 29.5104C9.29021 29.861 9.76572 30.0579 10.2615 30.0579C10.7574 30.0579 11.2329 29.861 11.5835 29.5104C11.9341 29.1598 12.131 28.6843 12.131 28.1885V16.9715C12.131 16.4756 11.9341 16.0001 11.5835 15.6495C11.2329 15.2989 10.7574 15.102 10.2615 15.102ZM25.2175 0.145996C24.7217 0.145996 24.2462 0.342961 23.8956 0.693559C23.545 1.04416 23.348 1.51967 23.348 2.01549V28.1885C23.348 28.6843 23.545 29.1598 23.8956 29.5104C24.2462 29.861 24.7217 30.0579 25.2175 30.0579C25.7133 30.0579 26.1889 29.861 26.5395 29.5104C26.8901 29.1598 27.087 28.6843 27.087 28.1885V2.01549C27.087 1.51967 26.8901 1.04416 26.5395 0.693559C26.1889 0.342961 25.7133 0.145996 25.2175 0.145996V0.145996ZM17.7395 7.62398C17.2437 7.62398 16.7682 7.82095 16.4176 8.17155C16.067 8.52215 15.87 8.99766 15.87 9.49348V28.1885C15.87 28.6843 16.067 29.1598 16.4176 29.5104C16.7682 29.861 17.2437 30.0579 17.7395 30.0579C18.2354 30.0579 18.7109 29.861 19.0615 29.5104C19.4121 29.1598 19.609 28.6843 19.609 28.1885V9.49348C19.609 8.99766 19.4121 8.52215 19.0615 8.17155C18.7109 7.82095 18.2354 7.62398 17.7395 7.62398Z" fill="white"/>
</svg>
