<svg width="58" height="58" viewBox="0 0 58 58" fill="none" xmlns="http://www.w3.org/2000/svg">
<rect y="0.970215" width="58" height="57" rx="5" fill="#020202"/>
<path d="M17.7836 34.7105C17.2877 34.7105 16.8122 34.9074 16.4616 35.258C16.111 35.6086 15.9141 36.0841 15.9141 36.58V42.1885C15.9141 42.6843 16.111 43.1598 16.4616 43.5104C16.8122 43.861 17.2877 44.0579 17.7836 44.0579C18.2794 44.0579 18.7549 43.861 19.1055 43.5104C19.4561 43.1598 19.6531 42.6843 19.6531 42.1885V36.58C19.6531 36.0841 19.4561 35.6086 19.1055 35.258C18.7549 34.9074 18.2794 34.7105 17.7836 34.7105ZM25.2615 29.102C24.7657 29.102 24.2902 29.2989 23.9396 29.6495C23.589 30.0001 23.392 30.4756 23.392 30.9715V42.1885C23.392 42.6843 23.589 43.1598 23.9396 43.5104C24.2902 43.861 24.7657 44.0579 25.2615 44.0579C25.7574 44.0579 26.2329 43.861 26.5835 43.5104C26.9341 43.1598 27.131 42.6843 27.131 42.1885V30.9715C27.131 30.4756 26.9341 30.0001 26.5835 29.6495C26.2329 29.2989 25.7574 29.102 25.2615 29.102ZM40.2175 14.146C39.7217 14.146 39.2462 14.343 38.8956 14.6936C38.545 15.0442 38.348 15.5197 38.348 16.0155V42.1885C38.348 42.6843 38.545 43.1598 38.8956 43.5104C39.2462 43.861 39.7217 44.0579 40.2175 44.0579C40.7133 44.0579 41.1889 43.861 41.5395 43.5104C41.8901 43.1598 42.087 42.6843 42.087 42.1885V16.0155C42.087 15.5197 41.8901 15.0442 41.5395 14.6936C41.1889 14.343 40.7133 14.146 40.2175 14.146V14.146ZM32.7395 21.624C32.2437 21.624 31.7682 21.8209 31.4176 22.1715C31.067 22.5221 30.87 22.9977 30.87 23.4935V42.1885C30.87 42.6843 31.067 43.1598 31.4176 43.5104C31.7682 43.861 32.2437 44.0579 32.7395 44.0579C33.2354 44.0579 33.7109 43.861 34.0615 43.5104C34.4121 43.1598 34.609 42.6843 34.609 42.1885V23.4935C34.609 22.9977 34.4121 22.5221 34.0615 22.1715C33.7109 21.8209 33.2354 21.624 32.7395 21.624Z" fill="white"/>
<path d="M31.9171 11.734C31.8223 11.5058 31.6408 11.3243 31.4125 11.2295C31.3001 11.1817 31.1795 11.1563 31.0574 11.1548H26.385C26.1371 11.1548 25.8995 11.2532 25.7242 11.4284C25.549 11.6036 25.4505 11.8413 25.4505 12.0891C25.4505 12.3369 25.549 12.5745 25.7242 12.7497C25.8995 12.9249 26.1371 13.0234 26.385 13.0234H28.8053L23.5815 18.2461L20.5071 15.1629C20.4202 15.0753 20.3169 15.0058 20.203 14.9584C20.0891 14.911 19.967 14.8866 19.8436 14.8866C19.7203 14.8866 19.5981 14.911 19.4843 14.9584C19.3704 15.0058 19.267 15.0753 19.1802 15.1629L13.5733 20.7687C13.4857 20.8556 13.4162 20.9589 13.3687 21.0727C13.3213 21.1866 13.2969 21.3087 13.2969 21.4321C13.2969 21.5554 13.3213 21.6775 13.3687 21.7914C13.4162 21.9052 13.4857 22.0085 13.5733 22.0954C13.6602 22.183 13.7635 22.2525 13.8774 22.2999C13.9913 22.3473 14.1134 22.3718 14.2368 22.3718C14.3601 22.3718 14.4823 22.3473 14.5961 22.2999C14.71 22.2525 14.8134 22.183 14.9003 22.0954L19.8436 17.1436L22.9181 20.2268C23.0049 20.3144 23.1083 20.3839 23.2222 20.4313C23.336 20.4788 23.4582 20.5032 23.5815 20.5032C23.7049 20.5032 23.8271 20.4788 23.9409 20.4313C24.0548 20.3839 24.1582 20.3144 24.245 20.2268L30.1229 14.3407V16.7606C30.1229 17.0084 30.2213 17.246 30.3966 17.4212C30.5718 17.5964 30.8095 17.6949 31.0574 17.6949C31.3052 17.6949 31.5429 17.5964 31.7181 17.4212C31.8934 17.246 31.9918 17.0084 31.9918 16.7606V12.0891C31.9904 11.967 31.965 11.8464 31.9171 11.734Z" fill="white"/>
</svg>
