<svg width="420" height="316" viewBox="0 0 420 316" fill="none" xmlns="http://www.w3.org/2000/svg">
<g filter="url(#filter0_d_622_33)">
<rect x="75" y="71.9702" width="270" height="165" rx="10" fill="white"/>
</g>
<path d="M109.88 112.13H104.22L103.22 114.97H100.24L105.44 101.01H108.66L113.84 114.97H110.86L109.88 112.13ZM109.12 109.99L107.04 104.03L104.96 109.99H109.12ZM120.342 103.75C121.769 103.75 122.955 104.137 123.902 104.91C124.862 105.684 125.462 106.737 125.702 108.07H122.722C122.602 107.484 122.329 107.024 121.902 106.69C121.475 106.344 120.935 106.17 120.282 106.17C119.535 106.17 118.909 106.45 118.402 107.01C117.909 107.557 117.662 108.364 117.662 109.43C117.662 110.497 117.909 111.31 118.402 111.87C118.909 112.417 119.535 112.69 120.282 112.69C120.935 112.69 121.475 112.524 121.902 112.19C122.329 111.844 122.602 111.377 122.722 110.79H125.702C125.462 112.124 124.862 113.177 123.902 113.95C122.955 114.724 121.769 115.11 120.342 115.11C119.262 115.11 118.302 114.884 117.462 114.43C116.622 113.964 115.969 113.304 115.502 112.45C115.035 111.597 114.802 110.59 114.802 109.43C114.802 108.27 115.035 107.264 115.502 106.41C115.969 105.544 116.622 104.884 117.462 104.43C118.302 103.977 119.262 103.75 120.342 103.75ZM132.686 103.75C134.112 103.75 135.299 104.137 136.246 104.91C137.206 105.684 137.806 106.737 138.046 108.07H135.066C134.946 107.484 134.672 107.024 134.246 106.69C133.819 106.344 133.279 106.17 132.626 106.17C131.879 106.17 131.252 106.45 130.746 107.01C130.252 107.557 130.006 108.364 130.006 109.43C130.006 110.497 130.252 111.31 130.746 111.87C131.252 112.417 131.879 112.69 132.626 112.69C133.279 112.69 133.819 112.524 134.246 112.19C134.672 111.844 134.946 111.377 135.066 110.79H138.046C137.806 112.124 137.206 113.177 136.246 113.95C135.299 114.724 134.112 115.11 132.686 115.11C131.606 115.11 130.646 114.884 129.806 114.43C128.966 113.964 128.312 113.304 127.846 112.45C127.379 111.597 127.146 110.59 127.146 109.43C127.146 108.27 127.379 107.264 127.846 106.41C128.312 105.544 128.966 104.884 129.806 104.43C130.646 103.977 131.606 103.75 132.686 103.75ZM145.17 103.75C146.25 103.75 147.216 103.977 148.07 104.43C148.936 104.884 149.616 105.544 150.11 106.41C150.603 107.264 150.85 108.27 150.85 109.43C150.85 110.59 150.603 111.597 150.11 112.45C149.616 113.304 148.936 113.964 148.07 114.43C147.216 114.884 146.25 115.11 145.17 115.11C144.09 115.11 143.116 114.884 142.25 114.43C141.396 113.964 140.723 113.304 140.23 112.45C139.736 111.597 139.49 110.59 139.49 109.43C139.49 108.27 139.736 107.264 140.23 106.41C140.723 105.544 141.396 104.884 142.25 104.43C143.116 103.977 144.09 103.75 145.17 103.75ZM145.17 106.19C144.383 106.19 143.716 106.47 143.17 107.03C142.623 107.577 142.35 108.377 142.35 109.43C142.35 110.484 142.623 111.29 143.17 111.85C143.716 112.397 144.383 112.67 145.17 112.67C145.956 112.67 146.623 112.397 147.17 111.85C147.716 111.29 147.99 110.484 147.99 109.43C147.99 108.377 147.716 107.577 147.17 107.03C146.623 106.47 145.956 106.19 145.17 106.19ZM163.443 103.89V114.97H160.623V112.73C160.329 113.477 159.843 114.064 159.163 114.49C158.496 114.904 157.723 115.11 156.842 115.11C155.563 115.11 154.543 114.69 153.783 113.85C153.023 113.01 152.643 111.837 152.643 110.33V103.89H155.443V110.01C155.443 110.89 155.669 111.577 156.123 112.07C156.576 112.55 157.189 112.79 157.963 112.79C158.776 112.79 159.423 112.53 159.903 112.01C160.383 111.49 160.623 110.744 160.623 109.77V103.89H163.443ZM172.607 103.73C173.887 103.73 174.907 104.15 175.667 104.99C176.427 105.83 176.807 107.01 176.807 108.53V114.97H174.007V108.85C174.007 107.97 173.78 107.29 173.327 106.81C172.873 106.317 172.253 106.07 171.467 106.07C170.667 106.07 170.027 106.33 169.547 106.85C169.067 107.37 168.827 108.117 168.827 109.09V114.97H166.007V103.89H168.827V106.11C169.12 105.364 169.6 104.784 170.267 104.37C170.947 103.944 171.727 103.73 172.607 103.73ZM185.208 112.55V114.97H183.728C182.488 114.97 181.534 114.67 180.868 114.07C180.214 113.47 179.888 112.47 179.888 111.07V106.27H178.348V103.89H179.888V101.15H182.708V103.89H185.188V106.27H182.708V111.11C182.708 111.644 182.814 112.017 183.028 112.23C183.241 112.444 183.601 112.55 184.108 112.55H185.208Z" fill="black"/>
<path d="M145.1 134.594C145.893 134.594 146.573 134.736 147.14 135.019C147.707 135.291 148.132 135.671 148.415 136.158C148.71 136.646 148.857 137.19 148.857 137.79C148.857 138.55 148.642 139.184 148.211 139.694C147.792 140.193 147.197 140.493 146.426 140.595V140.68C147.253 140.918 147.899 141.275 148.364 141.751C148.84 142.216 149.078 142.862 149.078 143.689C149.078 144.698 148.744 145.52 148.075 146.154C147.406 146.778 146.449 147.089 145.202 147.089C143.921 147.089 142.89 146.766 142.108 146.12C141.326 145.463 140.878 144.494 140.765 143.213H142.686C142.754 143.893 142.998 144.437 143.417 144.845C143.836 145.242 144.403 145.44 145.117 145.44C145.786 145.44 146.296 145.265 146.647 144.913C147.01 144.562 147.191 144.109 147.191 143.553C147.191 142.885 146.93 142.375 146.409 142.023C145.899 141.672 145.157 141.496 144.182 141.496H143.723V139.898H144.182C146.029 139.921 146.953 139.292 146.953 138.011C146.953 137.456 146.783 137.02 146.443 136.702C146.103 136.385 145.638 136.226 145.049 136.226C144.46 136.226 143.967 136.408 143.57 136.77C143.173 137.122 142.935 137.637 142.856 138.317H140.952C141.031 137.139 141.428 136.226 142.142 135.58C142.856 134.923 143.842 134.594 145.1 134.594ZM159.291 136.498H153.358V140.068C153.63 139.717 154.015 139.439 154.514 139.235C155.012 139.02 155.562 138.912 156.163 138.912C157.001 138.912 157.698 139.094 158.254 139.456C158.809 139.808 159.217 140.278 159.478 140.867C159.75 141.457 159.886 142.108 159.886 142.822C159.886 144.08 159.534 145.1 158.832 145.882C158.129 146.653 157.109 147.038 155.772 147.038C154.514 147.038 153.499 146.704 152.729 146.035C151.958 145.367 151.539 144.477 151.471 143.366H153.375C153.477 143.978 153.726 144.46 154.123 144.811C154.531 145.163 155.046 145.338 155.67 145.338C156.44 145.338 157.018 145.106 157.404 144.641C157.789 144.177 157.982 143.559 157.982 142.788C157.982 142.063 157.783 141.496 157.387 141.088C156.99 140.669 156.423 140.459 155.687 140.459C155.165 140.459 154.706 140.573 154.31 140.799C153.924 141.026 153.641 141.326 153.46 141.7H151.573V134.781H159.291V136.498ZM161.586 140.884C161.586 142.8 161.926 144.301 162.606 145.389C163.286 146.466 164.419 147.004 166.006 147.004C167.593 147.004 168.726 146.46 169.406 145.372C170.086 144.284 170.426 142.788 170.426 140.884C170.426 138.992 170.086 137.507 169.406 136.43C168.726 135.342 167.593 134.798 166.006 134.798C164.419 134.798 163.286 135.337 162.606 136.413C161.926 137.49 161.586 138.98 161.586 140.884ZM168.488 140.884C168.488 142.267 168.318 143.327 167.978 144.063C167.638 144.8 166.981 145.168 166.006 145.168C165.02 145.168 164.357 144.8 164.017 144.063C163.677 143.327 163.507 142.267 163.507 140.884C163.507 139.513 163.677 138.465 164.017 137.739C164.357 137.014 165.02 136.651 166.006 136.651C166.981 136.651 167.638 137.02 167.978 137.756C168.318 138.482 168.488 139.524 168.488 140.884ZM173.657 145.644C173.861 146.166 173.963 146.704 173.963 147.259C173.963 147.894 173.799 148.41 173.47 148.806C173.141 149.214 172.643 149.418 171.974 149.418V148.636C172.257 148.636 172.467 148.563 172.603 148.415C172.739 148.268 172.807 148.019 172.807 147.667V147.514H171.821V145.644H173.657ZM174.802 136.787V134.968H178.644V146.97H176.604V136.787H174.802ZM188.991 136.498H183.058V140.068C183.33 139.717 183.715 139.439 184.214 139.235C184.713 139.02 185.262 138.912 185.863 138.912C186.702 138.912 187.399 139.094 187.954 139.456C188.509 139.808 188.917 140.278 189.178 140.867C189.45 141.457 189.586 142.108 189.586 142.822C189.586 144.08 189.235 145.1 188.532 145.882C187.829 146.653 186.809 147.038 185.472 147.038C184.214 147.038 183.2 146.704 182.429 146.035C181.658 145.367 181.239 144.477 181.171 143.366H183.075C183.177 143.978 183.426 144.46 183.823 144.811C184.231 145.163 184.747 145.338 185.37 145.338C186.141 145.338 186.719 145.106 187.104 144.641C187.489 144.177 187.682 143.559 187.682 142.788C187.682 142.063 187.484 141.496 187.087 141.088C186.69 140.669 186.124 140.459 185.387 140.459C184.866 140.459 184.407 140.573 184.01 140.799C183.625 141.026 183.341 141.326 183.16 141.7H181.273V134.781H188.991V136.498ZM191.286 140.884C191.286 142.8 191.626 144.301 192.306 145.389C192.986 146.466 194.12 147.004 195.706 147.004C197.293 147.004 198.426 146.46 199.106 145.372C199.786 144.284 200.126 142.788 200.126 140.884C200.126 138.992 199.786 137.507 199.106 136.43C198.426 135.342 197.293 134.798 195.706 134.798C194.12 134.798 192.986 135.337 192.306 136.413C191.626 137.49 191.286 138.98 191.286 140.884ZM198.188 140.884C198.188 142.267 198.018 143.327 197.678 144.063C197.338 144.8 196.681 145.168 195.706 145.168C194.72 145.168 194.057 144.8 193.717 144.063C193.377 143.327 193.207 142.267 193.207 140.884C193.207 139.513 193.377 138.465 193.717 137.739C194.057 137.014 194.72 136.651 195.706 136.651C196.681 136.651 197.338 137.02 197.678 137.756C198.018 138.482 198.188 139.524 198.188 140.884ZM203.697 144.828V146.97H201.504V144.828H203.697ZM205.421 137.756C205.421 137.167 205.58 136.629 205.897 136.141C206.215 135.654 206.685 135.263 207.308 134.968C207.943 134.674 208.702 134.526 209.586 134.526C210.47 134.526 211.224 134.674 211.847 134.968C212.482 135.263 212.958 135.654 213.275 136.141C213.604 136.629 213.768 137.167 213.768 137.756C213.768 138.414 213.593 138.98 213.241 139.456C212.901 139.932 212.391 140.278 211.711 140.493C212.471 140.731 213.054 141.117 213.462 141.649C213.87 142.171 214.074 142.811 214.074 143.57C214.074 144.738 213.661 145.65 212.833 146.307C212.006 146.953 210.924 147.276 209.586 147.276C208.249 147.276 207.167 146.953 206.339 146.307C205.523 145.65 205.115 144.738 205.115 143.57C205.115 142.811 205.319 142.171 205.727 141.649C206.135 141.117 206.719 140.731 207.478 140.493C206.798 140.278 206.283 139.932 205.931 139.456C205.591 138.98 205.421 138.414 205.421 137.756ZM207.342 138.062C207.342 138.674 207.541 139.15 207.937 139.49C208.345 139.819 208.895 139.983 209.586 139.983C210.278 139.983 210.827 139.819 211.235 139.49C211.643 139.15 211.847 138.674 211.847 138.062C211.847 137.45 211.638 136.974 211.218 136.634C210.81 136.294 210.266 136.124 209.586 136.124C208.906 136.124 208.362 136.294 207.954 136.634C207.546 136.974 207.342 137.45 207.342 138.062ZM207.002 143.468C207.002 144.16 207.235 144.704 207.699 145.1C208.164 145.486 208.793 145.678 209.586 145.678C210.38 145.678 211.009 145.486 211.473 145.1C211.938 144.704 212.17 144.16 212.17 143.468C212.17 142.766 211.927 142.239 211.439 141.887C210.963 141.525 210.346 141.343 209.586 141.343C208.838 141.343 208.221 141.525 207.733 141.887C207.246 142.25 207.002 142.777 207.002 143.468ZM222.419 138.198C222.215 136.861 221.518 136.192 220.328 136.192C219.467 136.192 218.821 136.538 218.39 137.229C217.959 137.909 217.744 138.98 217.744 140.442L217.761 141.02C217.931 140.408 218.299 139.921 218.866 139.558C219.433 139.196 220.101 139.014 220.872 139.014C222.051 139.014 222.974 139.366 223.643 140.068C224.312 140.771 224.646 141.763 224.646 143.043C224.646 143.814 224.493 144.505 224.187 145.117C223.881 145.718 223.422 146.2 222.81 146.562C222.198 146.914 221.444 147.089 220.549 147.089C218.815 147.089 217.625 146.551 216.979 145.474C216.333 144.398 216.01 142.919 216.01 141.037C216.01 138.884 216.356 137.275 217.047 136.209C217.738 135.144 218.872 134.611 220.447 134.611C221.626 134.611 222.527 134.946 223.15 135.614C223.785 136.283 224.153 137.144 224.255 138.198H222.419ZM217.931 142.822C217.931 143.559 218.146 144.177 218.577 144.675C219.008 145.163 219.642 145.406 220.481 145.406C221.195 145.406 221.762 145.197 222.181 144.777C222.612 144.358 222.827 143.774 222.827 143.026C222.827 142.222 222.612 141.604 222.181 141.173C221.75 140.743 221.167 140.527 220.43 140.527C219.761 140.527 219.178 140.726 218.679 141.122C218.18 141.519 217.931 142.086 217.931 142.822Z" fill="black"/>
<path d="M133.4 159.97H132.26L128.83 154.76V159.97H127.69V152.92H128.83L132.26 158.15V152.92H133.4V159.97ZM136.99 154.39C137.49 154.39 137.917 154.514 138.27 154.76C138.623 155.007 138.873 155.334 139.02 155.74V154.46H140.16V159.97H139.02V158.69C138.873 159.097 138.623 159.424 138.27 159.67C137.917 159.917 137.49 160.04 136.99 160.04C136.51 160.04 136.08 159.927 135.7 159.7C135.327 159.474 135.033 159.147 134.82 158.72C134.607 158.294 134.5 157.79 134.5 157.21C134.5 156.637 134.607 156.137 134.82 155.71C135.033 155.284 135.327 154.957 135.7 154.73C136.08 154.504 136.51 154.39 136.99 154.39ZM137.34 155.39C136.833 155.39 136.427 155.554 136.12 155.88C135.82 156.2 135.67 156.644 135.67 157.21C135.67 157.777 135.82 158.224 136.12 158.55C136.427 158.87 136.833 159.03 137.34 159.03C137.66 159.03 137.947 158.957 138.2 158.81C138.453 158.657 138.653 158.444 138.8 158.17C138.947 157.897 139.02 157.577 139.02 157.21C139.02 156.85 138.947 156.534 138.8 156.26C138.653 155.98 138.453 155.767 138.2 155.62C137.947 155.467 137.66 155.39 137.34 155.39ZM141.368 152.86C141.368 152.667 141.435 152.507 141.568 152.38C141.701 152.254 141.878 152.19 142.098 152.19C142.318 152.19 142.495 152.254 142.628 152.38C142.768 152.507 142.838 152.667 142.838 152.86C142.838 153.054 142.768 153.21 142.628 153.33C142.495 153.45 142.318 153.51 142.098 153.51C141.878 153.51 141.701 153.45 141.568 153.33C141.435 153.21 141.368 153.054 141.368 152.86ZM142.668 154.46V159.97H141.528V154.46H142.668ZM145.187 155.54C145.374 155.18 145.641 154.897 145.987 154.69C146.334 154.477 146.734 154.37 147.187 154.37V155.61H146.847C146.347 155.61 145.944 155.734 145.637 155.98C145.337 156.22 145.187 156.62 145.187 157.18V159.97H144.047V154.46H145.187V155.54ZM150.252 154.39C150.752 154.39 151.178 154.514 151.532 154.76C151.885 155.007 152.135 155.334 152.282 155.74V154.46H153.422V159.97H152.282V158.69C152.135 159.097 151.885 159.424 151.532 159.67C151.178 159.917 150.752 160.04 150.252 160.04C149.772 160.04 149.342 159.927 148.962 159.7C148.588 159.474 148.295 159.147 148.082 158.72C147.868 158.294 147.762 157.79 147.762 157.21C147.762 156.637 147.868 156.137 148.082 155.71C148.295 155.284 148.588 154.957 148.962 154.73C149.342 154.504 149.772 154.39 150.252 154.39ZM150.602 155.39C150.095 155.39 149.688 155.554 149.382 155.88C149.082 156.2 148.932 156.644 148.932 157.21C148.932 157.777 149.082 158.224 149.382 158.55C149.688 158.87 150.095 159.03 150.602 159.03C150.922 159.03 151.208 158.957 151.462 158.81C151.715 158.657 151.915 158.444 152.062 158.17C152.208 157.897 152.282 157.577 152.282 157.21C152.282 156.85 152.208 156.534 152.062 156.26C151.915 155.98 151.715 155.767 151.462 155.62C151.208 155.467 150.922 155.39 150.602 155.39ZM162.843 159.97H161.703L158.273 154.76V159.97H157.133V152.92H158.273L161.703 158.15V152.92H162.843V159.97ZM167.453 152.85C168.293 152.85 168.993 153.057 169.553 153.47C170.113 153.884 170.483 154.447 170.663 155.16H169.463C169.31 154.78 169.057 154.477 168.703 154.25C168.357 154.024 167.943 153.91 167.463 153.91C167.023 153.91 166.627 154.014 166.273 154.22C165.927 154.427 165.653 154.72 165.453 155.1C165.26 155.48 165.163 155.927 165.163 156.44C165.163 156.98 165.263 157.444 165.463 157.83C165.663 158.217 165.943 158.514 166.303 158.72C166.67 158.92 167.093 159.02 167.573 159.02C168.16 159.02 168.663 158.84 169.083 158.48C169.503 158.114 169.757 157.614 169.843 156.98H167.253V156.14H170.803V157.23C170.723 157.75 170.537 158.224 170.243 158.65C169.957 159.07 169.573 159.407 169.093 159.66C168.62 159.914 168.077 160.04 167.463 160.04C166.777 160.04 166.17 159.887 165.643 159.58C165.117 159.274 164.71 158.85 164.423 158.31C164.137 157.764 163.993 157.14 163.993 156.44C163.993 155.74 164.137 155.12 164.423 154.58C164.71 154.034 165.113 153.61 165.633 153.31C166.16 153.004 166.767 152.85 167.453 152.85Z" fill="#A6A6A6"/>
<path d="M102.78 210.91V215.1C102.78 215.727 102.917 216.194 103.19 216.5C103.47 216.807 103.86 216.96 104.36 216.96C104.853 216.96 105.237 216.807 105.51 216.5C105.79 216.194 105.93 215.727 105.93 215.1V210.91H107.07V215.1C107.07 216.067 106.82 216.8 106.32 217.3C105.82 217.794 105.16 218.04 104.34 218.04C103.527 218.04 102.873 217.794 102.38 217.3C101.887 216.8 101.64 216.067 101.64 215.1V210.91H102.78ZM110.209 212.39C110.856 212.39 111.372 212.557 111.759 212.89C112.152 213.217 112.392 213.657 112.479 214.21H111.399C111.352 213.91 111.222 213.67 111.009 213.49C110.802 213.304 110.526 213.21 110.179 213.21C109.892 213.21 109.669 213.28 109.509 213.42C109.356 213.554 109.279 213.737 109.279 213.97C109.279 214.144 109.336 214.284 109.449 214.39C109.562 214.497 109.702 214.58 109.869 214.64C110.042 214.7 110.286 214.767 110.599 214.84C111.012 214.934 111.346 215.03 111.599 215.13C111.859 215.23 112.079 215.39 112.259 215.61C112.446 215.824 112.539 216.117 112.539 216.49C112.539 216.95 112.362 217.324 112.009 217.61C111.662 217.897 111.192 218.04 110.599 218.04C109.912 218.04 109.356 217.88 108.929 217.56C108.509 217.24 108.256 216.794 108.169 216.22H109.279C109.312 216.52 109.446 216.764 109.679 216.95C109.912 217.137 110.219 217.23 110.599 217.23C110.872 217.23 111.086 217.16 111.239 217.02C111.399 216.874 111.479 216.69 111.479 216.47C111.479 216.277 111.419 216.124 111.299 216.01C111.179 215.897 111.029 215.81 110.849 215.75C110.669 215.684 110.422 215.617 110.109 215.55C109.709 215.457 109.382 215.364 109.129 215.27C108.882 215.177 108.669 215.027 108.489 214.82C108.316 214.607 108.229 214.32 108.229 213.96C108.229 213.494 108.402 213.117 108.749 212.83C109.102 212.537 109.589 212.39 110.209 212.39ZM115.892 212.39C116.392 212.39 116.819 212.514 117.172 212.76C117.526 213.007 117.776 213.334 117.922 213.74V212.46H119.062V217.97H117.922V216.69C117.776 217.097 117.526 217.424 117.172 217.67C116.819 217.917 116.392 218.04 115.892 218.04C115.412 218.04 114.982 217.927 114.602 217.7C114.229 217.474 113.936 217.147 113.722 216.72C113.509 216.294 113.402 215.79 113.402 215.21C113.402 214.637 113.509 214.137 113.722 213.71C113.936 213.284 114.229 212.957 114.602 212.73C114.982 212.504 115.412 212.39 115.892 212.39ZM116.242 213.39C115.736 213.39 115.329 213.554 115.022 213.88C114.722 214.2 114.572 214.644 114.572 215.21C114.572 215.777 114.722 216.224 115.022 216.55C115.329 216.87 115.736 217.03 116.242 217.03C116.562 217.03 116.849 216.957 117.102 216.81C117.356 216.657 117.556 216.444 117.702 216.17C117.849 215.897 117.922 215.577 117.922 215.21C117.922 214.85 117.849 214.534 117.702 214.26C117.556 213.98 117.356 213.767 117.102 213.62C116.849 213.467 116.562 213.39 116.242 213.39ZM122.64 212.39C123.14 212.39 123.567 212.514 123.92 212.76C124.274 213.007 124.524 213.334 124.67 213.74V212.46H125.81V218.03C125.81 218.544 125.704 218.997 125.49 219.39C125.284 219.79 124.984 220.104 124.59 220.33C124.197 220.557 123.73 220.67 123.19 220.67C122.417 220.67 121.79 220.487 121.31 220.12C120.837 219.754 120.54 219.257 120.42 218.63H121.55C121.644 218.957 121.824 219.21 122.09 219.39C122.357 219.577 122.697 219.67 123.11 219.67C123.564 219.67 123.937 219.53 124.23 219.25C124.524 218.97 124.67 218.564 124.67 218.03V216.69C124.524 217.097 124.274 217.424 123.92 217.67C123.567 217.917 123.14 218.04 122.64 218.04C122.16 218.04 121.73 217.927 121.35 217.7C120.977 217.474 120.684 217.147 120.47 216.72C120.257 216.294 120.15 215.79 120.15 215.21C120.15 214.637 120.257 214.137 120.47 213.71C120.684 213.284 120.977 212.957 121.35 212.73C121.73 212.504 122.16 212.39 122.64 212.39ZM122.99 213.39C122.484 213.39 122.077 213.554 121.77 213.88C121.47 214.2 121.32 214.644 121.32 215.21C121.32 215.777 121.47 216.224 121.77 216.55C122.077 216.87 122.484 217.03 122.99 217.03C123.31 217.03 123.597 216.957 123.85 216.81C124.104 216.657 124.304 216.444 124.45 216.17C124.597 215.897 124.67 215.577 124.67 215.21C124.67 214.85 124.597 214.534 124.45 214.26C124.304 213.98 124.104 213.767 123.85 213.62C123.597 213.467 123.31 213.39 122.99 213.39ZM132.298 214.95C132.298 215.137 132.285 215.3 132.258 215.44H128.018C128.038 216.007 128.195 216.427 128.488 216.7C128.782 216.974 129.145 217.11 129.578 217.11C129.958 217.11 130.278 217.014 130.538 216.82C130.805 216.627 130.968 216.37 131.028 216.05H132.248C132.175 216.437 132.022 216.78 131.788 217.08C131.555 217.38 131.252 217.617 130.878 217.79C130.505 217.957 130.088 218.04 129.628 218.04C129.095 218.04 128.622 217.927 128.208 217.7C127.802 217.474 127.482 217.147 127.248 216.72C127.015 216.294 126.898 215.79 126.898 215.21C126.898 214.637 127.015 214.137 127.248 213.71C127.482 213.284 127.802 212.957 128.208 212.73C128.622 212.504 129.095 212.39 129.628 212.39C130.168 212.39 130.638 212.504 131.038 212.73C131.445 212.95 131.755 213.257 131.968 213.65C132.188 214.037 132.298 214.47 132.298 214.95ZM131.148 214.92C131.162 214.56 131.098 214.26 130.958 214.02C130.825 213.774 130.638 213.594 130.398 213.48C130.165 213.36 129.908 213.3 129.628 213.3C129.182 213.3 128.808 213.437 128.508 213.71C128.208 213.984 128.045 214.387 128.018 214.92H131.148Z" fill="black"/>
<circle cx="107" cy="140.97" r="8" fill="black"/>
<path d="M104.5 144.97V137.47H104.75L109.25 144.47H109.5V136.97M103 139.97H111M103 141.97H111" stroke="white"/>
<rect x="100" y="197.97" width="215" height="7" fill="black"/>
<rect x="253" y="197.97" width="62" height="7" fill="#D9D9D9"/>
<defs>
<filter id="filter0_d_622_33" x="0" y="0.970215" width="420" height="315" filterUnits="userSpaceOnUse" color-interpolation-filters="sRGB">
<feFlood flood-opacity="0" result="BackgroundImageFix"/>
<feColorMatrix in="SourceAlpha" type="matrix" values="0 0 0 0 0 0 0 0 0 0 0 0 0 0 0 0 0 0 127 0" result="hardAlpha"/>
<feOffset dy="4"/>
<feGaussianBlur stdDeviation="37.5"/>
<feComposite in2="hardAlpha" operator="out"/>
<feColorMatrix type="matrix" values="0 0 0 0 0 0 0 0 0 0 0 0 0 0 0 0 0 0 0.06 0"/>
<feBlend mode="normal" in2="BackgroundImageFix" result="effect1_dropShadow_622_33"/>
<feBlend mode="normal" in="SourceGraphic" in2="effect1_dropShadow_622_33" result="shape"/>
</filter>
</defs>
</svg>
