<svg width="19" height="12" viewBox="0 0 19 12" fill="none" xmlns="http://www.w3.org/2000/svg">
<path id="Vector" d="M18.9171 0.734049C18.8223 0.505754 18.6408 0.324337 18.4125 0.229529C18.3001 0.181655 18.1795 0.156261 18.0574 0.154785H13.385C13.1371 0.154785 12.8995 0.25322 12.7242 0.428435C12.549 0.603649 12.4505 0.841291 12.4505 1.08908C12.4505 1.33687 12.549 1.57451 12.7242 1.74973C12.8995 1.92494 13.1371 2.02338 13.385 2.02338H15.8053L10.5815 7.2461L7.50712 4.16292C7.42024 4.07535 7.31689 4.00584 7.20301 3.95841C7.08914 3.91098 6.967 3.88656 6.84364 3.88656C6.72027 3.88656 6.59813 3.91098 6.48426 3.95841C6.37038 4.00584 6.26703 4.07535 6.18016 4.16292L0.573292 9.7687C0.485705 9.85556 0.416185 9.95889 0.368743 10.0727C0.321301 10.1866 0.296875 10.3087 0.296875 10.4321C0.296875 10.5554 0.321301 10.6775 0.368743 10.7914C0.416185 10.9052 0.485705 11.0085 0.573292 11.0954C0.660164 11.183 0.763518 11.2525 0.877393 11.2999C0.991268 11.3473 1.11341 11.3718 1.23677 11.3718C1.36013 11.3718 1.48227 11.3473 1.59615 11.2999C1.71002 11.2525 1.81338 11.183 1.90025 11.0954L6.84364 6.14363L9.91807 9.22681C10.0049 9.31438 10.1083 9.38389 10.2222 9.43132C10.336 9.47875 10.4582 9.50317 10.5815 9.50317C10.7049 9.50317 10.8271 9.47875 10.9409 9.43132C11.0548 9.38389 11.1582 9.31438 11.245 9.22681L17.1229 3.34074V5.76057C17.1229 6.00836 17.2213 6.246 17.3966 6.42121C17.5718 6.59643 17.8095 6.69486 18.0574 6.69486C18.3052 6.69486 18.5429 6.59643 18.7181 6.42121C18.8934 6.246 18.9918 6.00836 18.9918 5.76057V1.08908C18.9904 0.966991 18.965 0.846372 18.9171 0.734049Z" fill="white"/>
</svg>
