<svg width="55" height="48" viewBox="0 0 55 48" fill="none" xmlns="http://www.w3.org/2000/svg">
<path fill-rule="evenodd" clip-rule="evenodd" d="M40.6269 8.93628C42.3867 8.93628 43.8133 10.3272 43.8133 12.0431V36.8973C43.8133 38.6131 42.3867 40.0041 40.6269 40.0041C38.867 40.0041 37.4404 38.6131 37.4404 36.8973V12.0431C37.4404 10.3272 38.867 8.93628 40.6269 8.93628Z" fill="black" fill-opacity="0.95"/>
<path fill-rule="evenodd" clip-rule="evenodd" d="M52.1778 16.9025C53.7176 16.9025 54.9659 18.3546 54.9659 20.1458V28.7947C54.9659 30.586 53.7176 32.0381 52.1778 32.0381C50.6379 32.0381 49.3896 30.586 49.3896 28.7947V20.1458C49.3896 18.3546 50.6379 16.9025 52.1778 16.9025Z" fill="black" fill-opacity="0.95"/>
<path fill-rule="evenodd" clip-rule="evenodd" d="M15.534 8.93628C17.5138 8.93628 19.1187 10.3272 19.1187 12.0431V36.8973C19.1187 38.6131 17.5138 40.0041 15.534 40.0041C13.5542 40.0041 11.9492 38.6131 11.9492 36.8973V12.0431C11.9492 10.3272 13.5542 8.93628 15.534 8.93628Z" fill="black" fill-opacity="0.95"/>
<path fill-rule="evenodd" clip-rule="evenodd" d="M3.18644 16.9025C4.94626 16.9025 6.37288 18.3546 6.37288 20.1458V28.7947C6.37288 30.586 4.94626 32.0381 3.18644 32.0381C1.42662 32.0381 0 30.586 0 28.7947V20.1458C0 18.3546 1.42662 16.9025 3.18644 16.9025Z" fill="black" fill-opacity="0.95"/>
<path fill-rule="evenodd" clip-rule="evenodd" d="M28.2801 0.970215C30.2599 0.970215 31.8648 2.34256 31.8648 4.03543V44.905C31.8648 46.5979 30.2599 47.9702 28.2801 47.9702C26.3003 47.9702 24.6953 46.5979 24.6953 44.905V4.03543C24.6953 2.34256 26.3003 0.970215 28.2801 0.970215Z" fill="black" fill-opacity="0.95"/>
</svg>
