<svg width="184" height="46" viewBox="0 0 184 46" fill="none" xmlns="http://www.w3.org/2000/svg">
<path d="M59.0806 18.0948C59.0806 14.8246 55.8104 11.3365 50.3602 11.3365C44.2559 11.3365 37.2796 15.9147 36.1896 25.0711C35.0995 34.2275 40.7678 38.3697 46.654 38.3697C52.5403 38.3697 55.3744 36.1896 58.4265 33.1374C55.8104 29.8673 52.3223 31.3934 51.6682 31.6114C51.0142 32.0474 49.9242 32.4834 48.1801 32.4834C46 32.4834 43.6019 31.3934 43.6019 27.2512C57.9905 25.7251 59.0806 21.3649 59.0806 18.0948ZM52.1043 18.5308C52.1043 19.6209 51.6682 21.3649 44.4739 22.237C46 16.7867 48.8341 16.3507 50.1422 16.3507C51.4502 16.5687 52.1043 17.4408 52.1043 18.5308ZM27.9052 19.4028C27.9052 19.4028 24.8531 28.9953 24.6351 29.8673C24.6351 28.9953 22.237 11.7725 22.237 11.7725C17.0047 11.7725 14.1706 15.4787 12.8626 19.4028C12.8626 19.4028 9.1564 28.9953 8.93839 29.8673C8.72038 29.2133 8.28436 19.6209 8.28436 19.6209C7.84834 14.8246 3.48815 11.7725 0 11.7725L4.36019 37.9336C9.81043 37.9336 12.8626 34.2275 14.3886 30.3033C14.3886 30.3033 17.6588 21.8009 17.8768 21.3649C17.8768 21.8009 20.2749 37.9336 20.2749 37.9336C25.7251 37.9336 28.7773 34.4455 30.3033 30.7393L37.9336 11.7725C32.2654 11.7725 29.4313 15.4787 27.9052 19.4028ZM79.3555 11.1185C76.0853 11.1185 73.4692 12.8626 71.2891 15.6967L73.0332 0C68.455 0 64.9668 3.92417 64.0948 9.59242L60.6066 37.7156C63.2227 37.7156 65.8389 37.0616 67.3649 35.0995C68.673 36.8436 70.6351 38.1517 73.4692 38.1517C81.0995 38.1517 86.3317 29.4313 86.3317 21.1469C86.5498 13.5166 82.8436 11.1185 79.3555 11.1185ZM78.4834 24.6351C77.6114 29.2133 75.2133 32.2654 72.5972 32.2654C70.1991 32.2654 69.109 31.1754 69.109 31.1754C69.545 27.2512 69.981 24.6351 70.8531 22.455C71.7251 20.2749 73.9052 17.0047 76.0853 17.0047C78.2654 17.2227 79.3554 20.0569 78.4834 24.6351ZM105.517 11.7725H100.284V11.5545C100.72 8.06635 101.374 6.32227 104.209 6.10427C105.953 5.88626 106.825 5.01422 107.043 3.92417C107.261 3.05213 107.697 0.218009 107.697 0.218009C97.0142 0.218009 93.7441 4.79621 92.872 11.7725V11.9905H92.654C90.91 11.9905 88.9479 13.9526 88.7299 16.3507L88.5118 17.2227H92L88.9479 41.6398L88.0758 46C88.2938 46 88.2938 46 88.5118 46C93.5261 45.782 96.5782 41.8578 97.4502 36.1896L99.8483 17.0047H101.592C103.118 17.0047 105.081 15.4787 105.517 12.6445V11.7725ZM132.986 11.3365C126.882 11.3365 121.213 15.9147 119.469 22.891C117.725 29.8673 120.341 38.3697 129.28 38.3697C138.218 38.3697 143.45 29.6493 143.45 22.455C143.232 15.2607 138.436 11.3365 132.986 11.3365ZM135.384 24.4171C135.166 27.6872 133.64 32.4834 129.716 32.4834C125.791 32.4834 126.445 26.8152 126.663 24.1991C127.1 21.3649 128.626 17.2227 132.114 17.2227C135.384 17.2227 135.82 20.9289 135.384 24.4171ZM173.536 19.4028C173.536 19.4028 170.483 28.9953 170.265 29.8673C170.265 28.9953 167.867 11.7725 167.867 11.7725C162.635 11.7725 159.801 15.4787 158.493 19.4028C158.493 19.4028 154.787 28.9953 154.569 29.8673C154.569 29.2133 153.915 19.6209 153.915 19.6209C153.697 14.8246 149.118 11.9905 145.63 11.9905L149.991 38.1517C155.441 38.1517 158.493 34.4455 160.019 30.5213C160.019 30.5213 163.289 22.019 163.507 21.5829C163.507 22.019 165.905 38.1517 165.905 38.1517C171.355 38.1517 174.408 34.6635 175.934 30.9573L183.128 11.7725C177.678 11.7725 174.844 15.4787 173.536 19.4028ZM110.531 0.218009L106.171 35.9716L105.299 40.3318C105.517 40.3318 105.517 40.3318 105.735 40.3318C110.531 40.3318 114.019 35.9716 114.455 30.7393L117.071 10.2464C117.725 4.14218 113.801 0.218009 110.531 0.218009Z" fill="white"/>
</svg>
